<svg width="19" height="15" fill="none" xmlns="http://www.w3.org/2000/svg"><path d="M11.921.167c1.679-.5 3.062.2 3.654 1.1.691-.2 1.383-.5 2.074-.7 0 .8-.494 1.5-.889 1.7.691.2 1.284-.5 1.284-.5-.198 1-.988 1.7-1.58 2-.198 6.6-3.259 11-10.27 10.8H5.7c-.395 0-4.246-.4-4.938-1.8 2.272.2 3.95-.4 4.74-1.1-.987-.3-2.764-.5-3.06-2.9.394.1.592.2 1.283.1-1.185-.8-2.567-1.5-2.469-3.7.296.3 1.086.5 1.383.5-.691-.2-1.975-3.3-.889-4.8 1.876 1.8 3.753 3.5 7.307 3.7.1-2.3 1.087-3.8 2.864-4.4Z" fill="#fff"/></svg>