<svg width="102" height="83" fill="none" xmlns="http://www.w3.org/2000/svg"><path d="m0 .564 50.6 57.66L101.7.563H0Z" fill="#23A9E1"/><path d="M50.9.564H0v21.951l50.6 60.001.3-.39 50.7-58.928V.564H50.9Zm0 55.708-.3.39L3.7 2.32h94.4L50.9 56.272Z" fill="#491213"/><path d="m50.6 56.662.3-.39L78.5 24.76c-6.9.878-11.9 5.952-18.6 4.878-3.4-.585-3.5-2.439-4.5-4.39-.7-1.463-1.9-1.268-3.5-1.853-1.4-.586-2.3-1.659-5.2-1.074-2.5.586-2.8 4.39-6 4.196-1.7-.098-1.8-2.44-4.2-5.366-6.3-7.415-12.2-6.342-16.2.487l30.3 35.025Z" fill="#491213"/><path d="M23.3 31.98c.5.584.9 1.267.8 2.048-.1.585-.9 1.463-.3 1.756.7-.878 1.5-1.854 2.2-2.732-.6-.195-5.4-5.658-5.4-6.341-1.1.585-2.1 1.17-3.2 1.658.2.683 1.3 0 1.9 0 .8.098 1.4.586 2 1.171-1.7 1.366-5.9 4.878-6.4 4.976-.2 0-1.1-.586-1.1-.098 0 .293.9.976 1 1.17.7.879 1.5 1.757 2.2 2.635.6-.293-.1-.683.2-1.17.3-.293 4.9-4.098 6.1-5.074ZM18 25.247c.4-.097.6.39 1-.097-.8-.976-1.6-1.854-2.4-2.83-.4-.39-.8-.878-.7 0 .1.586-6.1 5.561-6.5 5.659-.5.195-.8-.39-1.1.098.7.878 1.5 1.658 2.2 2.536.2.293.5.586.7.878.3.293.2-.683.2-.585-.1-.488.5-.878.9-1.17 1.5-1.367 5.3-4.489 5.7-4.489ZM9.2 24.37c-1.8.487-3.6-.196-4.2-1.952-.5-1.756.6-3.707 2.1-4.683 1.4-.976 3.6-.976 4.4.78.3.781.2 1.659-.1 2.44-.2.487-.6.975.1 1.268.9-1.073 1.7-2.146 2.6-3.22-1.1-.585-1.5-1.658-2.3-2.536-.9-1.073-2.1-2.05-3.5-2.244-2.9-.39-5.6 2.536-5.8 5.073-.1 1.463.4 2.732 1.2 3.902.8.976 1.9 1.561 2.4 2.732.3.098 2.7-.975 3.3-1.268-.1-.098-.1-.293-.2-.293-.7.195 0 0 0 0ZM48.5 59.882c-1.2-.78-4-4.585-4.6-5.17-.1-.099-.2-.294-.3-.391 0 0-.3.195-.2.195-.2.098.1.585-.1.878-.8 1.17-5.8 4.878-6 5.073-.6.39-1.2-.195-1.5.293.7.878 2.8 3.415 3 3.512.5.098.1-.78.2-.975.1-.39 2.6-2.342 3.5-3.122.3-.293.7.39.9.683.3.487.5.975.3 1.56-.1.39-.7.879-.3 1.171.6-.683 2.4-2.731 2.6-2.927.3-.292-.6 0-.5-.097-.4.195-.7.195-1.1 0-.1-.098-1.1-1.073-1-1.17.4-.391 1-.977 1.5-1.074.9-.195 1.6 1.463 1.7 2.049.1.585.1 1.17-.1 1.756-.1.39-.5.683 0 .878.7-.976 1.4-1.854 2.1-2.83.2-.194 0-.292-.1-.292-.1-.098.2 0 0 0ZM38.3 55.784c2.2-1.853 2.5-4.975.8-7.122-1.9-2.439-5.4-3.024-7.8-1.073-2.2 1.854-2.5 4.878-.8 7.122 2 2.634 5.2 2.927 7.8 1.073 1.2-.878-.1.098 0 0Zm-.5-4.585c-.6 1.463-2.2 3.024-3.7 3.61-1.8.683-3.1-.78-2.4-2.537.6-1.463 2.2-3.024 3.7-3.61 1.9-.683 3.1.878 2.4 2.537-.3.878.1-.195 0 0ZM31.9 41.54c.5.098.9.586 1.3 0-.7-.878-1.5-1.756-2.2-2.536-.6.292 0 .487-.2.975-.2.39-2.6.78-3.2.878.2-.585.9-2.536 1.2-2.731.5-.39.9.39 1.3-.098l-2.7-3.22c-.3-.39-.6-.975-1-.683 0 0 0 1.464-.1 1.659-.1.195-.9 3.512-1.9 4.39-.5.39-2.2 1.854-2.7 2.05-.5.194-.8-.586-1.2 0 .8.975 1.7 1.95 2.5 2.926.1.098.6.878.8.878.5.098.1-.878.1-1.073.2-.39 2.5-2.634 3.5-2.83 1.2-.292 3-.78 4.5-.585.3.098-.4 0 0 0ZM69.2 51.687c.2.585.3 1.268.2 1.95-.1.879-1 2.83-2.2 2.245-1.2-.586-2.2-1.659-3.2-2.537.8-.878 1.5-1.658 2.9-1.268.4.097.7 0 .3-.293-.4-.195-3.1-1.951-3.3-1.756-.3.293.5.878.2 1.464-.2.39-.6.78-.9 1.17-.7-.585-1.9-1.268-1.1-2.244.5-.683 1.3-1.17 2.1-1.268.6-.098 1.8.39 2-.195-1.1-.488-2.2-.976-3.3-1.561.2.78-3.3 4.39-4.1 5.366-.1.097-.7.585-.7.78 0 .39.6.098.7.098.5-.195 6.8 4.976 7 5.366.1.293-.2.585 0 .683 0 0 .2.195.3.195.4-.488 4.5-5.854 5.4-6.049a115.9 115.9 0 0 1-2.4-3.61c-.6.39 0 1.073.1 1.464ZM63 58.32c-2.1-1.267-5.6 1.27-6.1 1.464-1 .488-1.8-.487-1.3-1.463.5-.78 1.4-1.17 2.3-1.268.3 0 1.4.195 1.5 0 .1-.196.2-.196 0-.293-.9-.585-1.7-1.17-2.6-1.659-.2 1.074-1.4 1.659-2.1 2.342-.8.878-1.5 1.854-1.5 3.122 0 1.073.7 2.049 1.7 2.634 1.1.585 2.3.098 3.3-.488.6-.39 1.3-.878 1.9-1.17 1-.488 2.3-.098 2 1.268-.3 1.073-1.4 2.049-2.4 2.244-.6.195-1.3.097-1.9-.098-.4-.097-1-.683-1.2-.097 1.2.78 2.3 1.658 3.5 2.439.1-.78.5-1.074 1.1-1.561.7-.586 1.4-1.269 2-2.05 1.2-1.658 1.6-4-.2-5.365Z" fill="#fff"/><path d="M63 58.321c1 .488-.6-.488 0 0ZM99.7 19.686c-.7.683-8.4-2.244-9-2.732-.3-.097-.3-1.268-.7-.78l-1.2 1.463c-.4.488-.8.976-1.3 1.464-.3.293-.5.488 0 .683.8-.39 5.4 7.122 5 8.293-.7.39-6.9-4.976-7.1-5.269-.1-.097.3-.975-.2-.878-.2 0-.7.878-.9 1.073-.3.39-.6.683-.9 1.073.3.488.5 0 1 0 .4.098 1.8 1.269 2.2 1.66-.7 0-2.7.097-2.9.097-.9.097-.4-.683-1-.878-.8.878-1.5 1.756-2.3 2.731-.4.488-.9 1.073-1.3 1.561-.1.098 0 0 .1.098.3.293.1.195.6 0s6.6 4.78 6.8 5.073c.4.488-.2.976.4 1.17.6-.682 1.2-1.463 1.8-2.145.1-.098.1-.098 0-.196-.4-.39-.5.196-1 .196-.5-.098-4.4-3.318-5.9-4.488 1.8-.098 7.3-.293 8.2-.293.3 0 1.1.878 1.1 1.17-.1.39-.5.586.1.781.5-.585 1-1.073 1.5-1.658l.2-.293c.1-.098.1-.098.2-.293l.2-.195c.4-.488 1.8-1.951 1.6-2.146-.5-.39-.7.488-1.3-.098-.3-.195-1.2-1.756-1.4-2.146-.3-.39.6-.878 1-1.073.8-.488 3.2-1.171 3.5.292 0 .293-.3.488-.1.683 0 0 .2.195.3.195.2-.195 2.4-2.731 3.3-3.902-.4-.098-.5-.195-.6-.293Zm-7.4 2.147c.1-.098.2-.098 0 0-.3.195-.7.487-1 .78-.5-.878-1-1.756-1.6-2.634 1.2.488 2.4.976 3.5 1.463-.2 0-.5.195-.9.39ZM82.6 32.76c-2.4-1.952-5.6-1.366-7.6.78-1.9 2.244-1.7 5.561.6 7.415s5.7 1.366 7.6-.78c1.9-2.245 1.8-5.562-.6-7.415Zm-.3 6.439c-1.3 1.268-3.4.097-4.5-.683s-3.1-2.537-1.9-4c1.1-1.269 3.1-.195 4.2.488 1.2.78 3.4 2.536 2.3 4.097l-.1.098Z" fill="#fff"/><path d="M82.6 32.76c1.2.976-.3-.196 0 0ZM82.3 39.199l.1-.098-.1.098ZM76 41.638c.1.097.3.195 0 0-2.9-2.147-6.3-1.561-8.5 1.073l-3 3.512c.4.488.8-.097 1.3.195.4.293 6.2 4.976 6.3 5.269.2.488-.3.488.1.878.2.097 4.5-5.073 4.9-6.05.9-1.755.3-3.706-1.1-4.877Zm-1.3 6.634c-.2.293 0 .098-.7.683-.3.293-6.4-4.585-6.2-4.78.8-.879 2.6-1.562 3.6-1.269 2.2.39 5.2 3.025 3.3 5.366Z" fill="#fff"/><path d="m50.6 56.662.3-.39L78.5 24.76c-6.9.878-11.9 5.952-18.6 4.878-3.4-.585-3.5-2.439-4.5-4.39-.7-1.463-1.9-1.268-3.5-1.853-1.4-.586-2.3-1.659-5.2-1.074-2.5.586-2.8 4.39-6 4.196-1.7-.098-1.8-2.44-4.2-5.366-6.3-7.415-12.2-6.342-16.2.487l30.3 35.025Z" fill="#491213"/><path d="m46.5 69.736 4.1-6.342 4 6.342-4 6.341-4.1-6.341Z" fill="#23A9E1"/><path d="M23.3 32.077c.5.585.9 1.268.8 2.048-.1.586-.9 1.561-.3 1.757.7-.878 1.5-1.854 2.2-2.732-.6-.195-5.4-5.659-5.4-6.342-1.1.586-2.1 1.171-3.2 1.659.2.683 1.3 0 1.9 0 .8.097 1.4.585 2 1.17-1.7 1.366-5.9 4.879-6.4 4.976-.2 0-1.1-.585-1.1-.097 0 .292.9.975 1 1.17.7.879 1.5 1.757 2.2 2.635.6-.293-.1-.683.2-1.171.3-.39 4.9-4.195 6.1-5.073ZM18 25.247c.4-.097.6.39 1-.097-.8-.976-1.6-1.854-2.4-2.83-.4-.39-.8-.878-.7 0 .1.586-6.1 5.561-6.5 5.659-.5.195-.8-.39-1.1.098.7.878 1.5 1.658 2.2 2.536.2.293.5.586.7.878.3.293.2-.683.2-.585-.1-.488.5-.878.9-1.17 1.5-1.27 5.3-4.489 5.7-4.489ZM9.2 24.37c-1.8.487-3.7-.196-4.2-1.952s.6-3.707 2.1-4.683c1.4-.976 3.6-.976 4.4.78.3.781.2 1.659-.1 2.44-.2.487-.6.975.1 1.268.9-1.073 1.7-2.146 2.6-3.22-1.1-.585-1.5-1.658-2.3-2.536-.9-1.073-2.1-2.05-3.5-2.244-2.9-.39-5.6 2.536-5.8 5.073-.1 1.463.4 2.732 1.2 3.902.8.976 1.9 1.561 2.4 2.732.3.098 2.7-.975 3.3-1.268-.1-.098-.1-.195-.2-.293-.7.195 0 0 0 0ZM48.5 59.882c-1.2-.78-4-4.585-4.6-5.17-.1-.099-.2-.294-.3-.391 0 0-.3.195-.2.195-.2.098.1.585-.1.878-.8 1.17-5.8 4.878-6 5.073-.6.39-1.2-.195-1.5.293.7.878 2.8 3.415 3 3.512.5.098.1-.78.2-.975.1-.39 2.6-2.342 3.5-3.122.3-.293.7.39.9.683.3.487.5.975.3 1.56-.1.39-.7.879-.3 1.171.6-.683 2.4-2.731 2.6-2.927.3-.292-.6 0-.5-.097-.4.195-.7.195-1.1 0-.1-.098-1.1-1.073-1-1.17.4-.391 1-.977 1.5-1.074.9-.195 1.6 1.463 1.7 2.049.1.585.1 1.17-.1 1.756-.1.39-.5.683 0 .878.7-.976 1.4-1.854 2.1-2.83.2-.194 0-.292-.1-.292-.1-.098.2 0 0 0ZM38.3 55.784c2.2-1.853 2.5-4.975.8-7.122-1.9-2.439-5.4-3.024-7.8-1.073-2.2 1.854-2.5 4.878-.8 7.122 2 2.634 5.2 2.927 7.8 1.073 1.2-.878-.1.098 0 0Zm-.5-4.585c-.6 1.463-2.2 3.024-3.7 3.61-1.8.683-3.1-.78-2.4-2.537.7-1.463 2.2-3.024 3.7-3.61 1.9-.683 3.1.878 2.4 2.537-.4.878.1-.195 0 0ZM31.9 41.54c.5.098.9.488 1.3 0-.7-.878-1.5-1.756-2.2-2.536-.6.292 0 .487-.2.975-.2.39-2.6.78-3.2.878.2-.585.9-2.536 1.2-2.731.5-.39.9.39 1.3-.098l-2.7-3.22c-.3-.39-.6-.975-1-.683 0 0 0 1.464-.1 1.659-.1.195-.9 3.512-1.9 4.39-.5.39-2.2 1.854-2.7 2.05-.5.194-.8-.586-1.2 0 .8.975 1.7 1.95 2.5 2.926.1.098.6.878.8.878.5.098.1-.878.1-1.073.2-.39 2.5-2.634 3.5-2.83 1.2-.195 3-.682 4.5-.585.3.098-.4 0 0 0Z" fill="#fff"/><path d="M25.6 22.906c-4-.195-2.4-3.903.4-4.683 2.6-.78 8.1 1.658 9.8 3.317-2.8.878-6.4.683-9.4.878-.2-3.122-1-2.049-.8.488ZM26.6 27.589c-2-1.561-1.4-5.171 1.8-4 4 2.049-.9 3.122-1.8 4ZM35.1 35.101c-8.6-.097-2.8-12.976.1-12.195 3.4 1.073 3 12.293-.1 12.195ZM41.2 30.906c-.8 2.439-2.4 2.927-2.2-.098.2-3.414 2.5-2.634 4.9-3.902 2-1.073 3.1-5.073 6.6-2.732 1.6 1.073 3.4.195 3.9 1.756 0-.097-4.5 10.05-2 10.05-5 0-2.8-5.757-.9-9.66-1.8.878-4.8 6.537-2.4 7.415-1.3 1.659-5.2 3.805-7.2 2.244-1.5-1.073-.7-3.122-.7-5.073ZM45.3 40.272c-3.5.976-8.1-1.17-2.5-2.244 3.5-.683 7.2.683 2.5 2.244.1 0-.1 0 0 0ZM49.7 40.174c-.7-1.658.6-3.512 2.7-2.146 1.8 1.17-.9 3.024-2.7 2.146ZM46.7 44.662c-2.4-.683-10.5-.585-5.2-2.732 1.7-.585 10.2.196 5.2 2.732ZM49.9 44.37c0-.976-.5-2.635 1.4-1.854 2.2.78-1.4 2.536-1.4 1.854 0 0 0-.196 0 0ZM57.2 47.882c-1.4-1.171-2.9-1.269-4.2 0-1.8-3.22-8.3-2.147-11.4-2.634 1.6 4 14.8 4.78 15.6 2.634ZM55.3 50.32c-3.2-.097-6.7-.585-9.6.098 1.9.488 6.4 1.757 2.2 2.83 1.5 2.146 4 1.95 5.6.097-.7-.292-1-.683-1.6-1.073 1.6-.293 3.2-1.17 3.4-1.951ZM58.9 46.516c-5.3-3.025-4-5.268.4-7.415 2.3-1.073 7.3-5.073 9.4-3.805-3.3 3.805-6.6 7.513-9.8 11.22Z" fill="#DC6243"/><path d="M55.1 39.394c-4.5-4.488 6.7-4.098 8.5-5.659 1.3.39 10.8-8.098 13.1-7.512-1.7 1.854-5.2 7.902-7.8 7.902-2 0-4-.292-5.5 1.074-2.2 2.048-5.9 3.024-8.3 4.195Z" fill="#F49774"/><path d="M56.6 33.93c-2.5 1.269-4.8-3.805-.5-3.317 2.8.293 5.7-.195 8.3.195-2 2.244-4.7 3.513-7.8 3.122Z" fill="#F4B1A4"/><path d="M69.2 51.784c.2.586.3 1.269.2 1.952-.1.878-1 2.829-2.2 2.243-1.2-.585-2.2-1.658-3.2-2.536.8-.878 1.5-1.659 2.9-1.268.4.097.7 0 .3-.293-.4-.195-3.1-1.951-3.3-1.756-.3.292.5.878.2 1.463-.2.39-.6.78-.9 1.17-.7-.584-1.9-1.267-1.1-2.243.5-.683 1.3-1.17 2.1-1.268.6-.098 1.8.39 2-.195-1.1-.488-2.2-.976-3.3-1.561.2.78-3.3 4.39-4.1 5.365-.1.098-.7.586-.7.78 0 .391.6.099.7.099.5-.196 6.8 4.975 7 5.365.1.293-.2.586 0 .683 0 0 .2.195.3.195.4-.487 4.5-5.853 5.4-6.048-.8-1.171-1.6-2.342-2.4-3.61-.6.293 0 .975.1 1.463ZM63 58.32c-2.1-1.267-5.6 1.27-6.1 1.464-1 .488-1.8-.487-1.3-1.463.5-.78 1.4-1.17 2.3-1.268.3 0 1.3.195 1.5 0 .1-.196.2-.196 0-.293-.9-.585-1.7-1.17-2.6-1.659-.2 1.074-1.4 1.659-2.1 2.342-.8.878-1.5 1.854-1.5 3.122 0 1.073.7 2.049 1.7 2.634 1.1.585 2.3.098 3.3-.488.6-.39 1.3-.878 1.9-1.17 1-.488 2.3-.098 2 1.268-.3 1.073-1.4 2.049-2.4 2.244-.6.195-1.3.097-1.9-.098-.4-.097-1-.683-1.2-.097 1.2.78 2.3 1.658 3.5 2.439.1-.78.5-1.074 1.1-1.561.7-.586 1.4-1.269 2-2.05 1.2-1.658 1.6-4-.2-5.365ZM63 58.32c1 .586-.6-.487 0 0ZM99.7 19.686c-.7.683-8.4-2.244-9-2.732-.3-.097-.3-1.268-.7-.78l-1.2 1.463c-.4.488-.8.976-1.3 1.464-.3.293-.5.488 0 .683.8-.39 5.4 7.122 5 8.293-.7.39-6.9-4.976-7.1-5.269-.1-.097.3-.975-.2-.878-.2 0-.7.878-.9 1.073-.3.39-.6.683-.9 1.073.3.488.5 0 1 0 .4.098 1.8 1.269 2.2 1.66-.7 0-2.7.097-2.9.097-.9.097-.4-.683-1-.878-.8.878-1.5 1.756-2.3 2.731-.4.488-.9 1.073-1.3 1.561-.1.098 0 0 0 .098.3.293.1.195.6 0s6.6 4.78 6.8 5.073c.4.39-.2.976.4 1.17.6-.682 1.2-1.463 1.8-2.145.1-.098.1-.098 0-.196-.4-.39-.5.196-1 .196-.5-.098-4.4-3.318-5.9-4.488 1.8-.098 7.3-.293 8.2-.293.3 0 1.1.878 1.1 1.17-.1.39-.5.586.1.781.5-.585 1-1.073 1.5-1.658l.2-.293c.1-.098.1-.098.2-.293l.2-.195c.4-.488 1.8-1.951 1.6-2.049-.5-.39-.7.488-1.3-.097-.3-.195-1.2-1.756-1.4-2.147-.3-.39.6-.878 1-1.073.8-.488 3.2-1.17 3.5.293 0 .293-.3.488-.1.683 0 0 .2.195.3.195.2-.195 2.4-2.732 3.3-3.902-.3-.196-.4-.293-.5-.39Zm-7.4 2.147c.1 0 .2-.098 0 0-.3.195-.7.487-1 .78-.5-.878-1-1.756-1.6-2.634 1.2.488 2.4.976 3.5 1.463-.2.098-.5.195-.9.39ZM82.6 32.76c-2.4-1.952-5.6-1.366-7.6.78-1.9 2.244-1.7 5.561.6 7.415s5.7 1.366 7.6-.78c1.9-2.245 1.8-5.562-.6-7.415Zm-.3 6.439s0 .097 0 0c-1.3 1.268-3.4.097-4.5-.683s-3.1-2.537-1.9-4c1.1-1.269 3.1-.195 4.2.488 1.2.78 3.4 2.536 2.3 4.097l-.1.098Z" fill="#fff"/><path d="M82.6 32.76c1.2.976-.3-.196 0 0ZM82.3 39.296c0-.097 0-.097 0 0l.1-.097c-.1 0-.1.097-.1.097ZM76 41.638c.1.097.3.292 0 0-2.9-2.147-6.3-1.561-8.5 1.073l-3 3.512c.4.488.8-.097 1.3.195.4.293 6.2 4.976 6.3 5.269.2.488-.3.488.1.878.2.097 4.5-5.073 4.9-6.05.9-1.755.3-3.609-1.1-4.877Zm-1.3 6.634c-.2.293 0 .098-.7.683-.3.293-6.4-4.585-6.2-4.78.8-.879 2.6-1.562 3.6-1.269 2.2.488 5.2 3.122 3.3 5.366Z" fill="#fff"/></svg>