<svg xmlns="http://www.w3.org/2000/svg" xmlns:xlink="http://www.w3.org/1999/xlink"><symbol id="intro-triangle" viewBox="0 0 1200 57">
<path d="M249.6 23.7L0 0V57H249.6H600L249.6 0V23.7Z" fill="white"/>
<path d="M950.4 23.7V0L600 57H950.4H1199.9V0L950.4 23.7Z" fill="white"/>
</symbol><symbol id="logotype-desktop" viewBox="0 0 187 97">
<path d="M186.6 0H0L80.5 90.5C87.6 98.4 99.1 98.4 106.2 90.5L186.6 0Z" fill="#81B3D3"/>
<path d="M43.2 0.7L92.8 59.1L142.1 1.1L43.2 0.7Z" fill="#23A9E1"/>
<path d="M122 17.3C116.9 17.3 111.9 17.4 106.8 17.4C112.8 10.5 115.5 11.2 122 17.3Z" fill="white"/>
<path d="M80.8 22.7C89.7 22.7 98.6 22.7 107.5 22.7C105.5 21.5 100.8 15.6 98.2 17.8C98 18 90.7 8.9 85.9 13.3C81.7 17.1 79.8 12.8 75 15.8C69.7 19.4 78.2 21.5 80.8 22.7Z" fill="white"/>
<path d="M93.0999 0H42.2V22.5L92.8 84L93.0999 83.6L143.8 23.2V0H93.0999ZM54.9 1.8H60.4V19L54.9 12.5V1.8ZM54.0999 11.6L49.0999 5.7V1.8H54.0999V11.6ZM73.4 8.9L67.6999 1.8H73.4V8.9ZM66.8 12.7L61.2 1.8H66.8V12.7ZM61.0999 3.4L66.5999 14.1C63.7999 16.2 61.8999 18.1 61.0999 19V3.4ZM67.5999 2.9L73.1999 9.8C72.0999 10.4 70.9999 11.1 70.0999 11.7C69.1999 12.3 68.3999 12.9 67.5999 13.5V2.9ZM74.1999 2.7L79 6.9C77.2999 7.6 75.6999 8.4 74.1999 9.2V2.7ZM79.8 6.6L74.4 1.8H80.4V6.4C80.1 6.4 80 6.5 79.8 6.6ZM98.9 1.8H103.9L98.9 4.2V1.8ZM93.0999 1.8H97.5L93.0999 3.9V1.8ZM92.1999 3.8L88 1.8H92.1999V3.8ZM86.6999 4.3L81.5999 1.8H86.6999V4.3ZM81.0999 2.4L85.8 4.7C84.2 5.1 82.5999 5.5 81.0999 6V2.4ZM87.5 2.4L90.9 4C89.7 4.1 88.6 4.2 87.4 4.4V2.4H87.5ZM97.9 2.5V4.4C96.8 4.2 95.7 4.1 94.5 4L97.9 2.5ZM104.4 2.4V6.1C102.9 5.6 101.3 5.1 99.5999 4.7L104.4 2.4ZM105.1 1.8H111L105.6 6.6C105.4 6.5 105.3 6.5 105.1 6.4V1.8ZM118.7 1.8H124.3L118.7 12.7V1.8ZM112.1 1.8H117.8L112.1 8.8V1.8ZM111.3 2.7V9.2C109.8 8.4 108.2 7.6 106.5 6.9L111.3 2.7ZM117.9 2.9V13.4C117.2 12.9 116.4 12.4 115.6 11.8C114.6 11.1 113.4 10.4 112.2 9.7L117.9 2.9ZM124.3 3.4V18.6C123.2 17.6 121.4 15.9 118.8 14L124.3 3.4ZM125.1 19.4V1.8H130.6V13.2L125.1 19.4C125.2 19.5 125.1 19.5 125.1 19.4ZM131.4 1.8H136.4V6.5L131.4 12.3V1.8ZM48.4 1.8V4.7L45.9 1.8H48.4ZM61.2 20L61.2999 20.1C61.2999 20.1 64.9 16.2 70.5 12.5C75.7999 9 83.8 4.9 92.8 5C101.7 5 109.9 9.2 115.1 12.7C120.7 16.4 124.4 20.2 124.5 20.3L120.6 24.8C113.7 25.7 108.7 30.9 102 29.8C98.5999 29.2 98.5 27.3 97.5 25.3C96.7999 23.8 95.5999 24 94 23.4C92.5999 22.8 91.7 21.7 88.8 22.3C86.3 22.9 86 26.8 82.8 26.6C81.1 26.5 81 24.1 78.5999 21.1C72.2999 13.5 66.4 14.6 62.4 21.6L92.6999 57.5L61.2 20ZM137.1 5.5V1.8H140.3L137.1 5.5Z" fill="#491213"/>
<path d="M88.7 70.9L92.8 64.4L96.8 70.9L92.8 77.4L88.7 70.9Z" fill="#23A9E1"/>
<path d="M65.4999 32.3C65.9999 32.9 66.3999 33.6 66.2999 34.4C66.1999 35 65.3999 36 65.9999 36.2C66.6999 35.3 67.4999 34.3 68.1999 33.4C67.5999 33.2 62.7999 27.6 62.7999 26.9C61.6999 27.5 60.6999 28.1 59.5999 28.6C59.7999 29.3 60.8999 28.6 61.4999 28.6C62.2999 28.7 62.8999 29.2 63.4999 29.8C61.7999 31.2 57.5999 34.8 57.0999 34.9C56.8999 34.9 55.9999 34.3 55.9999 34.8C55.9999 35.1 56.8999 35.8 56.9999 36C57.6999 36.9 58.4999 37.8 59.1999 38.7C59.7999 38.4 59.0999 38 59.3999 37.5C59.6999 37.1 64.2999 33.2 65.4999 32.3Z" fill="white"/>
<path d="M60.1999 25.3C60.5999 25.2 60.7999 25.7 61.1999 25.2C60.3999 24.2 59.5999 23.3 58.7999 22.3C58.3999 21.9 57.9999 21.4 58.0999 22.3C58.1999 22.9 51.9999 28 51.5999 28.1C51.0999 28.3 50.7999 27.7 50.4999 28.2C51.1999 29.1 51.9999 29.9 52.6999 30.8C52.8999 31.1 53.1999 31.4 53.3999 31.7C53.6999 32 53.5999 31 53.5999 31.1C53.4999 30.6 54.0999 30.2 54.4999 29.9C55.9999 28.6 59.7999 25.3 60.1999 25.3Z" fill="white"/>
<path d="M51.3999 24.4C49.5999 24.9 47.6999 24.2 47.1999 22.4C46.6999 20.6 47.7999 18.6 49.2999 17.6C50.6999 16.6 52.8999 16.6 53.6999 18.4C53.9999 19.2 53.8999 20.1 53.5999 20.9C53.3999 21.4 52.9999 21.9 53.6999 22.2C54.5999 21.1 55.3999 20 56.2999 18.9C55.1999 18.3 54.7999 17.2 53.9999 16.3C53.0999 15.2 51.8999 14.2 50.4999 14C47.5999 13.6 44.8999 16.6 44.6999 19.2C44.5999 20.7 45.0999 22 45.8999 23.2C46.6999 24.2 47.7999 24.8 48.2999 26C48.5999 26.1 50.9999 25 51.5999 24.7C51.4999 24.6 51.4999 24.5 51.3999 24.4C50.6999 24.6 51.3999 24.4 51.3999 24.4Z" fill="white"/>
<path d="M90.6999 60.8C89.4999 60 86.6999 56.1 86.0999 55.5C85.9999 55.4 85.8999 55.2 85.7999 55.1C85.7999 55.1 85.4999 55.3 85.5999 55.3C85.3999 55.4 85.6999 55.9 85.4999 56.2C84.6999 57.4 79.6999 61.2 79.4999 61.4C78.8999 61.8 78.2999 61.2 77.9999 61.7C78.6999 62.6 80.7999 65.2 80.9999 65.3C81.4999 65.4 81.0999 64.5 81.1999 64.3C81.2999 63.9 83.7999 61.9 84.6999 61.1C84.9999 60.8 85.3999 61.5 85.5999 61.8C85.8999 62.3 86.0999 62.8 85.8999 63.4C85.7999 63.8 85.1999 64.3 85.5999 64.6C86.1999 63.9 87.9999 61.8 88.1999 61.6C88.4999 61.3 87.5999 61.6 87.6999 61.5C87.2999 61.7 86.9999 61.7 86.5999 61.5C86.4999 61.4 85.4999 60.4 85.5999 60.3C85.9999 59.9 86.5999 59.3 87.0999 59.2C87.9999 59 88.6999 60.7 88.7999 61.3C88.8999 61.9 88.8999 62.5 88.6999 63.1C88.5999 63.5 88.1999 63.8 88.6999 64C89.3999 63 90.0999 62.1 90.7999 61.1C90.9999 60.9 90.7999 60.8 90.6999 60.8C90.5999 60.7 90.8999 60.8 90.6999 60.8Z" fill="white"/>
<path d="M80.5 56.6C82.7 54.7 83 51.5 81.3 49.3C79.4 46.8 75.9 46.2 73.5 48.2C71.3 50.1 70.9999 53.2 72.6999 55.5C74.6999 58.2 77.9 58.5 80.5 56.6C81.7 55.7 80.4 56.7 80.5 56.6ZM80 51.9C79.4 53.4 77.8 55 76.3 55.6C74.5 56.3 73.2 54.8 73.9 53C74.6 51.5 76.1 49.9 77.6 49.3C79.5 48.6 80.7 50.2 80 51.9C79.6 52.8 80.1 51.7 80 51.9Z" fill="white"/>
<path d="M74.0999 42C74.5999 42.1 75 42.5 75.4 42C74.7 41.1 73.8999 40.2 73.1999 39.4C72.5999 39.7 73.2 39.9 73 40.4C72.8 40.8 70.4 41.2 69.8 41.3C70 40.7 70.7 38.7 71 38.5C71.5 38.1 71.9 38.9 72.3 38.4C71.4 37.3 70.4999 36.2 69.5999 35.1C69.2999 34.7 68.9999 34.1 68.5999 34.4C68.5999 34.4 68.6 35.9 68.5 36.1C68.4 36.3 67.5999 39.7 66.5999 40.6C66.0999 41 64.4 42.5 63.9 42.7C63.4 42.9 63.1 42.1 62.7 42.7C63.5 43.7 64.3999 44.7 65.1999 45.7C65.2999 45.8 65.8 46.6 66 46.6C66.5 46.7 66.0999 45.7 66.0999 45.5C66.2999 45.1 68.5999 42.8 69.5999 42.6C70.7999 42.4 72.5999 41.9 74.0999 42C74.3999 42.1 73.6999 42 74.0999 42Z" fill="white"/>
<path d="M67.8 22.9C63.8 22.7 65.4 18.9 68.2 18.1C70.8 17.3 76.3 19.8 78 21.5C75.2 22.4 71.6 22.2 68.6 22.4C68.4 19.2 67.6 20.3 67.8 22.9Z" fill="#DC6243"/>
<path d="M77.3 35.4C68.7 35.3 74.5 22.1 77.4 22.9C80.8 24 80.4 35.5 77.3 35.4Z" fill="#DC6243"/>
<path d="M83.4 31.1C82.6 33.6 81 34.1 81.2 31C81.4 27.5 83.7 28.3 86.1 27C88.1 25.9 89.2 21.8 92.7 24.2C94.3 25.3 96.1 24.4 96.6 26C96.6 25.9 92.1 36.3 94.6 36.3C89.6 36.3 91.8 30.4 93.7 26.4C91.9 27.3 88.9 33.1 91.3 34C90 35.7 86.1 37.9 84.1 36.3C82.6 35.2 83.4 33.1 83.4 31.1Z" fill="#DC6243"/>
<path d="M87.5 40.7C84 41.7 79.4 39.5 85 38.4C88.5 37.7 92.2 39.1 87.5 40.7C87.6 40.7 87.4 40.7 87.5 40.7Z" fill="#DC6243"/>
<path d="M91.9 40.6C91.2 38.9 92.5 37 94.6 38.4C96.4 39.6 93.7 41.5 91.9 40.6Z" fill="#DC6243"/>
<path d="M88.8999 45.2C86.4999 44.5 78.3999 44.6 83.6999 42.4C85.3999 41.8 93.8999 42.6 88.8999 45.2Z" fill="#DC6243"/>
<path d="M99.3999 48.5C97.9999 47.3 96.4999 47.2 95.1999 48.5C93.3999 45.2 86.8999 46.3 83.7999 45.8C85.3999 49.9 98.5999 50.7 99.3999 48.5Z" fill="#DC6243"/>
<path d="M97.4999 51C94.2999 50.9 90.7999 50.4 87.8999 51.1C89.7999 51.6 94.2999 52.9 90.0999 54C91.5999 56.2 94.0999 56 95.6999 54.1C94.9999 53.8 94.6999 53.4 94.0999 53C95.6999 52.7 97.2999 51.8 97.4999 51Z" fill="#DC6243"/>
<path d="M101.1 47.1C95.7999 44 97.0999 41.7 101.5 39.5C103.8 38.4 108.8 34.3 110.9 35.6C107.6 39.5 104.3 43.3 101.1 47.1Z" fill="#DC6243"/>
<path d="M97.2999 39.8C92.7999 35.2 104 35.6 105.8 34C107.1 34.4 116.6 25.7 118.9 26.3C117.2 28.2 113.7 34.4 111.1 34.4C109.1 34.4 107.1 34.1 105.6 35.5C103.4 37.6 99.6999 38.6 97.2999 39.8Z" fill="#F49774"/>
<path d="M98.7999 34.2C96.2999 35.5 93.9999 30.3 98.2999 30.8C101.1 31.1 104 30.6 106.6 31C104.6 33.3 101.9 34.6 98.7999 34.2Z" fill="#F4B1A4"/>
<path d="M111.4 52.5C111.6 53.1 111.7 53.8 111.6 54.5C111.5 55.4 110.6 57.4 109.4 56.8C108.2 56.2 107.2 55.1 106.2 54.2C107 53.3 107.7 52.5 109.1 52.9C109.5 53 109.8 52.9 109.4 52.6C109 52.4 106.3 50.6 106.1 50.8C105.8 51.1 106.6 51.7 106.3 52.3C106.1 52.7 105.7 53.1 105.4 53.5C104.7 52.9 103.5 52.2 104.3 51.2C104.8 50.5 105.6 50 106.4 49.9C107 49.8 108.2 50.3 108.4 49.7C107.3 49.2 106.2 48.7 105.1 48.1C105.3 48.9 101.8 52.6 101 53.6C100.9 53.7 100.3 54.2 100.3 54.4C100.3 54.8 100.9 54.5 101 54.5C101.5 54.3 107.8 59.6 108 60C108.1 60.3 107.8 60.6 108 60.7C108 60.7 108.2 60.9 108.3 60.9C108.7 60.4 112.8 54.9 113.7 54.7C112.9 53.5 112.1 52.3 111.3 51C110.7 51.3 111.3 52 111.4 52.5Z" fill="white"/>
<path d="M105.2 59.2C103.1 57.9 99.5999 60.5 99.0999 60.7C98.0999 61.2 97.2999 60.2 97.7999 59.2C98.2999 58.4 99.1999 58 100.1 57.9C100.4 57.9 101.4 58.1 101.6 57.9C101.7 57.7 101.8 57.7 101.6 57.6C100.7 57 99.8999 56.4 98.9999 55.9C98.7999 57 97.5999 57.6 96.8999 58.3C96.0999 59.2 95.3999 60.2 95.3999 61.5C95.3999 62.6 96.0999 63.6 97.0999 64.2C98.1999 64.8 99.3999 64.3 100.4 63.7C101 63.3 101.7 62.8 102.3 62.5C103.3 62 104.6 62.4 104.3 63.8C104 64.9 102.9 65.9 101.9 66.1C101.3 66.3 100.6 66.2 99.9999 66C99.5999 65.9 98.9999 65.3 98.7999 65.9C99.9999 66.7 101.1 67.6 102.3 68.4C102.4 67.6 102.8 67.3 103.4 66.8C104.1 66.2 104.8 65.5 105.4 64.7C106.6 63 107 60.6 105.2 59.2Z" fill="white"/>
<path d="M105.2 59.2C106.2 59.8 104.6 58.7 105.2 59.2V59.2Z" fill="white"/>
<path d="M141.9 19.6C141.2 20.3 133.5 17.3 132.9 16.8C132.6 16.7 132.6 15.5 132.2 16C131.8 16.5 131.4 17 131 17.5C130.6 18 130.2 18.5 129.7 19C129.4 19.3 129.2 19.5 129.7 19.7C130.5 19.3 135.1 27 134.7 28.2C134 28.6 127.8 23.1 127.6 22.8C127.5 22.7 127.9 21.8 127.4 21.9C127.2 21.9 126.7 22.8 126.5 23C126.2 23.4 125.9 23.7 125.6 24.1C125.9 24.6 126.1 24.1 126.6 24.1C127 24.2 128.4 25.4 128.8 25.8C128.1 25.8 126.1 25.9 125.9 25.9C125 26 125.5 25.2 124.9 25C124.1 25.9 123.4 26.8 122.6 27.8C122.2 28.3 121.7 28.9 121.3 29.4C121.2 29.5 121.3 29.4 121.3 29.5C121.6 29.8 121.4 29.7 121.9 29.5C122.4 29.3 128.5 34.4 128.7 34.7C129.1 35.1 128.5 35.7 129.1 35.9C129.7 35.2 130.3 34.4 130.9 33.7C131 33.6 131 33.6 130.9 33.5C130.5 33.1 130.4 33.7 129.9 33.7C129.4 33.6 125.5 30.3 124 29.1C125.8 29 131.3 28.8 132.2 28.8C132.5 28.8 133.3 29.7 133.3 30C133.2 30.4 132.8 30.6 133.4 30.8C133.9 30.2 134.4 29.7 134.9 29.1L135.1 28.8C135.2 28.7 135.2 28.7 135.3 28.5L135.5 28.3C135.9 27.8 137.3 26.3 137.1 26.2C136.6 25.8 136.4 26.7 135.8 26.1C135.5 25.9 134.6 24.3 134.4 23.9C134.1 23.5 135 23 135.4 22.8C136.2 22.3 138.6 21.6 138.9 23.1C138.9 23.4 138.6 23.6 138.8 23.8C138.8 23.8 139 24 139.1 24C139.3 23.8 141.5 21.2 142.4 20C142.1 19.8 142 19.7 141.9 19.6ZM134.5 21.8C134.6 21.8 134.7 21.7 134.5 21.8C134.2 22 133.8 22.3 133.5 22.6C133 21.7 132.5 20.8 131.9 19.9C133.1 20.4 134.3 20.9 135.4 21.4C135.2 21.5 134.9 21.6 134.5 21.8Z" fill="white"/>
<path d="M124.8 33C122.4 31 119.2 31.6 117.2 33.8C115.3 36.1 115.5 39.5 117.8 41.4C120.1 43.3 123.5 42.8 125.4 40.6C127.3 38.3 127.2 34.9 124.8 33ZM124.5 39.6C124.5 39.6 124.5 39.7 124.5 39.6C123.2 40.9 121.1 39.7 120 38.9C118.9 38.1 116.9 36.3 118.1 34.8C119.2 33.5 121.2 34.6 122.3 35.3C123.5 36.1 125.7 37.9 124.6 39.5C124.7 39.4 124.7 39.4 124.5 39.6Z" fill="white"/>
<path d="M124.8 33C126 34 124.5 32.8 124.8 33V33Z" fill="white"/>
<path d="M124.5 39.7C124.5 39.6 124.5 39.6 124.5 39.7C124.6 39.6 124.6 39.6 124.6 39.6C124.5 39.6 124.5 39.7 124.5 39.7Z" fill="white"/>
<path d="M118.2 42.1C118.3 42.2 118.5 42.4 118.2 42.1C115.3 39.9 111.9 40.5 109.7 43.2C108.7 44.4 107.7 45.6 106.7 46.8C107.1 47.3 107.5 46.7 108 47C108.4 47.3 114.2 52.1 114.3 52.4C114.5 52.9 114 52.9 114.4 53.3C114.6 53.4 118.9 48.1 119.3 47.1C120.2 45.3 119.6 43.4 118.2 42.1ZM116.9 48.9C116.7 49.2 116.9 49 116.2 49.6C115.9 49.9 109.8 44.9 110 44.7C110.8 43.8 112.6 43.1 113.6 43.4C115.8 43.9 118.8 46.6 116.9 48.9Z" fill="white"/>
</symbol><symbol id="logotype-mobile" viewBox="0 0 102 83">
<path d="M0 0.563995L50.6 58.2233L101.7 0.563995H0Z" fill="#23A9E1"/>
<path d="M50.9 0.563995H0V22.5155L50.6 82.5164L50.9 82.1261L101.6 23.1985V0.563995H50.9ZM50.9 56.2721L50.6 56.6623L3.7 2.32012H50.9H98.1L50.9 56.2721Z" fill="#491213"/>
<path d="M50.6 56.6623L50.9 56.2721L78.5 24.7594C71.6 25.6375 66.6 30.7107 59.9 29.6375C56.5 29.0522 56.4 27.1985 55.4 25.2472C54.7 23.7838 53.5 23.9789 51.9 23.3936C50.5 22.8082 49.6 21.735 46.7 22.3204C44.2 22.9057 43.9 26.7107 40.7 26.5156C39 26.418 38.9 24.0765 36.5 21.1496C30.2 13.7349 24.3 14.8081 20.3 21.6374L50.6 56.6623Z" fill="#491213"/>
<path d="M23.3 31.9791C23.8 32.5644 24.2 33.2474 24.1 34.0279C24 34.6133 23.2 35.4913 23.8 35.784C24.5 34.9059 25.3 33.9303 26 33.0523C25.4 32.8571 20.6 27.3936 20.6 26.7107C19.5 27.2961 18.5 27.8815 17.4 28.3693C17.6 29.0522 18.7 28.3693 19.3 28.3693C20.1 28.4668 20.7 28.9546 21.3 29.54C19.6 30.9059 15.4 34.4181 14.9 34.5157C14.7 34.5157 13.8 33.9303 13.8 34.4181C13.8 34.7108 14.7 35.3938 14.8 35.5889C15.5 36.4669 16.3 37.345 17 38.2231C17.6 37.9304 16.9 37.5401 17.2 37.0523C17.5 36.7596 22.1 32.9547 23.3 31.9791Z" fill="white"/>
<path d="M18 25.2473C18.4 25.1497 18.6 25.6375 19 25.1497C18.2 24.1741 17.4 23.296 16.6 22.3204C16.2 21.9301 15.8 21.4423 15.9 22.3204C16 22.9058 9.8 27.8814 9.4 27.979C8.9 28.1741 8.6 27.5888 8.3 28.0766C9 28.9546 9.8 29.7351 10.5 30.6132C10.7 30.9059 11 31.1986 11.2 31.4912C11.5 31.7839 11.4 30.8083 11.4 30.9059C11.3 30.4181 11.9 30.0278 12.3 29.7351C13.8 28.3692 17.6 25.2473 18 25.2473Z" fill="white"/>
<path d="M9.2 24.3692C7.4 24.857 5.6 24.1741 5 22.418C4.5 20.6618 5.6 18.7106 7.1 17.735C8.5 16.7593 10.7 16.7593 11.5 18.5155C11.8 19.296 11.7 20.174 11.4 20.9545C11.2 21.4423 10.8 21.9301 11.5 22.2228C12.4 21.1496 13.2 20.0765 14.1 19.0033C13 18.4179 12.6 17.3447 11.8 16.4666C10.9 15.3935 9.7 14.4178 8.3 14.2227C5.4 13.8325 2.7 16.7593 2.5 19.296C2.4 20.7594 2.9 22.0277 3.7 23.1985C4.5 24.1741 5.6 24.7595 6.1 25.9302C6.4 26.0278 8.8 24.9546 9.4 24.6619C9.3 24.5643 9.3 24.3692 9.2 24.3692C8.5 24.5643 9.2 24.3692 9.2 24.3692Z" fill="white"/>
<path d="M48.5 59.8819C47.3 59.1014 44.5 55.2965 43.9 54.7111C43.8 54.6135 43.7 54.4184 43.6 54.3209C43.6 54.3209 43.3 54.516 43.4 54.516C43.2 54.6135 43.5 55.1014 43.3 55.394C42.5 56.5648 37.5 60.2721 37.3 60.4673C36.7 60.8575 36.1 60.2721 35.8 60.76C36.5 61.638 38.6 64.1746 38.8 64.2722C39.3 64.3697 38.9 63.4917 39 63.2966C39.1 62.9063 41.6 60.9551 42.5 60.1746C42.8 59.8819 43.2 60.5648 43.4 60.8575C43.7 61.3453 43.9 61.8331 43.7 62.4185C43.6 62.8088 43 63.2966 43.4 63.5892C44 62.9063 45.8 60.8575 46 60.6624C46.3 60.3697 45.4 60.6624 45.5 60.5648C45.1 60.76 44.8 60.76 44.4 60.5648C44.3 60.4673 43.3 59.4916 43.4 59.3941C43.8 59.0038 44.4 58.4185 44.9 58.3209C45.8 58.1258 46.5 59.7843 46.6 60.3697C46.7 60.9551 46.7 61.5404 46.5 62.1258C46.4 62.5161 46 62.8088 46.5 63.0039C47.2 62.0283 47.9 61.1502 48.6 60.1746C48.8 59.9795 48.6 59.8819 48.5 59.8819C48.4 59.7843 48.7 59.8819 48.5 59.8819Z" fill="white"/>
<path d="M38.3 55.7843C40.5 53.9306 40.8 50.8086 39.1 48.6622C37.2 46.2232 33.7 45.6378 31.3 47.589C29.1 49.4427 28.8 52.4672 30.5 54.7111C32.5 57.3453 35.7 57.638 38.3 55.7843C39.5 54.9062 38.2 55.8818 38.3 55.7843ZM37.8 51.1988C37.2 52.6623 35.6 54.2233 34.1 54.8087C32.3 55.4916 31 54.0282 31.7 52.272C32.3 50.8086 33.9 49.2476 35.4 48.6622C37.3 47.9793 38.5 49.5403 37.8 51.1988C37.5 52.0769 37.9 51.0037 37.8 51.1988Z" fill="white"/>
<path d="M31.9 41.5401C32.4 41.6377 32.8 42.1255 33.2 41.5401C32.5 40.6621 31.7 39.784 31 39.0035C30.4 39.2962 31 39.4913 30.8 39.9792C30.6 40.3694 28.2 40.7596 27.6 40.8572C27.8 40.2718 28.5 38.3206 28.8 38.1255C29.3 37.7352 29.7 38.5157 30.1 38.0279C29.2 36.9547 28.3 35.8815 27.4 34.8083C27.1 34.4181 26.8 33.8327 26.4 34.1254C26.4 34.1254 26.4 35.5888 26.3 35.784C26.2 35.9791 25.4 39.2962 24.4 40.1743C23.9 40.5645 22.2 42.028 21.7 42.2231C21.2 42.4182 20.9 41.6377 20.5 42.2231C21.3 43.1987 22.2 44.1743 23 45.15C23.1 45.2475 23.6 46.028 23.8 46.028C24.3 46.1256 23.9 45.15 23.9 44.9548C24.1 44.5646 26.4 42.3206 27.4 42.1255C28.6 41.8328 30.4 41.345 31.9 41.5401C32.2 41.6377 31.5 41.5401 31.9 41.5401Z" fill="white"/>
<path d="M69.2 51.6866C69.4 52.272 69.5 52.9549 69.4 53.6379C69.3 54.5159 68.4 56.4672 67.2 55.8818C66 55.2964 65 54.2233 64 53.3452C64.8 52.4671 65.5 51.6866 66.9 52.0769C67.3 52.1744 67.6 52.0769 67.2 51.7842C66.8 51.5891 64.1 49.8329 63.9 50.0281C63.6 50.3208 64.4 50.9061 64.1 51.4915C63.9 51.8818 63.5 52.272 63.2 52.6623C62.5 52.0769 61.3 51.3939 62.1 50.4183C62.6 49.7354 63.4 49.2476 64.2 49.15C64.8 49.0524 66 49.5403 66.2 48.9549C65.1 48.4671 64 47.9793 62.9 47.3939C63.1 48.1744 59.6 51.7842 58.8 52.7598C58.7 52.8574 58.1 53.3452 58.1 53.5403C58.1 53.9306 58.7 53.6379 58.8 53.6379C59.3 53.4428 65.6 58.6136 65.8 59.0038C65.9 59.2965 65.6 59.5892 65.8 59.6867C65.8 59.6867 66 59.8819 66.1 59.8819C66.5 59.3941 70.6 54.0281 71.5 53.833C70.7 52.6623 69.9 51.4915 69.1 50.2232C68.5 50.6134 69.1 51.2964 69.2 51.6866Z" fill="white"/>
<path d="M63 58.3209C60.9 57.0526 57.4 59.5892 56.9 59.7843C55.9 60.2721 55.1 59.2965 55.6 58.3209C56.1 57.5404 57 57.1501 57.9 57.0526C58.2 57.0526 59.3 57.2477 59.4 57.0526C59.5 56.8574 59.6 56.8574 59.4 56.7599C58.5 56.1745 57.7 55.5891 56.8 55.1013C56.6 56.1745 55.4 56.7599 54.7 57.4428C53.9 58.3209 53.2 59.2965 53.2 60.5648C53.2 61.638 53.9 62.6136 54.9 63.199C56 63.7844 57.2 63.2966 58.2 62.7112C58.8 62.3209 59.5 61.8331 60.1 61.5404C61.1 61.0526 62.4 61.4429 62.1 62.8088C61.8 63.8819 60.7 64.8576 59.7 65.0527C59.1 65.2478 58.4 65.1503 57.8 64.9551C57.4 64.8576 56.8 64.2722 56.6 64.8576C57.8 65.6381 58.9 66.5161 60.1 67.2966C60.2 66.5161 60.6 66.2234 61.2 65.7356C61.9 65.1503 62.6 64.4673 63.2 63.6868C64.4 62.0283 64.8 59.6868 63 58.3209Z" fill="white"/>
<path d="M63 58.321C64 58.8092 62.4 57.8328 63 58.321V58.321Z" fill="white"/>
<path d="M99.7 19.6862C99 20.3691 91.3 17.4423 90.7 16.9545C90.4 16.8569 90.4 15.6862 90 16.174C89.6 16.6618 89.2 17.1496 88.8 17.6374C88.4 18.1252 88 18.613 87.5 19.1008C87.2 19.3935 87 19.5887 87.5 19.7838C88.3 19.3935 92.9 26.9058 92.5 28.0766C91.8 28.4668 85.6 23.1009 85.4 22.8082C85.3 22.7106 85.7 21.8326 85.2 21.9301C85 21.9301 84.5 22.8082 84.3 23.0033C84 23.3936 83.7 23.6863 83.4 24.0765C83.7 24.5643 83.9 24.0765 84.4 24.0765C84.8 24.1741 86.2 25.3448 86.6 25.7351C85.9 25.7351 83.9 25.8326 83.7 25.8326C82.8 25.9302 83.3 25.1497 82.7 24.9546C81.9 25.8326 81.2 26.7107 80.4 27.6863C80 28.1741 79.5 28.7595 79.1 29.2473C79 29.3449 79.1 29.2473 79.2 29.3449C79.5 29.6376 79.3 29.54 79.8 29.3449C80.3 29.1498 86.4 34.1254 86.6 34.4181C87 34.9059 86.4 35.3937 87 35.5889C87.6 34.9059 88.2 34.1254 88.8 33.4425C88.9 33.3449 88.9 33.3449 88.8 33.2474C88.4 32.8571 88.3 33.4425 87.8 33.4425C87.3 33.3449 83.4 30.1254 81.9 28.9546C83.7 28.8571 89.2 28.6619 90.1 28.6619C90.4 28.6619 91.2 29.54 91.2 29.8327C91.1 30.2229 90.7 30.4181 91.3 30.6132C91.8 30.0278 92.3 29.54 92.8 28.9546L93 28.6619C93.1 28.5644 93.1 28.5644 93.2 28.3693L93.4 28.1741C93.8 27.6863 95.2 26.2229 95 26.0278C94.5 25.6375 94.3 26.5156 93.7 25.9302C93.4 25.7351 92.5 24.1741 92.3 23.7838C92 23.3936 92.9 22.9058 93.3 22.7106C94.1 22.2228 96.5 21.5399 96.8 23.0033C96.8 23.296 96.5 23.4911 96.7 23.6863C96.7 23.6863 96.9 23.8814 97 23.8814C97.2 23.6863 99.4 21.1496 100.3 19.9789C99.9 19.8813 99.8 19.7838 99.7 19.6862ZM92.3 21.8326C92.4 21.735 92.5 21.735 92.3 21.8326C92 22.0277 91.6 22.3204 91.3 22.6131C90.8 21.735 90.3 20.857 89.7 19.9789C90.9 20.4667 92.1 20.9545 93.2 21.4423C93 21.4423 92.7 21.6375 92.3 21.8326Z" fill="white"/>
<path d="M82.6 32.7596C80.2 30.8083 77 31.3937 75 33.5401C73.1 35.784 73.3 39.1011 75.6 40.9548C77.9 42.8085 81.3 42.3207 83.2 40.1743C85.1 37.9304 85 34.6132 82.6 32.7596ZM82.3 39.1987C81 40.467 78.9 39.2962 77.8 38.5157C76.7 37.7352 74.7 35.9791 75.9 34.5157C77 33.2474 79 34.3205 80.1 35.0035C81.3 35.784 83.5 37.5401 82.4 39.1011C82.5 39.0035 82.5 39.0035 82.3 39.1987Z" fill="white"/>
<path d="M82.6 32.7596C83.8 33.7361 82.3 32.5643 82.6 32.7596V32.7596Z" fill="white"/>
<path d="M82.3 39.1988C82.4 39.1011 82.4 39.1011 82.4 39.1011C82.3 39.1988 82.3 39.1988 82.3 39.1988Z" fill="white"/>
<path d="M76 41.6377C76.1 41.7353 76.3 41.8328 76 41.6377C73.1 39.4913 69.7 40.0767 67.5 42.7109C66.5 43.8817 65.5 45.0524 64.5 46.2232C64.9 46.711 65.3 46.1256 65.8 46.4183C66.2 46.711 72 51.394 72.1 51.6866C72.3 52.1745 71.8 52.1745 72.2 52.5647C72.4 52.6623 76.7 47.4915 77.1 46.5158C78 44.7597 77.4 42.8085 76 41.6377ZM74.7 48.272C74.5 48.5647 74.7 48.3695 74 48.9549C73.7 49.2476 67.6 44.3695 67.8 44.1743C68.6 43.2963 70.4 42.6133 71.4 42.906C73.6 43.2963 76.6 45.9305 74.7 48.272Z" fill="white"/>
<path d="M50.6 56.6623L50.9 56.2721L78.5 24.7594C71.6 25.6375 66.6 30.7107 59.9 29.6375C56.5 29.0522 56.4 27.1985 55.4 25.2472C54.7 23.7838 53.5 23.9789 51.9 23.3936C50.5 22.8082 49.6 21.735 46.7 22.3204C44.2 22.9057 43.9 26.7107 40.7 26.5156C39 26.418 38.9 24.0765 36.5 21.1496C30.2 13.7349 24.3 14.8081 20.3 21.6374L50.6 56.6623Z" fill="#491213"/>
<path d="M46.5 69.7357L50.6 63.3941L54.6 69.7357L50.6 76.0772L46.5 69.7357Z" fill="#23A9E1"/>
<path d="M23.3 32.0766C23.8 32.662 24.2 33.3449 24.1 34.1254C24 34.7108 23.2 35.6864 23.8 35.8815C24.5 35.0035 25.3 34.0279 26 33.1498C25.4 32.9547 20.6 27.4912 20.6 26.8083C19.5 27.3936 18.5 27.979 17.4 28.4668C17.6 29.1498 18.7 28.4668 19.3 28.4668C20.1 28.5644 20.7 29.0522 21.3 29.6376C19.6 31.0034 15.4 34.5157 14.9 34.6132C14.7 34.6132 13.8 34.0279 13.8 34.5157C13.8 34.8084 14.7 35.4913 14.8 35.6864C15.5 36.5645 16.3 37.4425 17 38.3206C17.6 38.0279 16.9 37.6377 17.2 37.1499C17.5 36.7596 22.1 32.9547 23.3 32.0766Z" fill="white"/>
<path d="M18 25.2473C18.4 25.1497 18.6 25.6375 19 25.1497C18.2 24.1741 17.4 23.296 16.6 22.3204C16.2 21.9301 15.8 21.4423 15.9 22.3204C16 22.9058 9.8 27.8814 9.4 27.979C8.9 28.1741 8.6 27.5888 8.3 28.0766C9 28.9546 9.8 29.7351 10.5 30.6132C10.7 30.9059 11 31.1986 11.2 31.4912C11.5 31.7839 11.4 30.8083 11.4 30.9059C11.3 30.4181 11.9 30.0278 12.3 29.7351C13.8 28.4668 17.6 25.2473 18 25.2473Z" fill="white"/>
<path d="M9.2 24.3692C7.4 24.857 5.5 24.1741 5 22.418C4.5 20.6618 5.6 18.7106 7.1 17.735C8.5 16.7593 10.7 16.7593 11.5 18.5155C11.8 19.296 11.7 20.174 11.4 20.9545C11.2 21.4423 10.8 21.9301 11.5 22.2228C12.4 21.1496 13.2 20.0765 14.1 19.0033C13 18.4179 12.6 17.3447 11.8 16.4666C10.9 15.3935 9.7 14.4178 8.3 14.2227C5.4 13.8325 2.7 16.7593 2.5 19.296C2.4 20.7594 2.9 22.0277 3.7 23.1985C4.5 24.1741 5.6 24.7595 6.1 25.9302C6.4 26.0278 8.8 24.9546 9.4 24.6619C9.3 24.5643 9.3 24.4668 9.2 24.3692C8.5 24.5643 9.2 24.3692 9.2 24.3692Z" fill="white"/>
<path d="M48.5 59.8819C47.3 59.1014 44.5 55.2965 43.9 54.7111C43.8 54.6135 43.7 54.4184 43.6 54.3209C43.6 54.3209 43.3 54.516 43.4 54.516C43.2 54.6135 43.5 55.1014 43.3 55.394C42.5 56.5648 37.5 60.2721 37.3 60.4673C36.7 60.8575 36.1 60.2721 35.8 60.76C36.5 61.638 38.6 64.1746 38.8 64.2722C39.3 64.3697 38.9 63.4917 39 63.2966C39.1 62.9063 41.6 60.9551 42.5 60.1746C42.8 59.8819 43.2 60.5648 43.4 60.8575C43.7 61.3453 43.9 61.8331 43.7 62.4185C43.6 62.8088 43 63.2966 43.4 63.5892C44 62.9063 45.8 60.8575 46 60.6624C46.3 60.3697 45.4 60.6624 45.5 60.5648C45.1 60.76 44.8 60.76 44.4 60.5648C44.3 60.4673 43.3 59.4916 43.4 59.3941C43.8 59.0038 44.4 58.4185 44.9 58.3209C45.8 58.1258 46.5 59.7843 46.6 60.3697C46.7 60.9551 46.7 61.5404 46.5 62.1258C46.4 62.5161 46 62.8088 46.5 63.0039C47.2 62.0283 47.9 61.1502 48.6 60.1746C48.8 59.9795 48.6 59.8819 48.5 59.8819C48.4 59.7843 48.7 59.8819 48.5 59.8819Z" fill="white"/>
<path d="M38.3 55.7843C40.5 53.9306 40.8 50.8086 39.1 48.6622C37.2 46.2232 33.7 45.6378 31.3 47.589C29.1 49.4427 28.8 52.4672 30.5 54.7111C32.5 57.3453 35.7 57.638 38.3 55.7843C39.5 54.9062 38.2 55.8818 38.3 55.7843ZM37.8 51.1988C37.2 52.6623 35.6 54.2233 34.1 54.8087C32.3 55.4916 31 54.0282 31.7 52.272C32.4 50.8086 33.9 49.2476 35.4 48.6622C37.3 47.9793 38.5 49.5403 37.8 51.1988C37.4 52.0769 37.9 51.0037 37.8 51.1988Z" fill="white"/>
<path d="M31.9 41.5401C32.4 41.6377 32.8 42.028 33.2 41.5401C32.5 40.6621 31.7 39.784 31 39.0035C30.4 39.2962 31 39.4913 30.8 39.9792C30.6 40.3694 28.2 40.7596 27.6 40.8572C27.8 40.2718 28.5 38.3206 28.8 38.1255C29.3 37.7352 29.7 38.5157 30.1 38.0279C29.2 36.9547 28.3 35.8815 27.4 34.8083C27.1 34.4181 26.8 33.8327 26.4 34.1254C26.4 34.1254 26.4 35.5888 26.3 35.784C26.2 35.9791 25.4 39.2962 24.4 40.1743C23.9 40.5645 22.2 42.028 21.7 42.2231C21.2 42.4182 20.9 41.6377 20.5 42.2231C21.3 43.1987 22.2 44.1743 23 45.15C23.1 45.2475 23.6 46.028 23.8 46.028C24.3 46.1256 23.9 45.15 23.9 44.9548C24.1 44.5646 26.4 42.3206 27.4 42.1255C28.6 41.9304 30.4 41.4426 31.9 41.5401C32.2 41.6377 31.5 41.5401 31.9 41.5401Z" fill="white"/>
<path d="M25.6 22.9057C21.6 22.7106 23.2 19.0033 26 18.2228C28.6 17.4423 34.1 19.8813 35.8 21.5399C33 22.4179 29.4 22.2228 26.4 22.4179C26.2 19.296 25.4 20.3691 25.6 22.9057Z" fill="#DC6243"/>
<path d="M26.6 27.5887C24.6 26.0278 25.2 22.418 28.4 23.5887C32.4 25.6375 27.5 26.7107 26.6 27.5887Z" fill="#DC6243"/>
<path d="M35.1 35.101C26.5 35.0035 32.3 22.1253 35.2 22.9058C38.6 23.9789 38.2 35.1986 35.1 35.101Z" fill="#DC6243"/>
<path d="M41.2 30.9059C40.4 33.3449 38.8 33.8327 39 30.8083C39.2 27.3936 41.5 28.1741 43.9 26.9058C45.9 25.8326 47 21.8326 50.5 24.1741C52.1 25.2473 53.9 24.3692 54.4 25.9302C54.4 25.8326 49.9 35.9791 52.4 35.9791C47.4 35.9791 49.6 30.2229 51.5 26.3204C49.7 27.1985 46.7 32.8571 49.1 33.7352C47.8 35.3937 43.9 37.5401 41.9 35.9791C40.4 34.9059 41.2 32.8571 41.2 30.9059Z" fill="#DC6243"/>
<path d="M45.3 40.2719C41.8 41.2475 37.2 39.1011 42.8 38.0279C46.3 37.345 50 38.7109 45.3 40.2719C45.4 40.2719 45.2 40.2719 45.3 40.2719Z" fill="#DC6243"/>
<path d="M49.7 40.1743C49 38.5157 50.3 36.6621 52.4 38.0279C54.2 39.1987 51.5 41.0523 49.7 40.1743Z" fill="#DC6243"/>
<path d="M46.7 44.6622C44.3 43.9792 36.2 44.0768 41.5 41.9304C43.2 41.345 51.7 42.1255 46.7 44.6622Z" fill="#DC6243"/>
<path d="M49.9 44.3695C49.9 43.3938 49.4 41.7353 51.3 42.5158C53.5 43.2963 49.9 45.0524 49.9 44.3695C49.9 44.3695 49.9 44.1743 49.9 44.3695Z" fill="#DC6243"/>
<path d="M57.2 47.8817C55.8 46.711 54.3 46.6134 53 47.8817C51.2 44.6621 44.7 45.7353 41.6 45.2475C43.2 49.2476 56.4 50.0281 57.2 47.8817Z" fill="#DC6243"/>
<path d="M55.3 50.3208C52.1 50.2232 48.6 49.7354 45.7 50.4183C47.6 50.9062 52.1 52.1745 47.9 53.2476C49.4 55.394 51.9 55.1989 53.5 53.3452C52.8 53.0525 52.5 52.6623 51.9 52.272C53.5 51.9793 55.1 51.1013 55.3 50.3208Z" fill="#DC6243"/>
<path d="M58.9 46.5158C53.6 43.4914 54.9 41.2475 59.3 39.1011C61.6 38.0279 66.6 34.0278 68.7 35.2962C65.4 39.1011 62.1 42.8085 58.9 46.5158Z" fill="#DC6243"/>
<path d="M55.1 39.3938C50.6 34.9059 61.8 35.2962 63.6 33.7352C64.9 34.1254 74.4 25.6375 76.7 26.2229C75 28.0766 71.5 34.1254 68.9 34.1254C66.9 34.1254 64.9 33.8327 63.4 35.1986C61.2 37.2474 57.5 38.223 55.1 39.3938Z" fill="#F49774"/>
<path d="M56.6 33.9303C54.1 35.1986 51.8 30.1254 56.1 30.6132C58.9 30.9059 61.8 30.4181 64.4 30.8083C62.4 33.0522 59.7 34.3205 56.6 33.9303Z" fill="#F4B1A4"/>
<path d="M69.2 51.7842C69.4 52.3696 69.5 53.0525 69.4 53.7355C69.3 54.6135 68.4 56.5648 67.2 55.9794C66 55.394 65 54.3208 64 53.4428C64.8 52.5647 65.5 51.7842 66.9 52.1745C67.3 52.272 67.6 52.1745 67.2 51.8818C66.8 51.6867 64.1 49.9305 63.9 50.1257C63.6 50.4183 64.4 51.0037 64.1 51.5891C63.9 51.9793 63.5 52.3696 63.2 52.7598C62.5 52.1745 61.3 51.4915 62.1 50.5159C62.6 49.833 63.4 49.3452 64.2 49.2476C64.8 49.15 66 49.6379 66.2 49.0525C65.1 48.5647 64 48.0769 62.9 47.4915C63.1 48.272 59.6 51.8818 58.8 52.8574C58.7 52.955 58.1 53.4428 58.1 53.6379C58.1 54.0281 58.7 53.7355 58.8 53.7355C59.3 53.5403 65.6 58.7111 65.8 59.1014C65.9 59.3941 65.6 59.6867 65.8 59.7843C65.8 59.7843 66 59.9794 66.1 59.9794C66.5 59.4916 70.6 54.1257 71.5 53.9306C70.7 52.7598 69.9 51.5891 69.1 50.3208C68.5 50.6135 69.1 51.2964 69.2 51.7842Z" fill="white"/>
<path d="M63 58.3209C60.9 57.0526 57.4 59.5892 56.9 59.7843C55.9 60.2721 55.1 59.2965 55.6 58.3209C56.1 57.5404 57 57.1501 57.9 57.0526C58.2 57.0526 59.2 57.2477 59.4 57.0526C59.5 56.8574 59.6 56.8574 59.4 56.7599C58.5 56.1745 57.7 55.5891 56.8 55.1013C56.6 56.1745 55.4 56.7599 54.7 57.4428C53.9 58.3209 53.2 59.2965 53.2 60.5648C53.2 61.638 53.9 62.6136 54.9 63.199C56 63.7844 57.2 63.2966 58.2 62.7112C58.8 62.3209 59.5 61.8331 60.1 61.5404C61.1 61.0526 62.4 61.4429 62.1 62.8088C61.8 63.8819 60.7 64.8576 59.7 65.0527C59.1 65.2478 58.4 65.1503 57.8 64.9551C57.4 64.8576 56.8 64.2722 56.6 64.8576C57.8 65.6381 58.9 66.5161 60.1 67.2966C60.2 66.5161 60.6 66.2234 61.2 65.7356C61.9 65.1503 62.6 64.4673 63.2 63.6868C64.4 62.0283 64.8 59.6868 63 58.3209Z" fill="white"/>
<path d="M63 58.3209C64 58.9063 62.4 57.833 63 58.3209V58.3209Z" fill="white"/>
<path d="M99.7 19.6862C99 20.3691 91.3 17.4423 90.7 16.9545C90.4 16.8569 90.4 15.6862 90 16.174C89.6 16.6618 89.2 17.1496 88.8 17.6374C88.4 18.1252 88 18.613 87.5 19.1008C87.2 19.3935 87 19.5887 87.5 19.7838C88.3 19.3935 92.9 26.9058 92.5 28.0766C91.8 28.4668 85.6 23.1009 85.4 22.8082C85.3 22.7106 85.7 21.8326 85.2 21.9301C85 21.9301 84.5 22.8082 84.3 23.0033C84 23.3936 83.7 23.6863 83.4 24.0765C83.7 24.5643 83.9 24.0765 84.4 24.0765C84.8 24.1741 86.2 25.3448 86.6 25.7351C85.9 25.7351 83.9 25.8326 83.7 25.8326C82.8 25.9302 83.3 25.1497 82.7 24.9546C81.9 25.8326 81.2 26.7107 80.4 27.6863C80 28.1741 79.5 28.7595 79.1 29.2473C79 29.3449 79.1 29.2473 79.1 29.3449C79.4 29.6376 79.2 29.54 79.7 29.3449C80.2 29.1498 86.3 34.1254 86.5 34.4181C86.9 34.8084 86.3 35.3937 86.9 35.5889C87.5 34.9059 88.1 34.1254 88.7 33.4425C88.8 33.3449 88.8 33.3449 88.7 33.2474C88.3 32.8571 88.2 33.4425 87.7 33.4425C87.2 33.3449 83.3 30.1254 81.8 28.9546C83.6 28.8571 89.1 28.6619 90 28.6619C90.3 28.6619 91.1 29.54 91.1 29.8327C91 30.2229 90.6 30.4181 91.2 30.6132C91.7 30.0278 92.2 29.54 92.7 28.9546L92.9 28.6619C93 28.5644 93 28.5644 93.1 28.3693L93.3 28.1741C93.7 27.6863 95.1 26.2229 94.9 26.1253C94.4 25.7351 94.2 26.6131 93.6 26.0278C93.3 25.8326 92.4 24.2716 92.2 23.8814C91.9 23.4911 92.8 23.0033 93.2 22.8082C94 22.3204 96.4 21.6375 96.7 23.1009C96.7 23.3936 96.4 23.5887 96.6 23.7838C96.6 23.7838 96.8 23.979 96.9 23.979C97.1 23.7838 99.3 21.2472 100.2 20.0765C99.9 19.8813 99.8 19.7838 99.7 19.6862ZM92.3 21.8326C92.4 21.8326 92.5 21.735 92.3 21.8326C92 22.0277 91.6 22.3204 91.3 22.6131C90.8 21.735 90.3 20.857 89.7 19.9789C90.9 20.4667 92.1 20.9545 93.2 21.4423C93 21.5399 92.7 21.6375 92.3 21.8326Z" fill="white"/>
<path d="M82.6 32.7596C80.2 30.8083 77 31.3937 75 33.5401C73.1 35.784 73.3 39.1011 75.6 40.9548C77.9 42.8085 81.3 42.3207 83.2 40.1743C85.1 37.9304 85 34.6132 82.6 32.7596ZM82.3 39.1987C82.3 39.1987 82.3 39.2962 82.3 39.1987C81 40.467 78.9 39.2962 77.8 38.5157C76.7 37.7352 74.7 35.9791 75.9 34.5157C77 33.2474 79 34.3205 80.1 35.0035C81.3 35.784 83.5 37.5401 82.4 39.1011C82.5 39.0035 82.5 39.0035 82.3 39.1987Z" fill="white"/>
<path d="M82.6 32.7596C83.8 33.7361 82.3 32.5643 82.6 32.7596V32.7596Z" fill="white"/>
<path d="M82.3 39.2963C82.3 39.1987 82.3 39.1987 82.3 39.2963C82.4 39.1987 82.4 39.1987 82.4 39.1987C82.3 39.1987 82.3 39.2963 82.3 39.2963Z" fill="white"/>
<path d="M76 41.6377C76.1 41.7353 76.3 41.9304 76 41.6377C73.1 39.4913 69.7 40.0767 67.5 42.7109C66.5 43.8817 65.5 45.0524 64.5 46.2232C64.9 46.711 65.3 46.1256 65.8 46.4183C66.2 46.711 72 51.394 72.1 51.6866C72.3 52.1745 71.8 52.1745 72.2 52.5647C72.4 52.6623 76.7 47.4915 77.1 46.5158C78 44.7597 77.4 42.906 76 41.6377ZM74.7 48.272C74.5 48.5647 74.7 48.3695 74 48.9549C73.7 49.2476 67.6 44.3695 67.8 44.1743C68.6 43.2963 70.4 42.6133 71.4 42.906C73.6 43.3938 76.6 46.028 74.7 48.272Z" fill="white"/>
</symbol><symbol id="logotype-tablet" viewBox="0 0 102 84">
<path d="M1 0.700195L50.6 59.1002L99.9 1.1002L1 0.700195Z" fill="#23A9E1"/>
<path d="M79.8001 17.3002C74.7001 17.3002 69.7001 17.4002 64.6001 17.4002C70.6001 10.5002 73.3001 11.2002 79.8001 17.3002Z" fill="white"/>
<path d="M38.5999 22.6997C47.4999 22.6997 56.3999 22.6997 65.2999 22.6997C63.2999 21.4997 58.5999 15.5997 55.9999 17.7997C55.7999 17.9997 48.4999 8.89973 43.6999 13.2997C39.4999 17.0997 37.5999 12.7997 32.7999 15.7997C27.4999 19.3997 35.9999 21.4997 38.5999 22.6997Z" fill="white"/>
<path d="M50.9 0H0V22.5L50.6 84L50.9 83.6L101.6 23.2V0H50.9ZM50.9 57.1L50.6 57.5L3.7 1.8H50.9H98.1L50.9 57.1Z" fill="#491213"/>
<path d="M50.6001 57.4998L50.9 57.0998L78.5 24.7998C71.6 25.6998 66.6 30.8998 59.9 29.7998C56.5 29.1998 56.4 27.2998 55.4 25.2998C54.7 23.7998 53.5 23.9998 51.9 23.3998C50.5 22.7998 49.6 21.6998 46.7001 22.2998C44.2001 22.8998 43.9001 26.7998 40.7001 26.5998C39 26.4998 38.9 24.0998 36.5 21.0998C30.2 13.4998 24.3 14.5998 20.3 21.5998L50.6001 57.4998Z" fill="#491213"/>
<path d="M46.5 70.9004L50.6 64.4004L54.6 70.9004L50.6 77.4004L46.5 70.9004Z" fill="#23A9E1"/>
<path d="M23.3 32.3004C23.8 32.9004 24.2001 33.6004 24.1001 34.4004C24.0001 35.0004 23.2 36.0004 23.8 36.2004C24.5 35.3004 25.3 34.3004 26 33.4004C25.4 33.2004 20.6 27.6004 20.6 26.9004C19.5 27.5004 18.5 28.1004 17.4 28.6004C17.6 29.3004 18.7 28.6004 19.3 28.6004C20.1 28.7004 20.7 29.2004 21.3 29.8004C19.6 31.2004 15.4 34.8004 14.9 34.9004C14.7 34.9004 13.8 34.3004 13.8 34.8004C13.8 35.1004 14.7 35.8004 14.8 36.0004C15.5 36.9004 16.3 37.8004 17 38.7004C17.6 38.4004 16.9001 38.0004 17.2001 37.5004C17.5001 37.1004 22.1 33.2004 23.3 32.3004Z" fill="white"/>
<path d="M18 25.3003C18.4 25.2003 18.6 25.7003 19 25.2003C18.2 24.2003 17.4 23.3003 16.6 22.3003C16.2 21.9003 15.8 21.4003 15.9 22.3003C16 22.9003 9.80005 28.0003 9.40005 28.1003C8.90005 28.3003 8.60005 27.7003 8.30005 28.2003C9.00005 29.1003 9.80005 29.9003 10.5 30.8003C10.7 31.1003 11.0001 31.4003 11.2001 31.7003C11.5001 32.0003 11.4 31.0003 11.4 31.1003C11.3 30.6003 11.9 30.2003 12.3 29.9003C13.8 28.6003 17.6 25.3003 18 25.3003Z" fill="white"/>
<path d="M9.19998 24.4C7.39998 24.9 5.49998 24.2 4.99998 22.4C4.49998 20.6 5.59998 18.6 7.09998 17.6C8.49998 16.6 10.7 16.6 11.5 18.4C11.8 19.2 11.7 20.1 11.4 20.9C11.2 21.4 10.8 21.9 11.5 22.2C12.4 21.1 13.2 20 14.1 18.9C13 18.3 12.6 17.2 11.8 16.3C10.9 15.2 9.69998 14.2 8.29998 14C5.39998 13.6 2.69998 16.6 2.49998 19.2C2.39998 20.7 2.89998 22 3.69998 23.2C4.49998 24.2 5.59998 24.8 6.09998 26C6.39998 26.1 8.79998 25 9.39998 24.7C9.29998 24.6 9.29998 24.5 9.19998 24.4C8.49998 24.6 9.19998 24.4 9.19998 24.4Z" fill="white"/>
<path d="M48.5 60.7996C47.3 59.9996 44.5 56.0996 43.9 55.4996C43.8 55.3996 43.7001 55.1996 43.6001 55.0996C43.6001 55.0996 43.3 55.2996 43.4 55.2996C43.2 55.3996 43.5 55.8996 43.3 56.1996C42.5 57.3996 37.5 61.1996 37.3 61.3996C36.7 61.7996 36.1 61.1996 35.8 61.6996C36.5 62.5996 38.6 65.1996 38.8 65.2996C39.3 65.3996 38.9 64.4996 39 64.2996C39.1 63.8996 41.6 61.8996 42.5 61.0996C42.8 60.7996 43.2 61.4996 43.4 61.7996C43.7 62.2996 43.9001 62.7996 43.7001 63.3996C43.6001 63.7996 43 64.2996 43.4 64.5996C44 63.8996 45.8 61.7996 46 61.5996C46.3 61.2996 45.4 61.5996 45.5 61.4996C45.1 61.6996 44.8 61.6996 44.4 61.4996C44.3 61.3996 43.3 60.3996 43.4 60.2996C43.8 59.8996 44.4 59.2996 44.9 59.1996C45.8 58.9996 46.5001 60.6996 46.6001 61.2996C46.7001 61.8996 46.7 62.4996 46.5 63.0996C46.4 63.4996 46 63.7996 46.5 63.9996C47.2 62.9996 47.9001 62.0996 48.6001 61.0996C48.8001 60.8996 48.6 60.7996 48.5 60.7996C48.4 60.6996 48.7 60.7996 48.5 60.7996Z" fill="white"/>
<path d="M38.3 56.6001C40.5 54.7001 40.8 51.5001 39.1 49.3001C37.2 46.8001 33.7 46.2001 31.3 48.2001C29.1 50.1001 28.8 53.2001 30.5 55.5001C32.5 58.2001 35.7 58.5001 38.3 56.6001C39.5 55.7001 38.2 56.7001 38.3 56.6001ZM37.8 51.9001C37.2 53.4001 35.6 55.0001 34.1 55.6001C32.3 56.3001 31 54.8001 31.7 53.0001C32.4 51.5001 33.9 49.9001 35.4 49.3001C37.3 48.6001 38.5 50.2001 37.8 51.9001C37.4 52.8001 37.9 51.7001 37.8 51.9001Z" fill="white"/>
<path d="M31.9 42.0004C32.4 42.1004 32.8 42.5004 33.2 42.0004C32.5 41.1004 31.7 40.2004 31 39.4004C30.4 39.7004 31 39.9004 30.8 40.4004C30.6 40.8004 28.2 41.2004 27.6 41.3004C27.8 40.7004 28.5 38.7004 28.8 38.5004C29.3 38.1004 29.7 38.9004 30.1 38.4004C29.2 37.3004 28.3 36.2004 27.4 35.1004C27.1 34.7004 26.8 34.1004 26.4 34.4004C26.4 34.4004 26.4 35.9004 26.3 36.1004C26.2 36.3004 25.4 39.7004 24.4 40.6004C23.9 41.0004 22.2 42.5004 21.7 42.7004C21.2 42.9004 20.9 42.1004 20.5 42.7004C21.3 43.7004 22.2 44.7004 23 45.7004C23.1 45.8004 23.6 46.6004 23.8 46.6004C24.3 46.7004 23.9 45.7004 23.9 45.5004C24.1 45.1004 26.4 42.8004 27.4 42.6004C28.6 42.4004 30.4 41.9004 31.9 42.0004C32.2 42.1004 31.5 42.0004 31.9 42.0004Z" fill="white"/>
<path d="M25.6 22.9C21.6 22.7 23.2 18.9 26 18.1C28.6 17.3 34.1 19.8 35.8 21.5C33 22.4 29.4 22.2 26.4 22.4C26.2 19.2 25.4 20.3 25.6 22.9Z" fill="#DC6243"/>
<path d="M26.6001 27.6996C24.6001 26.0996 25.2001 22.3996 28.4001 23.5996C32.4001 25.6996 27.5001 26.7996 26.6001 27.6996Z" fill="#DC6243"/>
<path d="M35.1 35.4002C26.5 35.3002 32.3 22.1002 35.2 22.9002C38.6 24.0002 38.2 35.5002 35.1 35.4002Z" fill="#DC6243"/>
<path d="M41.2001 31.1003C40.4001 33.6003 38.8001 34.1003 39.0001 31.0003C39.2001 27.5003 41.5001 28.3003 43.9001 27.0003C45.9001 25.9003 47.0001 21.8003 50.5001 24.2003C52.1001 25.3003 53.9001 24.4003 54.4001 26.0003C54.4001 25.9003 49.9001 36.3003 52.4001 36.3003C47.4001 36.3003 49.6001 30.4003 51.5001 26.4003C49.7001 27.3003 46.7001 33.1003 49.1001 34.0003C47.8001 35.7003 43.9001 37.9003 41.9001 36.3003C40.4001 35.2003 41.2001 33.1003 41.2001 31.1003Z" fill="#DC6243"/>
<path d="M45.3 40.6998C41.8 41.6998 37.2 39.4998 42.8 38.3998C46.3 37.6998 50 39.0998 45.3 40.6998C45.4 40.6998 45.2 40.6998 45.3 40.6998Z" fill="#DC6243"/>
<path d="M49.7 40.6003C49 38.9003 50.3 37.0003 52.4 38.4003C54.2 39.6003 51.5 41.5003 49.7 40.6003Z" fill="#DC6243"/>
<path d="M46.7 45.2C44.3 44.5 36.2 44.6 41.5 42.4C43.2 41.8 51.7 42.6 46.7 45.2Z" fill="#DC6243"/>
<path d="M49.9 44.8997C49.9 43.8997 49.4 42.1997 51.3 42.9997C53.5 43.7997 49.9 45.5997 49.9 44.8997C49.9 44.8997 49.9 44.6997 49.9 44.8997Z" fill="#DC6243"/>
<path d="M57.2001 48.4998C55.8001 47.2998 54.3001 47.1998 53.0001 48.4998C51.2001 45.1998 44.7001 46.2998 41.6001 45.7998C43.2001 49.8998 56.4001 50.6998 57.2001 48.4998Z" fill="#DC6243"/>
<path d="M55.2999 50.9998C52.0999 50.8998 48.6 50.3998 45.7 51.0998C47.6 51.5998 52.0999 52.8998 47.8999 53.9998C49.3999 56.1998 51.8999 55.9998 53.4999 54.0998C52.7999 53.7998 52.4999 53.3998 51.8999 52.9998C53.4999 52.6998 55.0999 51.7998 55.2999 50.9998Z" fill="#DC6243"/>
<path d="M58.9 47.0996C53.6 43.9996 54.9 41.6996 59.3 39.4996C61.6 38.3996 66.6 34.2996 68.7 35.5996C65.4 39.4996 62.1 43.2996 58.9 47.0996Z" fill="#DC6243"/>
<path d="M55.0999 39.8002C50.5999 35.2002 61.7999 35.6002 63.5999 34.0002C64.8999 34.4002 74.3999 25.7002 76.6999 26.3002C74.9999 28.2002 71.4999 34.4002 68.8999 34.4002C66.8999 34.4002 64.8999 34.1002 63.3999 35.5002C61.1999 37.6002 57.4999 38.6002 55.0999 39.8002Z" fill="#F49774"/>
<path d="M56.6 34.1996C54.1 35.4996 51.8 30.2996 56.1 30.7996C58.9 31.0996 61.8 30.5996 64.4 30.9996C62.4 33.2996 59.7 34.5996 56.6 34.1996Z" fill="#F4B1A4"/>
<path d="M69.2001 52.4996C69.4001 53.0996 69.5001 53.7996 69.4001 54.4996C69.3001 55.3996 68.4001 57.3996 67.2001 56.7996C66.0001 56.1996 65.0001 55.0996 64.0001 54.1996C64.8001 53.2996 65.5001 52.4996 66.9001 52.8996C67.3001 52.9996 67.6001 52.8996 67.2001 52.5996C66.8001 52.3996 64.1001 50.5996 63.9001 50.7996C63.6001 51.0996 64.4001 51.6996 64.1001 52.2996C63.9001 52.6996 63.5001 53.0996 63.2001 53.4996C62.5001 52.8996 61.3001 52.1996 62.1001 51.1996C62.6001 50.4996 63.4001 49.9996 64.2001 49.8996C64.8001 49.7996 66.0001 50.2996 66.2001 49.6996C65.1001 49.1996 64.0001 48.6996 62.9001 48.0996C63.1001 48.8996 59.6001 52.5996 58.8001 53.5996C58.7001 53.6996 58.1001 54.1996 58.1001 54.3996C58.1001 54.7996 58.7001 54.4996 58.8001 54.4996C59.3001 54.2996 65.6001 59.5996 65.8001 59.9996C65.9001 60.2996 65.6001 60.5996 65.8001 60.6996C65.8001 60.6996 66.0001 60.8996 66.1001 60.8996C66.5001 60.3996 70.6001 54.8996 71.5001 54.6996C70.7001 53.4996 69.9001 52.2996 69.1001 50.9996C68.5001 51.2996 69.1001 51.9996 69.2001 52.4996Z" fill="white"/>
<path d="M62.9999 59.2004C60.8999 57.9004 57.3999 60.5004 56.8999 60.7004C55.8999 61.2004 55.1 60.2004 55.6 59.2004C56.1 58.4004 56.9999 58.0004 57.8999 57.9004C58.1999 57.9004 59.1999 58.1004 59.3999 57.9004C59.4999 57.7004 59.5999 57.7004 59.3999 57.6004C58.4999 57.0004 57.6999 56.4004 56.7999 55.9004C56.5999 57.0004 55.4 57.6004 54.7 58.3004C53.9 59.2004 53.2 60.2004 53.2 61.5004C53.2 62.6004 53.8999 63.6004 54.8999 64.2004C55.9999 64.8004 57.2 64.3004 58.2 63.7004C58.8 63.3004 59.5 62.8004 60.1 62.5004C61.1 62.0004 62.4 62.4004 62.1 63.8004C61.8 64.9004 60.7 65.9004 59.7 66.1004C59.1 66.3004 58.3999 66.2004 57.7999 66.0004C57.3999 65.9004 56.8 65.3004 56.6 65.9004C57.8 66.7004 58.9 67.6004 60.1 68.4004C60.2 67.6004 60.6 67.3004 61.2 66.8004C61.9 66.2004 62.6 65.5004 63.2 64.7004C64.4 63.0004 64.7999 60.6004 62.9999 59.2004Z" fill="white"/>
<path d="M63 59.1999C64 59.7999 62.4 58.6999 63 59.1999V59.1999Z" fill="white"/>
<path d="M99.7001 19.6003C99.0001 20.3003 91.3001 17.3003 90.7001 16.8003C90.4001 16.7003 90.4001 15.5003 90.0001 16.0003C89.6001 16.5003 89.2001 17.0003 88.8001 17.5003C88.4001 18.0003 88.0001 18.5003 87.5001 19.0003C87.2001 19.3003 87.0001 19.5003 87.5001 19.7003C88.3001 19.3003 92.9001 27.0003 92.5001 28.2003C91.8001 28.6003 85.6001 23.1003 85.4001 22.8003C85.3001 22.7003 85.7001 21.8003 85.2001 21.9003C85.0001 21.9003 84.5001 22.8003 84.3001 23.0003C84.0001 23.4003 83.7001 23.7003 83.4001 24.1003C83.7001 24.6003 83.9001 24.1003 84.4001 24.1003C84.8001 24.2003 86.2001 25.4003 86.6001 25.8003C85.9001 25.8003 83.9001 25.9003 83.7001 25.9003C82.8001 26.0003 83.3001 25.2003 82.7001 25.0003C81.9001 25.9003 81.2001 26.8003 80.4001 27.8003C80.0001 28.3003 79.5001 28.9003 79.1001 29.4003C79.0001 29.5003 79.1001 29.4003 79.1001 29.5003C79.4001 29.8003 79.2001 29.7003 79.7001 29.5003C80.2001 29.3003 86.3001 34.4003 86.5001 34.7003C86.9001 35.1003 86.3001 35.7003 86.9001 35.9003C87.5001 35.2003 88.1001 34.4003 88.7001 33.7003C88.8001 33.6003 88.8001 33.6003 88.7001 33.5003C88.3001 33.1003 88.2001 33.7003 87.7001 33.7003C87.2001 33.6003 83.3001 30.3003 81.8001 29.1003C83.6001 29.0003 89.1001 28.8003 90.0001 28.8003C90.3001 28.8003 91.1001 29.7003 91.1001 30.0003C91.0001 30.4003 90.6001 30.6003 91.2001 30.8003C91.7001 30.2003 92.2001 29.7003 92.7001 29.1003L92.9001 28.8003C93.0001 28.7003 93.0001 28.7003 93.1001 28.5003L93.3001 28.3003C93.7001 27.8003 95.1001 26.3003 94.9001 26.2003C94.4001 25.8003 94.2001 26.7003 93.6001 26.1003C93.3001 25.9003 92.4001 24.3003 92.2001 23.9003C91.9001 23.5003 92.8001 23.0003 93.2001 22.8003C94.0001 22.3003 96.4001 21.6003 96.7001 23.1003C96.7001 23.4003 96.4001 23.6003 96.6001 23.8003C96.6001 23.8003 96.8001 24.0003 96.9001 24.0003C97.1001 23.8003 99.3001 21.2003 100.2 20.0003C99.9001 19.8003 99.8001 19.7003 99.7001 19.6003ZM92.3001 21.8003C92.4001 21.8003 92.5001 21.7003 92.3001 21.8003C92.0001 22.0003 91.6001 22.3003 91.3001 22.6003C90.8001 21.7003 90.3001 20.8003 89.7001 19.9003C90.9001 20.4003 92.1001 20.9003 93.2001 21.4003C93.0001 21.5003 92.7001 21.6003 92.3001 21.8003Z" fill="white"/>
<path d="M82.6 33.0004C80.2 31.0004 77 31.6004 75 33.8004C73.1 36.1004 73.3 39.5004 75.6 41.4004C77.9 43.3004 81.3 42.8004 83.2 40.6004C85.1 38.3004 85 34.9004 82.6 33.0004ZM82.3 39.6004C82.3 39.6004 82.3 39.7004 82.3 39.6004C81 40.9004 78.9 39.7004 77.8 38.9004C76.7 38.1004 74.7 36.3004 75.9 34.8004C77 33.5004 79 34.6004 80.1 35.3004C81.3 36.1004 83.5 37.9004 82.4 39.5004C82.5 39.4004 82.5 39.4004 82.3 39.6004Z" fill="white"/>
<path d="M82.6 32.9995C83.8 33.9995 82.3 32.7995 82.6 32.9995V32.9995Z" fill="white"/>
<path d="M82.3 39.6996C82.3 39.5996 82.3 39.5996 82.3 39.6996C82.4 39.5996 82.4 39.5996 82.4 39.5996C82.3 39.5996 82.3 39.6996 82.3 39.6996Z" fill="white"/>
<path d="M76 42.1002C76.1 42.2002 76.3 42.4002 76 42.1002C73.1 39.9002 69.7 40.5002 67.5 43.2002C66.5 44.4002 65.5 45.6002 64.5 46.8002C64.9 47.3002 65.3 46.7002 65.8 47.0002C66.2 47.3002 72 52.1002 72.1 52.4002C72.3 52.9002 71.8 52.9002 72.2 53.3002C72.4 53.4002 76.7 48.1002 77.1 47.1002C78 45.3002 77.4 43.4002 76 42.1002ZM74.7 48.9002C74.5 49.2002 74.7 49.0002 74 49.6002C73.7 49.9002 67.6 44.9002 67.8 44.7002C68.6 43.8002 70.4 43.1002 71.4 43.4002C73.6 43.9002 76.6 46.6002 74.7 48.9002Z" fill="white"/>
</symbol><symbol id="text-index" viewBox="0 0 282 209">
<path d="M101.385 41.766L101.262 41.8853C100.403 42.7802 99.4211 43.1978 98.5006 43.1978L100.219 40.2745C101.324 38.4251 100.28 36.6354 98.5619 36.6354C97.1504 36.6354 96.0457 37.1723 95.0024 38.9621L94.0819 40.5132L93.3454 41.766L93.2227 41.8853C91.8725 43.3768 90.5837 44.57 89.7859 44.57C89.3563 44.57 89.1722 44.2717 89.6018 43.6154L93.5295 36.9337H95.0024L95.5548 36.0984H94.0205L95.7389 33.1752H93.8977L92.1793 36.0984H90.5223L89.97 36.9337H91.627L87.9447 43.1382C87.1469 44.4506 87.6993 45.7035 89.1722 45.7035C90.2155 45.7035 91.4429 44.9279 92.5476 43.8541C92.5476 46.1211 95.8002 46.5983 97.7641 44.1523H98.1937C99.2984 44.1523 101.017 43.4961 101.937 42.4222C101.937 42.124 101.63 41.8853 101.385 41.766ZM97.4573 41.8853H97.3959C96.7822 41.8853 96.2912 42.3626 96.2912 42.9592C96.2912 43.1978 96.3526 43.3768 96.4753 43.5558V43.6154C95.6161 45.0472 93.5295 44.8086 94.5728 42.8995L95.9844 40.5728L96.8435 39.141C98.1323 36.9933 99.9121 37.8285 98.8074 39.678L97.4573 41.8853Z" fill="#766458"/>
<path d="M126.854 41.7658L126.731 41.8851C125.381 43.3765 123.724 44.5697 122.435 44.5697C121.331 44.5697 120.655 43.8538 121.453 42.422L121.637 42.1237C122.803 42.601 125.074 42.3623 126.424 40.0357L126.67 39.6181C127.652 37.9476 126.731 36.7544 125.197 36.7544C123.724 36.7544 122.558 37.53 121.76 38.8425L119.98 41.8254L119.858 41.9447C118.508 43.4362 117.219 44.6294 116.421 44.6294C115.991 44.6294 115.807 44.3311 116.237 43.6748L118.876 39.1408C119.674 37.7686 118.937 36.8141 117.894 36.8141C117.096 36.8141 116.237 37.2317 115.316 38.1862L118.262 33.2346H116.421L111.327 41.7658L111.204 41.8851C109.854 43.3765 108.565 44.5697 107.768 44.5697C107.338 44.5697 107.154 44.2714 107.583 43.6152L111.511 36.9334H112.984L113.536 36.0982H112.002L113.721 33.1749H111.879L110.161 36.0982H108.504L107.952 36.9334H109.609L105.926 43.1379C105.129 44.4504 105.681 45.7032 107.154 45.7032C107.89 45.7032 108.688 45.3453 109.486 44.7487L108.995 45.5242H110.836L113.598 40.8112C116.421 37.351 117.648 37.8283 116.912 39.1408L114.518 43.1976C113.721 44.5101 114.273 45.7629 115.746 45.7629C116.85 45.7629 118.078 44.9277 119.183 43.8538C119.244 44.9873 120.226 45.7629 121.699 45.7629C123.785 45.7629 125.872 44.2118 127.345 42.4817C127.406 42.1237 127.099 41.8851 126.854 41.7658ZM123.356 39.2601C124.399 37.4703 126.302 37.7686 125.197 39.6181L124.951 40.0357C124.092 41.4675 122.865 41.4675 122.19 41.2288L123.356 39.2601Z" fill="#766458"/>
<path d="M193.81 41.766L193.687 41.8853C193.012 42.6608 192.214 43.3171 191.478 43.854C192.091 42.1239 191.907 39.5586 193.073 37.2319L191.723 36.516C190.987 37.5302 189.33 39.8569 187.611 41.766L187.488 41.8853C186.138 43.3768 184.849 44.5699 184.052 44.5699C183.622 44.5699 183.438 44.2716 183.868 43.6154L187.795 36.9336H185.954L182.701 42.4819C181.29 43.7347 180.247 44.3909 179.878 44.2716C179.449 44.0927 179.878 43.4364 180.124 43.0188L183.683 36.9336H181.842L178.958 41.766L178.835 41.8853C177.976 42.7802 176.994 43.1978 176.073 43.1978L177.792 40.2745C178.896 38.4251 177.853 36.6353 176.135 36.6353C174.723 36.6353 173.619 37.1723 172.575 38.962L171.655 40.5131L170.918 41.766L170.796 41.8853C169.445 43.3768 167.788 44.5699 166.5 44.5699C165.395 44.5699 164.72 43.854 165.518 42.4222L165.702 42.1239C166.868 42.6012 169.138 42.3626 170.489 40.0359L170.734 39.6183C171.716 37.9478 170.796 36.7547 169.261 36.7547C167.788 36.7547 166.622 37.5302 165.824 38.8427L164.045 41.8256L163.922 41.945C162.388 43.675 161.099 44.7489 159.626 45.3455L163.738 38.4848H162.633C162.633 37.7689 161.835 36.7547 160.731 36.7547C159.749 36.7547 158.337 37.5302 157.601 38.8427L155.821 41.8256L155.698 41.945C154.348 43.4364 153.059 44.6296 152.261 44.6296C151.832 44.6296 151.648 44.3313 152.077 43.675L153.918 40.5728C154.532 39.4989 154.225 38.8427 153.673 38.1268L152.63 36.9336C152.384 36.6353 152.384 36.2177 152.752 35.9194L151.77 34.9052C150.727 35.8001 150.666 36.8143 151.28 37.6495L151.464 37.8285C150.666 38.962 149.561 40.4535 148.334 41.8256L148.211 41.945C147.352 42.8398 146.37 43.2574 145.449 43.2574L147.168 40.3342C148.272 38.4848 147.229 36.695 145.511 36.695C144.099 36.695 142.994 37.2319 141.951 39.0217L141.031 40.5728L140.294 41.8256L140.171 41.945C138.637 43.675 137.348 44.7489 135.875 45.3455L139.987 38.4848H138.883C138.883 37.7689 138.085 36.7547 136.98 36.7547C135.998 36.7547 134.587 37.5302 133.85 38.8427L131.273 43.1978C130.475 44.5103 131.027 45.7631 132.5 45.7631C132.991 45.7631 133.605 45.5245 134.28 45.1665L133.789 46.0017C131.334 46.7176 129.738 47.7318 129.738 49.0443C129.738 50.7744 132.439 51.1324 133.789 48.925L135.2 46.5983C136.673 46.1807 138.085 45.2858 139.619 43.9137C139.619 46.1807 142.872 46.658 144.836 44.212H145.265C146.37 44.212 148.088 43.5557 149.009 42.4819C149.868 41.4677 150.604 40.5728 152.077 38.6637L152.323 38.962C152.568 39.2603 152.63 39.6183 152.446 39.9762L150.482 43.2574C149.684 44.5699 150.236 45.8228 151.709 45.8228C152.63 45.8228 153.673 45.2262 154.655 44.3909C154.655 45.2262 155.207 45.8228 156.251 45.8228C156.742 45.8228 157.355 45.5841 158.03 45.2262L157.601 45.9421C155.146 46.658 153.55 47.6722 153.55 48.9847C153.55 50.7148 156.251 51.0727 157.601 48.8653L159.012 46.5387C160.485 46.0614 161.958 45.2262 163.492 43.7944C163.554 44.9279 164.474 45.7034 166.009 45.7034C167.481 45.7034 169.016 44.8682 170.243 43.7944C170.182 46.121 173.496 46.5983 175.46 44.1523H175.889C176.442 44.1523 177.239 43.9733 177.915 43.6154C177.424 44.8682 177.853 45.7034 178.896 45.7034C179.878 45.7034 181.044 44.8086 181.904 43.9733C181.72 44.9279 182.333 45.7034 183.499 45.7034C185.034 45.7034 186.752 44.1523 188.286 42.4222C189.33 41.229 190.25 39.9762 190.925 39.141C190.189 40.9904 190.618 44.3313 188.839 44.3313C188.225 44.3313 187.979 43.675 187.979 43.675L186.813 44.2716C186.813 44.2716 187.12 45.7034 188.839 45.7034C189.023 45.7034 189.145 45.7034 189.33 45.6438H189.391C191.293 45.4051 193.135 43.9733 194.485 42.4222C194.423 42.1239 194.117 41.8256 193.81 41.766ZM167.481 39.2603C168.525 37.4706 170.427 37.7689 169.323 39.6183L169.077 40.0359C168.218 41.4677 166.991 41.4677 166.315 41.229L167.481 39.2603ZM132.377 48.567C132.009 49.2233 131.395 49.1636 131.395 48.6267C131.395 48.1494 131.825 47.6125 133.236 47.0756L132.377 48.567ZM133.236 44.5699C132.807 44.5699 132.623 44.2716 133.052 43.6154L135.63 39.2603C136.612 37.5899 138.576 38.0075 137.655 39.6183L136.244 42.0046C135.139 43.7347 133.973 44.5699 133.236 44.5699ZM144.529 41.8853H144.467C143.854 41.8853 143.363 42.3626 143.363 42.9591C143.363 43.1978 143.424 43.3768 143.547 43.5557V43.6154C142.688 45.0472 140.601 44.8086 141.644 42.8995L143.056 40.5728L143.915 39.141C145.204 36.9933 146.984 37.8285 145.879 39.6779L144.529 41.8853ZM156.066 48.567C155.698 49.2233 155.085 49.1636 155.085 48.6267C155.085 48.1494 155.514 47.6125 156.926 47.0756L156.066 48.567ZM156.926 44.5699C156.496 44.5699 156.312 44.2716 156.742 43.6154L159.319 39.2603C160.301 37.5899 162.265 38.0075 161.344 39.6183L159.933 42.0046C158.828 43.7347 157.662 44.5699 156.926 44.5699ZM175.03 41.8853H174.969C174.355 41.8853 173.864 42.3626 173.864 42.9591C173.864 43.1978 173.925 43.3768 174.048 43.5557V43.6154C173.189 45.0472 171.102 44.8086 172.146 42.8995L173.557 40.5728L174.416 39.141C175.705 36.9933 177.485 37.8285 176.38 39.6779L175.03 41.8853Z" fill="#766458"/>
<path d="M79.8437 39.8562H62.1074V41.0493H79.8437V39.8562Z" fill="#766458"/>
<path d="M219.156 39.8562H201.42V41.0493H219.156V39.8562Z" fill="#766458"/>
<path d="M100.035 0.00497437H104.76L104.024 26.7917H95.1252L93.8978 15.7548L92.6704 26.7917H83.7102L83.0351 0.00497437H87.6993L88.0675 22.198H88.5585L91.5657 0.00497437H96.2299L99.2371 22.198H99.728L100.035 0.00497437Z" fill="#81B3D3"/>
<path d="M119.551 22.198V26.8513H106.724V0.00497437H119.551V4.59869H111.388V11.0418H117.894V15.6355H111.388V22.1383H119.551V22.198Z" fill="#81B3D3"/>
<path d="M132.684 22.198V26.8513H121.453V0.00497437H126.118V22.198H132.684Z" fill="#81B3D3"/>
<path d="M142.626 16.948L147.352 15.8742V23.9877C147.352 25.5389 146.002 26.7917 144.467 26.7917H137.41C135.814 26.7917 134.525 25.4792 134.525 23.9877V2.80893C134.525 1.2578 135.814 0.00497437 137.41 0.00497437H144.467C146.002 0.00497437 147.352 1.2578 147.352 2.80893V8.23786L142.626 9.31172V4.53903H139.251V22.1383H142.626V16.948Z" fill="#81B3D3"/>
<path d="M160.117 0.00497437C161.651 0.00497437 163.001 1.2578 163.001 2.80893V23.9281C163.001 25.4792 161.651 26.732 160.117 26.732H153.059C151.464 26.732 150.175 25.4195 150.175 23.9281V2.80893C150.175 1.2578 151.464 0.00497437 153.059 0.00497437H160.117ZM158.276 4.59869H154.901V22.198H158.276V4.59869Z" fill="#81B3D3"/>
<path d="M178.344 0.00497437H183.009V26.7917H178.344V13.6071L176.442 20.4082H171.839L169.998 13.6071V26.7917H165.334V0.00497437H169.998L174.171 12.9509L178.344 0.00497437Z" fill="#81B3D3"/>
<path d="M198.167 22.198V26.8513H185.341V0.00497437H198.167V4.59869H190.005V11.0418H196.51V15.6355H190.005V22.1383H198.167V22.198Z" fill="#81B3D3"/>
<path d="M27.1874 94.028C24.978 92.2382 22.2163 91.045 19.2705 91.045C17.0612 91.045 14.1767 92.2979 14.1767 94.8035C14.1767 97.4285 17.4294 98.4427 19.4546 99.0393L22.5232 99.9342C28.9058 101.784 33.8768 104.886 33.8768 112.105C33.8768 116.519 32.7721 121.113 29.1513 124.096C25.5304 127.079 20.7434 128.272 16.1406 128.272C10.3717 128.272 4.6642 126.363 0 123.201L4.97106 113.954C7.97824 116.519 11.4764 118.548 15.5882 118.548C18.4113 118.548 21.3571 117.176 21.3571 114.073C21.3571 110.792 16.6929 109.718 14.1153 109.002C6.62807 106.855 1.71839 105.005 1.71839 96.3547C1.71839 87.2865 8.34646 81.3803 17.5521 81.3803C22.155 81.3803 27.8625 82.8122 31.913 85.0792L27.1874 94.028Z" fill="white"/>
<path d="M56.2158 92.3577V99.815H69.6561V109.659H56.2158V117.355H70.4539V127.198H44.3098V82.5737H70.4539V92.4173L56.2158 92.3577Z" fill="white"/>
<path d="M79.2914 82.5737H96.2298C108.995 82.5737 119.551 92.3577 119.551 104.886C119.551 117.414 108.934 127.198 96.2298 127.198H79.2914V82.5737ZM91.2587 117.355H93.9591C101.078 117.355 107.154 113.536 107.154 104.886C107.154 96.8917 101.753 92.4173 94.0818 92.4173H91.2587V117.355Z" fill="white"/>
<path d="M175.951 104.051C175.951 118.488 165.272 128.69 150.543 128.69C135.814 128.69 125.136 118.488 125.136 104.051C125.136 90.5677 137.348 81.082 150.543 81.082C163.738 81.082 175.951 90.5677 175.951 104.051ZM137.533 104.11C137.533 111.806 143.363 117.414 150.482 117.414C157.601 117.414 163.431 111.806 163.431 104.11C163.431 97.9654 157.601 92.2978 150.482 92.2978C143.424 92.2978 137.533 97.9654 137.533 104.11Z" fill="white"/>
<path d="M182.272 82.5737H194.239L216.087 109.897H216.21V82.5737H228.178V127.198H216.21L194.362 99.815H194.239V127.198H182.272V82.5737Z" fill="white"/>
<path d="M249.842 119.443L246.65 127.198H234.008L251.683 82.5737H264.693L282 127.198H269.296L266.289 119.443H249.842ZM258.188 96.3548H258.065L253.156 110.554H263.098L258.188 96.3548Z" fill="white"/>
<path d="M66.2196 171.643C70.9451 170.092 71.252 164.364 66.6492 164.364C65.3604 164.364 63.8261 165.259 62.7828 166.989L56.5229 177.549C56.2161 178.026 55.9706 178.444 55.6024 178.861C54.0067 176.714 54.4363 173.492 56.707 172.06L55.7865 170.927C50.8768 173.969 52.3497 182.68 60.5121 182.68C67.447 182.68 70.6996 174.566 66.2196 171.643ZM60.4507 180.95C59.0391 180.95 57.9958 180.651 57.0753 180.174C57.5049 179.697 57.8731 179.16 58.2413 178.563L62.1691 171.941L62.7828 172.001C68.2448 173.134 66.0968 180.95 60.4507 180.95ZM62.9669 170.629L64.8694 167.467C66.5878 164.603 68.7358 166.274 67.5697 168.421C66.6492 170.092 65.3604 170.569 62.9669 170.629Z" fill="white"/>
<path d="M85.9196 178.981C85.5514 180.294 86.2878 181.427 87.8221 181.427C88.7427 181.427 89.9087 180.831 91.0748 179.936C91.1975 180.831 91.9339 181.427 93.1 181.427C94.3274 181.427 95.6776 180.592 97.0277 179.399C96.7823 180.592 97.3346 181.427 98.5007 181.427C99.7894 181.427 101.201 180.294 102.306 179.28C102.06 180.473 102.797 181.427 104.27 181.427C106.172 181.427 108.381 179.399 110.345 177.251C110.345 177.192 110.284 177.192 110.284 177.132C111.573 175.7 112.677 174.149 113.537 173.075C112.616 175.402 113.107 179.638 110.898 179.638C110.1 179.638 109.793 178.802 109.793 178.802L108.32 179.518C108.32 179.518 108.75 181.368 110.898 181.368C111.143 181.368 111.327 181.368 111.573 181.308H111.634C113.352 181.069 115.009 180.055 116.482 178.802C116.544 180.294 117.71 181.368 119.612 181.368C122.251 181.368 124.89 179.339 126.793 177.192C126.609 176.893 126.24 176.535 125.934 176.416L125.749 176.595C124.092 178.504 121.944 179.996 120.287 179.996C118.876 179.996 118.017 179.101 119.06 177.311L119.305 176.893C120.778 177.49 123.601 177.192 125.381 174.268L125.688 173.731C126.915 171.643 125.749 170.092 123.847 170.092C121.944 170.092 120.471 171.047 119.49 172.717L117.219 176.476H117.157L116.973 176.655C116.114 177.609 115.071 178.504 114.15 179.101C114.887 176.953 114.703 173.612 116.176 170.748L114.457 169.854C113.475 171.166 111.389 174.089 109.302 176.476L109.363 176.535L109.302 176.655C107.645 178.564 105.988 180.055 104.945 180.055C104.454 180.055 104.147 179.697 104.699 178.802L109.67 170.331H107.338L103.226 177.371C101.446 178.922 100.096 179.817 99.6667 179.638C99.1144 179.399 99.6667 178.564 99.9736 178.086L104.515 170.39H102.183L98.5007 176.595C98.4393 176.535 98.3779 176.535 98.3165 176.476L98.1324 176.655C96.4754 178.564 94.8184 180.055 93.7751 180.055C93.2841 180.055 92.9773 179.697 93.5296 178.802L97.2732 172.419H95.9231C95.9844 171.464 95.0025 170.152 93.4682 170.152C92.2408 170.152 90.461 171.106 89.4791 172.777L87.147 176.714C87.0243 176.595 86.9015 176.535 86.7788 176.476L86.5947 176.655C84.9377 178.564 82.7897 180.055 81.1326 180.055C79.7211 180.055 78.8619 179.16 79.9052 177.371L82.2987 173.314C83.6489 171.047 86.0423 171.464 84.6308 173.791L84.3239 174.328H86.2264L86.5333 173.791C87.7607 171.703 86.5947 170.152 84.6922 170.152C82.7897 170.152 81.3168 171.106 80.3348 172.777L78.0027 176.655C77.9414 176.595 77.88 176.595 77.8186 176.535L77.6345 176.714C75.9775 178.623 73.8295 180.115 72.1725 180.115C70.7609 180.115 69.9017 179.22 70.9451 177.43L71.1905 177.013C72.6634 177.609 75.4865 177.311 77.2663 174.388L77.5731 173.851C78.8005 171.763 77.6345 170.212 75.732 170.212C73.8295 170.212 72.3566 171.166 71.3746 172.837L68.9198 176.893C67.4469 179.28 68.7357 181.547 71.4974 181.547C73.5226 181.547 75.6092 180.353 77.2663 178.802C77.2049 180.353 78.4323 181.547 80.3962 181.547C82.3601 181.427 84.2626 180.353 85.9196 178.981ZM121.515 173.254C122.865 170.987 125.258 171.405 123.847 173.731L123.54 174.268C122.435 176.118 120.901 176.058 120.042 175.76L121.515 173.254ZM88.2517 178.802L91.5044 173.314C92.7318 171.226 95.248 171.763 94.0819 173.791L92.2408 176.893C90.8293 179.041 89.4177 180.055 88.4972 180.055C88.0062 179.996 87.6993 179.697 88.2517 178.802ZM73.3999 173.254C74.7501 170.987 77.1435 171.405 75.732 173.731L75.4251 174.268C74.3205 176.118 72.7862 176.058 71.927 175.76L73.3999 173.254Z" fill="white"/>
<path d="M152.323 181.427C154.962 181.427 157.601 179.399 159.503 177.251C159.319 176.953 158.951 176.595 158.644 176.475L158.46 176.654C156.803 178.563 154.655 180.055 152.998 180.055C151.587 180.055 150.727 179.16 151.771 177.37L152.016 176.953C153.489 177.549 156.312 177.251 158.092 174.328L158.399 173.791C159.626 171.703 158.46 170.152 156.558 170.152C154.655 170.152 153.182 171.106 152.2 172.777L149.93 176.535C149.93 176.535 149.868 176.535 149.868 176.475L149.684 176.654C148.027 178.563 146.37 180.055 145.327 180.055C144.836 180.055 144.529 179.697 145.081 178.802L148.457 173.075C149.439 171.345 148.518 170.092 147.229 170.092C146.247 170.092 145.143 170.629 143.977 171.822L147.72 165.558H145.327L138.76 176.595C138.699 176.535 138.576 176.475 138.515 176.416L138.33 176.595C136.673 178.504 135.016 179.995 133.973 179.995C133.482 179.995 133.175 179.637 133.728 178.742L138.699 170.271H140.601L141.276 169.197H139.374L141.583 165.498H139.251L137.042 169.197H134.955L134.28 170.271H136.428L131.764 178.146C130.782 179.816 131.457 181.367 133.359 181.367C134.525 181.367 135.753 180.651 137.042 179.578L136.121 181.129H138.453L142.013 175.163C145.572 170.808 147.168 171.345 146.186 173.015L143.179 178.146C142.197 179.816 142.872 181.367 144.774 181.367C146.186 181.367 147.782 180.293 149.254 178.862C149.254 180.353 150.421 181.427 152.323 181.427ZM154.226 173.254C155.576 170.987 157.969 171.404 156.558 173.731L156.251 174.268C155.146 176.117 153.612 176.058 152.753 175.759L154.226 173.254Z" fill="white"/>
<path d="M222.9 176.475L222.716 176.654C221.059 178.563 219.402 180.054 218.358 180.054C217.867 180.054 217.561 179.696 218.113 178.802L225.968 165.557H223.636L220.199 171.285C219.77 170.628 219.033 170.091 218.051 170.091C216.824 170.091 215.044 171.046 214.062 172.716L211.792 176.534C211.73 176.534 211.669 176.475 211.669 176.475L211.485 176.654C209.828 178.563 208.171 180.054 207.127 180.054C206.636 180.054 206.33 179.696 206.882 178.802L210.257 173.074C211.239 171.344 210.319 170.091 209.03 170.091C208.048 170.091 206.943 170.628 205.777 171.762L206.636 170.27H204.304L200.561 176.534C200.499 176.475 200.438 176.415 200.315 176.415L200.131 176.594C198.474 178.503 196.817 179.995 195.774 179.995C195.283 179.995 194.976 179.637 195.528 178.742L199.272 172.358H198.106C198.167 171.404 197.185 170.091 195.651 170.091C194.424 170.091 192.644 171.046 191.662 172.716L189.391 176.475L189.268 176.594C187.611 178.503 185.954 179.995 184.911 179.995C184.42 179.995 184.113 179.637 184.666 178.742L186.998 174.804C187.796 173.432 187.427 172.657 186.691 171.762L185.402 170.211C185.095 169.793 185.095 169.316 185.525 168.898L184.297 167.586C182.947 168.719 182.886 170.032 183.684 171.046L183.868 171.285C182.824 172.716 181.474 174.625 179.94 176.356C180.001 176.415 180.063 176.475 180.124 176.534C178.222 178.682 176.565 180.054 174.724 180.83L177.669 175.938H175.399L175.153 176.356C173.926 178.444 172.514 179.995 170.673 179.995C169.077 179.995 168.771 178.444 170.182 176.117L170.857 174.983C171.287 175.043 171.716 175.103 172.207 175.103C180.492 175.103 184.482 164.304 177.178 164.304C175.89 164.304 174.355 165.199 173.312 166.929L169.691 173.015C168.341 172.299 167.604 171.046 167.604 169.793C167.604 168.719 168.095 167.705 169.077 166.929L168.341 165.617C166.684 166.75 165.947 168.302 165.947 169.853C165.947 171.642 166.991 173.373 168.893 174.327L168.218 175.52C166.561 178.265 166.868 181.307 170.182 181.307C171.164 181.307 172.023 181.009 172.698 180.591L172.085 181.605C168.955 182.56 166.991 183.753 166.991 185.483C166.991 187.631 170.428 188.108 172.085 185.304L173.864 182.321C176.258 181.605 178.651 179.995 181.229 177.071C181.167 177.012 181.167 176.952 181.106 176.833C182.149 175.64 183.009 174.506 184.788 172.179L185.095 172.537C185.402 172.895 185.525 173.373 185.218 173.85L182.763 178.026C181.781 179.696 182.456 181.248 184.359 181.248C185.525 181.248 186.814 180.532 188.041 179.458C188.041 180.472 188.716 181.248 190.066 181.248C190.987 181.248 192.153 180.651 193.319 179.756C193.442 180.651 194.178 181.248 195.344 181.248C196.449 181.248 197.676 180.591 198.842 179.577L197.983 181.009H200.315L203.875 174.983C207.434 170.628 209.03 171.225 207.987 172.895L204.979 178.026C203.998 179.696 204.673 181.248 206.575 181.248C207.802 181.248 209.153 180.412 210.503 179.279C210.38 180.412 211.117 181.248 212.528 181.248C213.449 181.248 214.615 180.651 215.781 179.756C215.903 180.651 216.64 181.248 217.806 181.248C219.708 181.248 221.918 179.219 223.882 177.071C223.636 176.952 223.207 176.594 222.9 176.475ZM175.092 168.003C175.767 166.87 176.565 166.333 177.178 166.333C180.861 166.333 178.283 173.671 172.207 173.671H171.716L175.092 168.003ZM170.121 185.066C169.63 185.901 168.832 185.782 168.832 185.185C168.832 184.588 169.384 183.932 171.164 183.276L170.121 185.066ZM194.485 176.833C193.073 178.981 191.662 179.995 190.741 179.995C190.25 179.995 189.944 179.637 190.496 178.742L193.749 173.253C194.976 171.165 197.492 171.702 196.326 173.731L194.485 176.833ZM217.008 176.713C215.597 178.981 214.185 179.995 213.203 179.995C212.712 179.995 212.405 179.637 212.958 178.742L216.21 173.253C217.438 171.165 219.954 171.702 218.788 173.731L217.008 176.713Z" fill="white"/>
<path d="M145.143 197.952L144.959 198.131C143.302 200.04 141.645 201.531 140.601 201.531C140.11 201.531 139.803 201.173 140.356 200.278L143.731 194.551C144.713 192.821 143.793 191.568 142.504 191.568C141.522 191.568 140.417 192.105 139.251 193.239L140.11 191.747H137.778L134.035 198.071C133.912 198.011 133.85 197.952 133.728 197.892L133.544 198.071C132.5 199.205 131.211 199.741 130.045 199.741L132.255 196.043C133.666 193.656 132.378 191.449 130.168 191.449C128.388 191.449 126.977 192.165 125.627 194.432L124.461 196.341L123.479 198.011C123.417 197.952 123.356 197.952 123.295 197.892L123.111 198.071C121.208 200.219 119.551 201.591 117.71 202.366L124.092 191.747H121.76L117.648 198.727C115.869 200.338 114.457 201.233 114.028 201.054C113.475 200.815 114.028 199.98 114.334 199.503L118.876 191.807H116.544L112.8 198.071C112.739 198.011 112.677 198.011 112.616 197.952L112.432 198.131C110.775 200.04 109.118 201.531 108.075 201.531C107.584 201.531 107.277 201.173 107.829 200.278L111.205 194.551C112.186 192.821 111.266 191.568 109.977 191.568C108.995 191.568 107.89 192.105 106.724 193.239L107.584 191.747H105.252L101.508 198.011C101.447 197.952 101.385 197.892 101.262 197.892L101.078 198.071C99.4213 199.98 97.7643 201.472 96.721 201.472C96.23 201.472 95.9231 201.114 96.4755 200.219L100.219 193.835H98.8689C98.9303 192.881 97.9484 191.568 96.4141 191.568C95.1867 191.568 93.4069 192.523 92.425 194.193L90.0315 198.25C89.8474 198.131 89.6633 198.011 89.5405 197.952L89.3564 198.131C87.6994 200.04 85.6128 201.531 83.3421 201.531C81.7464 201.531 80.7645 199.98 82.176 197.653L82.8511 196.52C83.2807 196.58 83.7103 196.639 84.2013 196.639C86.6561 196.639 89.4792 195.386 91.3203 192.284C91.9954 191.151 92.2409 190.136 92.2409 189.242C92.2409 187.213 90.8907 185.841 89.1723 185.841C87.8835 185.841 86.3492 186.736 85.3059 188.466L81.685 194.551C80.3349 193.835 79.5984 192.582 79.5984 191.33C79.5984 190.256 80.0894 189.242 81.0713 188.466L80.3349 187.154C78.6779 188.287 77.9414 189.838 77.9414 191.389C77.9414 193.179 78.9847 194.909 80.8872 195.864L80.2121 197.057C78.5551 199.801 79.5371 202.844 82.8511 202.844C85.4287 202.844 87.3925 201.71 88.9882 200.219C88.4972 201.651 89.2337 202.844 90.8907 202.844C91.8113 202.844 92.9773 202.247 94.1434 201.352C94.2661 202.247 95.0026 202.844 96.1686 202.844C97.2733 202.844 98.5007 202.187 99.6668 201.173L98.8076 202.605H101.14L104.699 196.58C108.259 192.224 109.854 192.821 108.811 194.492L105.804 199.622C104.822 201.293 105.497 202.844 107.4 202.844C108.627 202.844 110.038 202.008 111.389 200.815C111.082 202.068 111.695 202.844 112.862 202.844C113.966 202.844 115.255 201.949 116.298 200.994L115.01 203.142C111.88 204.037 109.854 205.29 109.854 207.02C109.854 209.168 113.291 209.645 114.948 206.841L116.728 203.858C118.692 203.261 120.594 202.068 122.62 200.159C122.313 203.321 126.609 204.037 129.248 200.815H129.739C130.598 200.815 131.764 200.517 132.807 199.92L131.273 202.545H133.605L137.164 196.52C140.724 192.165 142.32 192.761 141.276 194.432L138.269 199.562C137.287 201.233 137.962 202.784 139.865 202.784C141.767 202.784 143.977 200.756 145.941 198.608C145.879 198.429 145.45 198.071 145.143 197.952ZM87.2084 189.48C87.8835 188.347 88.6813 187.81 89.2951 187.81C90.1542 187.81 90.5838 188.347 90.5838 189.182C90.5838 191.27 87.9449 195.088 84.324 195.088H83.833L87.2084 189.48ZM95.4322 198.31C94.0206 200.457 92.6091 201.472 91.6885 201.472C91.1976 201.472 90.8907 201.114 91.443 200.219L94.6957 194.73C95.9231 192.642 98.4393 193.179 97.2733 195.207L95.4322 198.31ZM113.107 206.543C112.616 207.378 111.818 207.258 111.818 206.662C111.818 206.065 112.371 205.409 114.15 204.753L113.107 206.543ZM128.818 198.071H128.695C127.959 198.071 127.345 198.668 127.345 199.443C127.345 199.741 127.406 199.98 127.591 200.219V200.278C126.486 202.128 123.847 201.77 125.197 199.384L126.977 196.401L128.082 194.551C129.739 191.867 131.948 192.94 130.536 195.267L128.818 198.071Z" fill="white"/>
<path d="M199.088 198.728C198.965 198.37 198.536 198.012 198.229 197.953L198.045 198.132C197.185 199.086 196.142 199.981 195.221 200.578C195.958 198.43 195.774 195.089 197.247 192.225L195.528 191.33C194.546 192.643 192.46 195.566 190.373 197.953L190.189 198.132C188.532 200.041 186.875 201.532 185.832 201.532C185.341 201.532 184.85 201.055 184.85 199.981V199.026C186.507 199.205 188.225 198.191 189.33 196.342L189.944 195.268C192.092 191.629 188.593 190.436 186.2 192.583L189.514 186.975H187.182L180.554 198.191C180.431 198.072 180.247 197.953 180.124 197.893L179.94 198.072C178.283 199.981 176.135 201.472 174.478 201.472C173.067 201.472 172.207 200.578 173.251 198.788L175.644 194.731C176.994 192.464 179.388 192.882 177.976 195.208L177.669 195.745H179.572L179.879 195.208C181.106 193.12 179.94 191.569 178.038 191.569C176.135 191.569 174.662 192.524 173.68 194.194L171.409 198.012C171.348 198.012 171.287 197.953 171.287 197.953L171.103 198.132C169.446 200.041 167.789 201.532 166.745 201.532C166.254 201.532 165.947 201.174 166.5 200.279L171.471 191.808H169.139L165.027 198.847C163.247 200.399 161.897 201.293 161.467 201.114C160.915 200.876 161.467 200.041 161.774 199.563L166.316 191.867H163.984L159.442 199.444C158.951 199.862 158.399 200.279 157.969 200.637C158.706 198.489 158.522 195.149 159.994 192.285L158.276 191.39C157.294 192.703 151.955 199.623 149.807 202.009C149.991 202.308 150.359 202.546 150.666 202.785C152.016 201.293 156.435 195.745 157.233 194.671C156.312 196.998 156.803 201.234 154.594 201.234C153.796 201.234 153.489 200.399 153.489 200.399L152.016 201.114C152.016 201.114 152.446 202.964 154.594 202.964C154.839 202.964 155.023 202.964 155.269 202.904H155.33C156.496 202.725 157.662 202.248 158.767 201.472C158.767 202.367 159.319 202.964 160.301 202.964C161.59 202.964 163.002 201.83 164.106 200.816C163.861 202.009 164.597 202.964 166.07 202.964C167.543 202.964 169.139 201.83 170.673 200.339C170.673 201.83 171.9 202.964 173.803 202.964C175.705 202.964 177.547 201.95 179.204 200.578L177.915 202.785H180.247L182.886 198.31V200.1C182.886 202.009 183.254 203.023 185.157 203.023C187.059 203.023 189.268 200.995 191.232 198.847C192.583 197.356 193.687 195.805 194.546 194.731C193.626 197.058 194.117 201.293 191.907 201.293C191.11 201.293 190.803 200.458 190.803 200.458L189.33 201.174C189.33 201.174 189.759 203.023 191.907 203.023C192.153 203.023 192.337 203.024 192.583 202.964H192.644C194.976 202.546 197.369 200.697 199.088 198.728ZM183.622 196.938L184.297 195.805C186.998 192.166 188.839 193.18 187.98 194.552L186.875 196.401C186.2 197.595 184.175 198.43 183.622 196.938Z" fill="white"/>
<path d="M199.026 200.279C198.29 200.279 197.676 200.876 197.676 201.592C197.676 202.307 198.229 202.904 199.026 202.904C199.763 202.904 200.377 202.367 200.377 201.592C200.377 200.876 199.763 200.279 199.026 200.279Z" fill="white"/>
<path d="M199.149 199.384H201.481L208.785 187.034H206.452L199.149 199.384Z" fill="white"/>
<path d="M49.2196 165.618C49.2196 165.797 49.1582 165.976 49.0968 166.155C49.0354 166.334 48.9127 166.512 48.79 166.632C48.6672 166.751 48.4831 166.87 48.299 166.99C48.1149 167.049 47.8694 167.109 47.6239 167.109C47.3171 167.109 47.0716 167.049 46.8261 166.93C46.5806 166.811 46.3351 166.691 46.151 166.512C45.9669 166.334 45.9055 166.155 45.7828 165.916C45.7214 165.677 45.66 165.439 45.66 165.14C45.66 164.603 45.7828 164.186 45.9669 163.709C46.151 163.291 46.3965 162.873 46.7647 162.575C46.8875 162.456 47.0716 162.277 47.2557 162.157C47.4398 162.038 47.6239 161.919 47.808 161.859C47.9921 161.799 48.1149 161.68 48.2376 161.621C48.3604 161.561 48.4217 161.561 48.4831 161.501L49.3423 162.694C49.2196 162.754 49.0354 162.814 48.8513 162.933C48.6672 162.993 48.4831 163.112 48.299 163.231C48.1149 163.351 47.9921 163.53 47.8694 163.709C47.7466 163.888 47.6853 164.067 47.6853 164.305C48.1149 164.305 48.4217 164.424 48.7286 164.663C49.0968 164.842 49.2196 165.2 49.2196 165.618ZM54.0679 165.618C54.0679 165.797 54.0065 165.976 53.9451 166.155C53.8838 166.334 53.761 166.512 53.6383 166.632C53.5155 166.751 53.3314 166.87 53.1473 166.99C52.9632 167.049 52.7177 167.109 52.4722 167.109C52.1654 167.109 51.9199 167.049 51.6744 166.93C51.4289 166.811 51.1834 166.691 50.9993 166.512C50.8766 166.334 50.7538 166.155 50.6311 165.916C50.5697 165.677 50.5083 165.439 50.5083 165.14C50.5083 164.603 50.6311 164.186 50.8152 163.709C50.9993 163.291 51.2448 162.873 51.613 162.575C51.7358 162.456 51.9199 162.277 52.104 162.157C52.2881 162.038 52.4722 161.919 52.6563 161.859C52.8404 161.799 52.9632 161.68 53.0859 161.621C53.2087 161.561 53.27 161.561 53.3314 161.501L54.1906 162.694C54.0679 162.754 53.8838 162.814 53.6996 162.933C53.5155 162.993 53.3314 163.112 53.1473 163.231C52.9632 163.351 52.8404 163.53 52.7177 163.709C52.595 163.888 52.5336 164.067 52.5336 164.305C52.9632 164.305 53.27 164.424 53.5769 164.663C53.8838 164.842 54.0679 165.2 54.0679 165.618Z" fill="white"/>
<path d="M216.763 200.756C216.763 200.577 216.824 200.398 216.885 200.219C216.947 200.04 217.069 199.861 217.192 199.742C217.315 199.623 217.499 199.503 217.683 199.384C217.867 199.324 218.113 199.265 218.358 199.265C218.665 199.265 218.911 199.324 219.156 199.444C219.402 199.563 219.647 199.682 219.831 199.861C220.015 200.04 220.077 200.219 220.199 200.458C220.261 200.697 220.322 200.935 220.322 201.234C220.322 201.77 220.199 202.188 220.015 202.665C219.831 203.083 219.586 203.501 219.217 203.799C219.095 203.918 218.911 204.097 218.726 204.216C218.542 204.336 218.358 204.455 218.174 204.515C217.99 204.574 217.867 204.694 217.745 204.753C217.622 204.813 217.56 204.813 217.499 204.873L216.64 203.68C216.763 203.62 216.947 203.56 217.131 203.441C217.315 203.381 217.499 203.262 217.683 203.143C217.867 203.023 217.99 202.844 218.113 202.665C218.236 202.486 218.297 202.307 218.297 202.069C217.867 202.069 217.56 201.949 217.254 201.711C216.947 201.532 216.763 201.174 216.763 200.756ZM211.976 200.756C211.976 200.577 212.037 200.398 212.098 200.219C212.16 200.04 212.282 199.861 212.405 199.742C212.528 199.623 212.712 199.503 212.896 199.384C213.08 199.324 213.326 199.265 213.571 199.265C213.878 199.265 214.124 199.324 214.369 199.444C214.615 199.563 214.86 199.682 215.044 199.861C215.167 200.04 215.29 200.219 215.412 200.458C215.474 200.697 215.535 200.935 215.535 201.234C215.535 201.77 215.412 202.188 215.228 202.665C215.044 203.083 214.799 203.501 214.43 203.799C214.308 203.918 214.124 204.097 213.94 204.216C213.755 204.336 213.571 204.455 213.387 204.515C213.203 204.574 213.08 204.694 212.958 204.753C212.835 204.813 212.773 204.813 212.712 204.873L211.853 203.68C212.037 203.62 212.16 203.56 212.344 203.441C212.528 203.381 212.712 203.262 212.896 203.143C213.08 203.023 213.203 202.844 213.326 202.665C213.449 202.486 213.51 202.307 213.51 202.069C213.08 202.069 212.773 201.949 212.467 201.711C212.098 201.532 211.976 201.174 211.976 200.756Z" fill="white"/>
</symbol></svg>