<svg width="19" height="15" viewBox="0 0 19 15" fill="none" xmlns="http://www.w3.org/2000/svg">
<path d="M11.9212 0.166969C13.6 -0.333022 14.9825 0.366965 15.575 1.26695C16.2662 1.06695 16.9575 0.766957 17.6487 0.566961C17.6487 1.36695 17.155 2.06693 16.76 2.26693C17.4512 2.46693 18.0437 1.76694 18.0437 1.76694C17.8462 2.76692 17.0562 3.46691 16.4637 3.7669C16.2662 10.3668 13.205 14.7667 6.19375 14.5667C5.7 14.5667 6.2925 14.5667 5.7 14.5667C5.305 14.5667 1.45375 14.1667 0.762497 12.7667C3.03375 12.9667 4.7125 12.3667 5.5025 11.6667C4.515 11.3668 2.7375 11.1668 2.44125 8.76681C2.83625 8.8668 3.03375 8.9668 3.725 8.8668C2.54 8.06682 1.1575 7.36683 1.25625 5.16687C1.5525 5.46687 2.3425 5.66686 2.63875 5.66686C1.9475 5.46687 0.663747 2.36693 1.75 0.866955C3.62625 2.66692 5.5025 4.36689 9.0575 4.56688C9.15625 2.26693 10.1437 0.766957 11.9212 0.166969Z" fill="white"/>
</svg>
