<svg width="102" height="83" viewBox="0 0 102 83" fill="none" xmlns="http://www.w3.org/2000/svg">
<path d="M0 0.563995L50.6 58.2233L101.7 0.563995H0Z" fill="#23A9E1"/>
<path d="M50.9 0.563995H0V22.5155L50.6 82.5164L50.9 82.1261L101.6 23.1985V0.563995H50.9ZM50.9 56.2721L50.6 56.6623L3.7 2.32012H50.9H98.1L50.9 56.2721Z" fill="#491213"/>
<path d="M50.6 56.6623L50.9 56.2721L78.5 24.7594C71.6 25.6375 66.6 30.7107 59.9 29.6375C56.5 29.0522 56.4 27.1985 55.4 25.2472C54.7 23.7838 53.5 23.9789 51.9 23.3936C50.5 22.8082 49.6 21.735 46.7 22.3204C44.2 22.9057 43.9 26.7107 40.7 26.5156C39 26.418 38.9 24.0765 36.5 21.1496C30.2 13.7349 24.3 14.8081 20.3 21.6374L50.6 56.6623Z" fill="#491213"/>
<path d="M23.3 31.9791C23.8 32.5644 24.2 33.2474 24.1 34.0279C24 34.6133 23.2 35.4913 23.8 35.784C24.5 34.9059 25.3 33.9303 26 33.0523C25.4 32.8571 20.6 27.3936 20.6 26.7107C19.5 27.2961 18.5 27.8815 17.4 28.3693C17.6 29.0522 18.7 28.3693 19.3 28.3693C20.1 28.4668 20.7 28.9546 21.3 29.54C19.6 30.9059 15.4 34.4181 14.9 34.5157C14.7 34.5157 13.8 33.9303 13.8 34.4181C13.8 34.7108 14.7 35.3938 14.8 35.5889C15.5 36.4669 16.3 37.345 17 38.2231C17.6 37.9304 16.9 37.5401 17.2 37.0523C17.5 36.7596 22.1 32.9547 23.3 31.9791Z" fill="white"/>
<path d="M18 25.2473C18.4 25.1497 18.6 25.6375 19 25.1497C18.2 24.1741 17.4 23.296 16.6 22.3204C16.2 21.9301 15.8 21.4423 15.9 22.3204C16 22.9058 9.8 27.8814 9.4 27.979C8.9 28.1741 8.6 27.5888 8.3 28.0766C9 28.9546 9.8 29.7351 10.5 30.6132C10.7 30.9059 11 31.1986 11.2 31.4912C11.5 31.7839 11.4 30.8083 11.4 30.9059C11.3 30.4181 11.9 30.0278 12.3 29.7351C13.8 28.3692 17.6 25.2473 18 25.2473Z" fill="white"/>
<path d="M9.2 24.3692C7.4 24.857 5.6 24.1741 5 22.418C4.5 20.6618 5.6 18.7106 7.1 17.735C8.5 16.7593 10.7 16.7593 11.5 18.5155C11.8 19.296 11.7 20.174 11.4 20.9545C11.2 21.4423 10.8 21.9301 11.5 22.2228C12.4 21.1496 13.2 20.0765 14.1 19.0033C13 18.4179 12.6 17.3447 11.8 16.4666C10.9 15.3935 9.7 14.4178 8.3 14.2227C5.4 13.8325 2.7 16.7593 2.5 19.296C2.4 20.7594 2.9 22.0277 3.7 23.1985C4.5 24.1741 5.6 24.7595 6.1 25.9302C6.4 26.0278 8.8 24.9546 9.4 24.6619C9.3 24.5643 9.3 24.3692 9.2 24.3692C8.5 24.5643 9.2 24.3692 9.2 24.3692Z" fill="white"/>
<path d="M48.5 59.8819C47.3 59.1014 44.5 55.2965 43.9 54.7111C43.8 54.6135 43.7 54.4184 43.6 54.3209C43.6 54.3209 43.3 54.516 43.4 54.516C43.2 54.6135 43.5 55.1014 43.3 55.394C42.5 56.5648 37.5 60.2721 37.3 60.4673C36.7 60.8575 36.1 60.2721 35.8 60.76C36.5 61.638 38.6 64.1746 38.8 64.2722C39.3 64.3697 38.9 63.4917 39 63.2966C39.1 62.9063 41.6 60.9551 42.5 60.1746C42.8 59.8819 43.2 60.5648 43.4 60.8575C43.7 61.3453 43.9 61.8331 43.7 62.4185C43.6 62.8088 43 63.2966 43.4 63.5892C44 62.9063 45.8 60.8575 46 60.6624C46.3 60.3697 45.4 60.6624 45.5 60.5648C45.1 60.76 44.8 60.76 44.4 60.5648C44.3 60.4673 43.3 59.4916 43.4 59.3941C43.8 59.0038 44.4 58.4185 44.9 58.3209C45.8 58.1258 46.5 59.7843 46.6 60.3697C46.7 60.9551 46.7 61.5404 46.5 62.1258C46.4 62.5161 46 62.8088 46.5 63.0039C47.2 62.0283 47.9 61.1502 48.6 60.1746C48.8 59.9795 48.6 59.8819 48.5 59.8819C48.4 59.7843 48.7 59.8819 48.5 59.8819Z" fill="white"/>
<path d="M38.3 55.7843C40.5 53.9306 40.8 50.8086 39.1 48.6622C37.2 46.2232 33.7 45.6378 31.3 47.589C29.1 49.4427 28.8 52.4672 30.5 54.7111C32.5 57.3453 35.7 57.638 38.3 55.7843C39.5 54.9062 38.2 55.8818 38.3 55.7843ZM37.8 51.1988C37.2 52.6623 35.6 54.2233 34.1 54.8087C32.3 55.4916 31 54.0282 31.7 52.272C32.3 50.8086 33.9 49.2476 35.4 48.6622C37.3 47.9793 38.5 49.5403 37.8 51.1988C37.5 52.0769 37.9 51.0037 37.8 51.1988Z" fill="white"/>
<path d="M31.9 41.5401C32.4 41.6377 32.8 42.1255 33.2 41.5401C32.5 40.6621 31.7 39.784 31 39.0035C30.4 39.2962 31 39.4913 30.8 39.9792C30.6 40.3694 28.2 40.7596 27.6 40.8572C27.8 40.2718 28.5 38.3206 28.8 38.1255C29.3 37.7352 29.7 38.5157 30.1 38.0279C29.2 36.9547 28.3 35.8815 27.4 34.8083C27.1 34.4181 26.8 33.8327 26.4 34.1254C26.4 34.1254 26.4 35.5888 26.3 35.784C26.2 35.9791 25.4 39.2962 24.4 40.1743C23.9 40.5645 22.2 42.028 21.7 42.2231C21.2 42.4182 20.9 41.6377 20.5 42.2231C21.3 43.1987 22.2 44.1743 23 45.15C23.1 45.2475 23.6 46.028 23.8 46.028C24.3 46.1256 23.9 45.15 23.9 44.9548C24.1 44.5646 26.4 42.3206 27.4 42.1255C28.6 41.8328 30.4 41.345 31.9 41.5401C32.2 41.6377 31.5 41.5401 31.9 41.5401Z" fill="white"/>
<path d="M69.2 51.6866C69.4 52.272 69.5 52.9549 69.4 53.6379C69.3 54.5159 68.4 56.4672 67.2 55.8818C66 55.2964 65 54.2233 64 53.3452C64.8 52.4671 65.5 51.6866 66.9 52.0769C67.3 52.1744 67.6 52.0769 67.2 51.7842C66.8 51.5891 64.1 49.8329 63.9 50.0281C63.6 50.3208 64.4 50.9061 64.1 51.4915C63.9 51.8818 63.5 52.272 63.2 52.6623C62.5 52.0769 61.3 51.3939 62.1 50.4183C62.6 49.7354 63.4 49.2476 64.2 49.15C64.8 49.0524 66 49.5403 66.2 48.9549C65.1 48.4671 64 47.9793 62.9 47.3939C63.1 48.1744 59.6 51.7842 58.8 52.7598C58.7 52.8574 58.1 53.3452 58.1 53.5403C58.1 53.9306 58.7 53.6379 58.8 53.6379C59.3 53.4428 65.6 58.6136 65.8 59.0038C65.9 59.2965 65.6 59.5892 65.8 59.6867C65.8 59.6867 66 59.8819 66.1 59.8819C66.5 59.3941 70.6 54.0281 71.5 53.833C70.7 52.6623 69.9 51.4915 69.1 50.2232C68.5 50.6134 69.1 51.2964 69.2 51.6866Z" fill="white"/>
<path d="M63 58.3209C60.9 57.0526 57.4 59.5892 56.9 59.7843C55.9 60.2721 55.1 59.2965 55.6 58.3209C56.1 57.5404 57 57.1501 57.9 57.0526C58.2 57.0526 59.3 57.2477 59.4 57.0526C59.5 56.8574 59.6 56.8574 59.4 56.7599C58.5 56.1745 57.7 55.5891 56.8 55.1013C56.6 56.1745 55.4 56.7599 54.7 57.4428C53.9 58.3209 53.2 59.2965 53.2 60.5648C53.2 61.638 53.9 62.6136 54.9 63.199C56 63.7844 57.2 63.2966 58.2 62.7112C58.8 62.3209 59.5 61.8331 60.1 61.5404C61.1 61.0526 62.4 61.4429 62.1 62.8088C61.8 63.8819 60.7 64.8576 59.7 65.0527C59.1 65.2478 58.4 65.1503 57.8 64.9551C57.4 64.8576 56.8 64.2722 56.6 64.8576C57.8 65.6381 58.9 66.5161 60.1 67.2966C60.2 66.5161 60.6 66.2234 61.2 65.7356C61.9 65.1503 62.6 64.4673 63.2 63.6868C64.4 62.0283 64.8 59.6868 63 58.3209Z" fill="white"/>
<path d="M63 58.321C64 58.8092 62.4 57.8328 63 58.321V58.321Z" fill="white"/>
<path d="M99.7 19.6862C99 20.3691 91.3 17.4423 90.7 16.9545C90.4 16.8569 90.4 15.6862 90 16.174C89.6 16.6618 89.2 17.1496 88.8 17.6374C88.4 18.1252 88 18.613 87.5 19.1008C87.2 19.3935 87 19.5887 87.5 19.7838C88.3 19.3935 92.9 26.9058 92.5 28.0766C91.8 28.4668 85.6 23.1009 85.4 22.8082C85.3 22.7106 85.7 21.8326 85.2 21.9301C85 21.9301 84.5 22.8082 84.3 23.0033C84 23.3936 83.7 23.6863 83.4 24.0765C83.7 24.5643 83.9 24.0765 84.4 24.0765C84.8 24.1741 86.2 25.3448 86.6 25.7351C85.9 25.7351 83.9 25.8326 83.7 25.8326C82.8 25.9302 83.3 25.1497 82.7 24.9546C81.9 25.8326 81.2 26.7107 80.4 27.6863C80 28.1741 79.5 28.7595 79.1 29.2473C79 29.3449 79.1 29.2473 79.2 29.3449C79.5 29.6376 79.3 29.54 79.8 29.3449C80.3 29.1498 86.4 34.1254 86.6 34.4181C87 34.9059 86.4 35.3937 87 35.5889C87.6 34.9059 88.2 34.1254 88.8 33.4425C88.9 33.3449 88.9 33.3449 88.8 33.2474C88.4 32.8571 88.3 33.4425 87.8 33.4425C87.3 33.3449 83.4 30.1254 81.9 28.9546C83.7 28.8571 89.2 28.6619 90.1 28.6619C90.4 28.6619 91.2 29.54 91.2 29.8327C91.1 30.2229 90.7 30.4181 91.3 30.6132C91.8 30.0278 92.3 29.54 92.8 28.9546L93 28.6619C93.1 28.5644 93.1 28.5644 93.2 28.3693L93.4 28.1741C93.8 27.6863 95.2 26.2229 95 26.0278C94.5 25.6375 94.3 26.5156 93.7 25.9302C93.4 25.7351 92.5 24.1741 92.3 23.7838C92 23.3936 92.9 22.9058 93.3 22.7106C94.1 22.2228 96.5 21.5399 96.8 23.0033C96.8 23.296 96.5 23.4911 96.7 23.6863C96.7 23.6863 96.9 23.8814 97 23.8814C97.2 23.6863 99.4 21.1496 100.3 19.9789C99.9 19.8813 99.8 19.7838 99.7 19.6862ZM92.3 21.8326C92.4 21.735 92.5 21.735 92.3 21.8326C92 22.0277 91.6 22.3204 91.3 22.6131C90.8 21.735 90.3 20.857 89.7 19.9789C90.9 20.4667 92.1 20.9545 93.2 21.4423C93 21.4423 92.7 21.6375 92.3 21.8326Z" fill="white"/>
<path d="M82.6 32.7596C80.2 30.8083 77 31.3937 75 33.5401C73.1 35.784 73.3 39.1011 75.6 40.9548C77.9 42.8085 81.3 42.3207 83.2 40.1743C85.1 37.9304 85 34.6132 82.6 32.7596ZM82.3 39.1987C81 40.467 78.9 39.2962 77.8 38.5157C76.7 37.7352 74.7 35.9791 75.9 34.5157C77 33.2474 79 34.3205 80.1 35.0035C81.3 35.784 83.5 37.5401 82.4 39.1011C82.5 39.0035 82.5 39.0035 82.3 39.1987Z" fill="white"/>
<path d="M82.6 32.7596C83.8 33.7361 82.3 32.5643 82.6 32.7596V32.7596Z" fill="white"/>
<path d="M82.3 39.1988C82.4 39.1011 82.4 39.1011 82.4 39.1011C82.3 39.1988 82.3 39.1988 82.3 39.1988Z" fill="white"/>
<path d="M76 41.6377C76.1 41.7353 76.3 41.8328 76 41.6377C73.1 39.4913 69.7 40.0767 67.5 42.7109C66.5 43.8817 65.5 45.0524 64.5 46.2232C64.9 46.711 65.3 46.1256 65.8 46.4183C66.2 46.711 72 51.394 72.1 51.6866C72.3 52.1745 71.8 52.1745 72.2 52.5647C72.4 52.6623 76.7 47.4915 77.1 46.5158C78 44.7597 77.4 42.8085 76 41.6377ZM74.7 48.272C74.5 48.5647 74.7 48.3695 74 48.9549C73.7 49.2476 67.6 44.3695 67.8 44.1743C68.6 43.2963 70.4 42.6133 71.4 42.906C73.6 43.2963 76.6 45.9305 74.7 48.272Z" fill="white"/>
<path d="M50.6 56.6623L50.9 56.2721L78.5 24.7594C71.6 25.6375 66.6 30.7107 59.9 29.6375C56.5 29.0522 56.4 27.1985 55.4 25.2472C54.7 23.7838 53.5 23.9789 51.9 23.3936C50.5 22.8082 49.6 21.735 46.7 22.3204C44.2 22.9057 43.9 26.7107 40.7 26.5156C39 26.418 38.9 24.0765 36.5 21.1496C30.2 13.7349 24.3 14.8081 20.3 21.6374L50.6 56.6623Z" fill="#491213"/>
<path d="M46.5 69.7357L50.6 63.3941L54.6 69.7357L50.6 76.0772L46.5 69.7357Z" fill="#23A9E1"/>
<path d="M23.3 32.0766C23.8 32.662 24.2 33.3449 24.1 34.1254C24 34.7108 23.2 35.6864 23.8 35.8815C24.5 35.0035 25.3 34.0279 26 33.1498C25.4 32.9547 20.6 27.4912 20.6 26.8083C19.5 27.3936 18.5 27.979 17.4 28.4668C17.6 29.1498 18.7 28.4668 19.3 28.4668C20.1 28.5644 20.7 29.0522 21.3 29.6376C19.6 31.0034 15.4 34.5157 14.9 34.6132C14.7 34.6132 13.8 34.0279 13.8 34.5157C13.8 34.8084 14.7 35.4913 14.8 35.6864C15.5 36.5645 16.3 37.4425 17 38.3206C17.6 38.0279 16.9 37.6377 17.2 37.1499C17.5 36.7596 22.1 32.9547 23.3 32.0766Z" fill="white"/>
<path d="M18 25.2473C18.4 25.1497 18.6 25.6375 19 25.1497C18.2 24.1741 17.4 23.296 16.6 22.3204C16.2 21.9301 15.8 21.4423 15.9 22.3204C16 22.9058 9.8 27.8814 9.4 27.979C8.9 28.1741 8.6 27.5888 8.3 28.0766C9 28.9546 9.8 29.7351 10.5 30.6132C10.7 30.9059 11 31.1986 11.2 31.4912C11.5 31.7839 11.4 30.8083 11.4 30.9059C11.3 30.4181 11.9 30.0278 12.3 29.7351C13.8 28.4668 17.6 25.2473 18 25.2473Z" fill="white"/>
<path d="M9.2 24.3692C7.4 24.857 5.5 24.1741 5 22.418C4.5 20.6618 5.6 18.7106 7.1 17.735C8.5 16.7593 10.7 16.7593 11.5 18.5155C11.8 19.296 11.7 20.174 11.4 20.9545C11.2 21.4423 10.8 21.9301 11.5 22.2228C12.4 21.1496 13.2 20.0765 14.1 19.0033C13 18.4179 12.6 17.3447 11.8 16.4666C10.9 15.3935 9.7 14.4178 8.3 14.2227C5.4 13.8325 2.7 16.7593 2.5 19.296C2.4 20.7594 2.9 22.0277 3.7 23.1985C4.5 24.1741 5.6 24.7595 6.1 25.9302C6.4 26.0278 8.8 24.9546 9.4 24.6619C9.3 24.5643 9.3 24.4668 9.2 24.3692C8.5 24.5643 9.2 24.3692 9.2 24.3692Z" fill="white"/>
<path d="M48.5 59.8819C47.3 59.1014 44.5 55.2965 43.9 54.7111C43.8 54.6135 43.7 54.4184 43.6 54.3209C43.6 54.3209 43.3 54.516 43.4 54.516C43.2 54.6135 43.5 55.1014 43.3 55.394C42.5 56.5648 37.5 60.2721 37.3 60.4673C36.7 60.8575 36.1 60.2721 35.8 60.76C36.5 61.638 38.6 64.1746 38.8 64.2722C39.3 64.3697 38.9 63.4917 39 63.2966C39.1 62.9063 41.6 60.9551 42.5 60.1746C42.8 59.8819 43.2 60.5648 43.4 60.8575C43.7 61.3453 43.9 61.8331 43.7 62.4185C43.6 62.8088 43 63.2966 43.4 63.5892C44 62.9063 45.8 60.8575 46 60.6624C46.3 60.3697 45.4 60.6624 45.5 60.5648C45.1 60.76 44.8 60.76 44.4 60.5648C44.3 60.4673 43.3 59.4916 43.4 59.3941C43.8 59.0038 44.4 58.4185 44.9 58.3209C45.8 58.1258 46.5 59.7843 46.6 60.3697C46.7 60.9551 46.7 61.5404 46.5 62.1258C46.4 62.5161 46 62.8088 46.5 63.0039C47.2 62.0283 47.9 61.1502 48.6 60.1746C48.8 59.9795 48.6 59.8819 48.5 59.8819C48.4 59.7843 48.7 59.8819 48.5 59.8819Z" fill="white"/>
<path d="M38.3 55.7843C40.5 53.9306 40.8 50.8086 39.1 48.6622C37.2 46.2232 33.7 45.6378 31.3 47.589C29.1 49.4427 28.8 52.4672 30.5 54.7111C32.5 57.3453 35.7 57.638 38.3 55.7843C39.5 54.9062 38.2 55.8818 38.3 55.7843ZM37.8 51.1988C37.2 52.6623 35.6 54.2233 34.1 54.8087C32.3 55.4916 31 54.0282 31.7 52.272C32.4 50.8086 33.9 49.2476 35.4 48.6622C37.3 47.9793 38.5 49.5403 37.8 51.1988C37.4 52.0769 37.9 51.0037 37.8 51.1988Z" fill="white"/>
<path d="M31.9 41.5401C32.4 41.6377 32.8 42.028 33.2 41.5401C32.5 40.6621 31.7 39.784 31 39.0035C30.4 39.2962 31 39.4913 30.8 39.9792C30.6 40.3694 28.2 40.7596 27.6 40.8572C27.8 40.2718 28.5 38.3206 28.8 38.1255C29.3 37.7352 29.7 38.5157 30.1 38.0279C29.2 36.9547 28.3 35.8815 27.4 34.8083C27.1 34.4181 26.8 33.8327 26.4 34.1254C26.4 34.1254 26.4 35.5888 26.3 35.784C26.2 35.9791 25.4 39.2962 24.4 40.1743C23.9 40.5645 22.2 42.028 21.7 42.2231C21.2 42.4182 20.9 41.6377 20.5 42.2231C21.3 43.1987 22.2 44.1743 23 45.15C23.1 45.2475 23.6 46.028 23.8 46.028C24.3 46.1256 23.9 45.15 23.9 44.9548C24.1 44.5646 26.4 42.3206 27.4 42.1255C28.6 41.9304 30.4 41.4426 31.9 41.5401C32.2 41.6377 31.5 41.5401 31.9 41.5401Z" fill="white"/>
<path d="M25.6 22.9057C21.6 22.7106 23.2 19.0033 26 18.2228C28.6 17.4423 34.1 19.8813 35.8 21.5399C33 22.4179 29.4 22.2228 26.4 22.4179C26.2 19.296 25.4 20.3691 25.6 22.9057Z" fill="#DC6243"/>
<path d="M26.6 27.5887C24.6 26.0278 25.2 22.418 28.4 23.5887C32.4 25.6375 27.5 26.7107 26.6 27.5887Z" fill="#DC6243"/>
<path d="M35.1 35.101C26.5 35.0035 32.3 22.1253 35.2 22.9058C38.6 23.9789 38.2 35.1986 35.1 35.101Z" fill="#DC6243"/>
<path d="M41.2 30.9059C40.4 33.3449 38.8 33.8327 39 30.8083C39.2 27.3936 41.5 28.1741 43.9 26.9058C45.9 25.8326 47 21.8326 50.5 24.1741C52.1 25.2473 53.9 24.3692 54.4 25.9302C54.4 25.8326 49.9 35.9791 52.4 35.9791C47.4 35.9791 49.6 30.2229 51.5 26.3204C49.7 27.1985 46.7 32.8571 49.1 33.7352C47.8 35.3937 43.9 37.5401 41.9 35.9791C40.4 34.9059 41.2 32.8571 41.2 30.9059Z" fill="#DC6243"/>
<path d="M45.3 40.2719C41.8 41.2475 37.2 39.1011 42.8 38.0279C46.3 37.345 50 38.7109 45.3 40.2719C45.4 40.2719 45.2 40.2719 45.3 40.2719Z" fill="#DC6243"/>
<path d="M49.7 40.1743C49 38.5157 50.3 36.6621 52.4 38.0279C54.2 39.1987 51.5 41.0523 49.7 40.1743Z" fill="#DC6243"/>
<path d="M46.7 44.6622C44.3 43.9792 36.2 44.0768 41.5 41.9304C43.2 41.345 51.7 42.1255 46.7 44.6622Z" fill="#DC6243"/>
<path d="M49.9 44.3695C49.9 43.3938 49.4 41.7353 51.3 42.5158C53.5 43.2963 49.9 45.0524 49.9 44.3695C49.9 44.3695 49.9 44.1743 49.9 44.3695Z" fill="#DC6243"/>
<path d="M57.2 47.8817C55.8 46.711 54.3 46.6134 53 47.8817C51.2 44.6621 44.7 45.7353 41.6 45.2475C43.2 49.2476 56.4 50.0281 57.2 47.8817Z" fill="#DC6243"/>
<path d="M55.3 50.3208C52.1 50.2232 48.6 49.7354 45.7 50.4183C47.6 50.9062 52.1 52.1745 47.9 53.2476C49.4 55.394 51.9 55.1989 53.5 53.3452C52.8 53.0525 52.5 52.6623 51.9 52.272C53.5 51.9793 55.1 51.1013 55.3 50.3208Z" fill="#DC6243"/>
<path d="M58.9 46.5158C53.6 43.4914 54.9 41.2475 59.3 39.1011C61.6 38.0279 66.6 34.0278 68.7 35.2962C65.4 39.1011 62.1 42.8085 58.9 46.5158Z" fill="#DC6243"/>
<path d="M55.1 39.3938C50.6 34.9059 61.8 35.2962 63.6 33.7352C64.9 34.1254 74.4 25.6375 76.7 26.2229C75 28.0766 71.5 34.1254 68.9 34.1254C66.9 34.1254 64.9 33.8327 63.4 35.1986C61.2 37.2474 57.5 38.223 55.1 39.3938Z" fill="#F49774"/>
<path d="M56.6 33.9303C54.1 35.1986 51.8 30.1254 56.1 30.6132C58.9 30.9059 61.8 30.4181 64.4 30.8083C62.4 33.0522 59.7 34.3205 56.6 33.9303Z" fill="#F4B1A4"/>
<path d="M69.2 51.7842C69.4 52.3696 69.5 53.0525 69.4 53.7355C69.3 54.6135 68.4 56.5648 67.2 55.9794C66 55.394 65 54.3208 64 53.4428C64.8 52.5647 65.5 51.7842 66.9 52.1745C67.3 52.272 67.6 52.1745 67.2 51.8818C66.8 51.6867 64.1 49.9305 63.9 50.1257C63.6 50.4183 64.4 51.0037 64.1 51.5891C63.9 51.9793 63.5 52.3696 63.2 52.7598C62.5 52.1745 61.3 51.4915 62.1 50.5159C62.6 49.833 63.4 49.3452 64.2 49.2476C64.8 49.15 66 49.6379 66.2 49.0525C65.1 48.5647 64 48.0769 62.9 47.4915C63.1 48.272 59.6 51.8818 58.8 52.8574C58.7 52.955 58.1 53.4428 58.1 53.6379C58.1 54.0281 58.7 53.7355 58.8 53.7355C59.3 53.5403 65.6 58.7111 65.8 59.1014C65.9 59.3941 65.6 59.6867 65.8 59.7843C65.8 59.7843 66 59.9794 66.1 59.9794C66.5 59.4916 70.6 54.1257 71.5 53.9306C70.7 52.7598 69.9 51.5891 69.1 50.3208C68.5 50.6135 69.1 51.2964 69.2 51.7842Z" fill="white"/>
<path d="M63 58.3209C60.9 57.0526 57.4 59.5892 56.9 59.7843C55.9 60.2721 55.1 59.2965 55.6 58.3209C56.1 57.5404 57 57.1501 57.9 57.0526C58.2 57.0526 59.2 57.2477 59.4 57.0526C59.5 56.8574 59.6 56.8574 59.4 56.7599C58.5 56.1745 57.7 55.5891 56.8 55.1013C56.6 56.1745 55.4 56.7599 54.7 57.4428C53.9 58.3209 53.2 59.2965 53.2 60.5648C53.2 61.638 53.9 62.6136 54.9 63.199C56 63.7844 57.2 63.2966 58.2 62.7112C58.8 62.3209 59.5 61.8331 60.1 61.5404C61.1 61.0526 62.4 61.4429 62.1 62.8088C61.8 63.8819 60.7 64.8576 59.7 65.0527C59.1 65.2478 58.4 65.1503 57.8 64.9551C57.4 64.8576 56.8 64.2722 56.6 64.8576C57.8 65.6381 58.9 66.5161 60.1 67.2966C60.2 66.5161 60.6 66.2234 61.2 65.7356C61.9 65.1503 62.6 64.4673 63.2 63.6868C64.4 62.0283 64.8 59.6868 63 58.3209Z" fill="white"/>
<path d="M63 58.3209C64 58.9063 62.4 57.833 63 58.3209V58.3209Z" fill="white"/>
<path d="M99.7 19.6862C99 20.3691 91.3 17.4423 90.7 16.9545C90.4 16.8569 90.4 15.6862 90 16.174C89.6 16.6618 89.2 17.1496 88.8 17.6374C88.4 18.1252 88 18.613 87.5 19.1008C87.2 19.3935 87 19.5887 87.5 19.7838C88.3 19.3935 92.9 26.9058 92.5 28.0766C91.8 28.4668 85.6 23.1009 85.4 22.8082C85.3 22.7106 85.7 21.8326 85.2 21.9301C85 21.9301 84.5 22.8082 84.3 23.0033C84 23.3936 83.7 23.6863 83.4 24.0765C83.7 24.5643 83.9 24.0765 84.4 24.0765C84.8 24.1741 86.2 25.3448 86.6 25.7351C85.9 25.7351 83.9 25.8326 83.7 25.8326C82.8 25.9302 83.3 25.1497 82.7 24.9546C81.9 25.8326 81.2 26.7107 80.4 27.6863C80 28.1741 79.5 28.7595 79.1 29.2473C79 29.3449 79.1 29.2473 79.1 29.3449C79.4 29.6376 79.2 29.54 79.7 29.3449C80.2 29.1498 86.3 34.1254 86.5 34.4181C86.9 34.8084 86.3 35.3937 86.9 35.5889C87.5 34.9059 88.1 34.1254 88.7 33.4425C88.8 33.3449 88.8 33.3449 88.7 33.2474C88.3 32.8571 88.2 33.4425 87.7 33.4425C87.2 33.3449 83.3 30.1254 81.8 28.9546C83.6 28.8571 89.1 28.6619 90 28.6619C90.3 28.6619 91.1 29.54 91.1 29.8327C91 30.2229 90.6 30.4181 91.2 30.6132C91.7 30.0278 92.2 29.54 92.7 28.9546L92.9 28.6619C93 28.5644 93 28.5644 93.1 28.3693L93.3 28.1741C93.7 27.6863 95.1 26.2229 94.9 26.1253C94.4 25.7351 94.2 26.6131 93.6 26.0278C93.3 25.8326 92.4 24.2716 92.2 23.8814C91.9 23.4911 92.8 23.0033 93.2 22.8082C94 22.3204 96.4 21.6375 96.7 23.1009C96.7 23.3936 96.4 23.5887 96.6 23.7838C96.6 23.7838 96.8 23.979 96.9 23.979C97.1 23.7838 99.3 21.2472 100.2 20.0765C99.9 19.8813 99.8 19.7838 99.7 19.6862ZM92.3 21.8326C92.4 21.8326 92.5 21.735 92.3 21.8326C92 22.0277 91.6 22.3204 91.3 22.6131C90.8 21.735 90.3 20.857 89.7 19.9789C90.9 20.4667 92.1 20.9545 93.2 21.4423C93 21.5399 92.7 21.6375 92.3 21.8326Z" fill="white"/>
<path d="M82.6 32.7596C80.2 30.8083 77 31.3937 75 33.5401C73.1 35.784 73.3 39.1011 75.6 40.9548C77.9 42.8085 81.3 42.3207 83.2 40.1743C85.1 37.9304 85 34.6132 82.6 32.7596ZM82.3 39.1987C82.3 39.1987 82.3 39.2962 82.3 39.1987C81 40.467 78.9 39.2962 77.8 38.5157C76.7 37.7352 74.7 35.9791 75.9 34.5157C77 33.2474 79 34.3205 80.1 35.0035C81.3 35.784 83.5 37.5401 82.4 39.1011C82.5 39.0035 82.5 39.0035 82.3 39.1987Z" fill="white"/>
<path d="M82.6 32.7596C83.8 33.7361 82.3 32.5643 82.6 32.7596V32.7596Z" fill="white"/>
<path d="M82.3 39.2963C82.3 39.1987 82.3 39.1987 82.3 39.2963C82.4 39.1987 82.4 39.1987 82.4 39.1987C82.3 39.1987 82.3 39.2963 82.3 39.2963Z" fill="white"/>
<path d="M76 41.6377C76.1 41.7353 76.3 41.9304 76 41.6377C73.1 39.4913 69.7 40.0767 67.5 42.7109C66.5 43.8817 65.5 45.0524 64.5 46.2232C64.9 46.711 65.3 46.1256 65.8 46.4183C66.2 46.711 72 51.394 72.1 51.6866C72.3 52.1745 71.8 52.1745 72.2 52.5647C72.4 52.6623 76.7 47.4915 77.1 46.5158C78 44.7597 77.4 42.906 76 41.6377ZM74.7 48.272C74.5 48.5647 74.7 48.3695 74 48.9549C73.7 49.2476 67.6 44.3695 67.8 44.1743C68.6 43.2963 70.4 42.6133 71.4 42.906C73.6 43.3938 76.6 46.028 74.7 48.272Z" fill="white"/>
</svg>
