<svg width="282" height="209" viewBox="0 0 282 209" fill="none" xmlns="http://www.w3.org/2000/svg">
<path d="M101.385 41.766L101.262 41.8853C100.403 42.7802 99.4211 43.1978 98.5006 43.1978L100.219 40.2745C101.324 38.4251 100.28 36.6354 98.5619 36.6354C97.1504 36.6354 96.0457 37.1723 95.0024 38.9621L94.0819 40.5132L93.3454 41.766L93.2227 41.8853C91.8725 43.3768 90.5837 44.57 89.7859 44.57C89.3563 44.57 89.1722 44.2717 89.6018 43.6154L93.5295 36.9337H95.0024L95.5548 36.0984H94.0205L95.7389 33.1752H93.8977L92.1793 36.0984H90.5223L89.97 36.9337H91.627L87.9447 43.1382C87.1469 44.4506 87.6993 45.7035 89.1722 45.7035C90.2155 45.7035 91.4429 44.9279 92.5476 43.8541C92.5476 46.1211 95.8002 46.5983 97.7641 44.1523H98.1937C99.2984 44.1523 101.017 43.4961 101.937 42.4222C101.937 42.124 101.63 41.8853 101.385 41.766ZM97.4573 41.8853H97.3959C96.7822 41.8853 96.2912 42.3626 96.2912 42.9592C96.2912 43.1978 96.3526 43.3768 96.4753 43.5558V43.6154C95.6161 45.0472 93.5295 44.8086 94.5728 42.8995L95.9844 40.5728L96.8435 39.141C98.1323 36.9933 99.9121 37.8285 98.8074 39.678L97.4573 41.8853Z" fill="#766458"/>
<path d="M126.854 41.7658L126.731 41.8851C125.381 43.3765 123.724 44.5697 122.435 44.5697C121.331 44.5697 120.655 43.8538 121.453 42.422L121.637 42.1237C122.803 42.601 125.074 42.3623 126.424 40.0357L126.67 39.6181C127.652 37.9476 126.731 36.7544 125.197 36.7544C123.724 36.7544 122.558 37.53 121.76 38.8425L119.98 41.8254L119.858 41.9447C118.508 43.4362 117.219 44.6294 116.421 44.6294C115.991 44.6294 115.807 44.3311 116.237 43.6748L118.876 39.1408C119.674 37.7686 118.937 36.8141 117.894 36.8141C117.096 36.8141 116.237 37.2317 115.316 38.1862L118.262 33.2346H116.421L111.327 41.7658L111.204 41.8851C109.854 43.3765 108.565 44.5697 107.768 44.5697C107.338 44.5697 107.154 44.2714 107.583 43.6152L111.511 36.9334H112.984L113.536 36.0982H112.002L113.721 33.1749H111.879L110.161 36.0982H108.504L107.952 36.9334H109.609L105.926 43.1379C105.129 44.4504 105.681 45.7032 107.154 45.7032C107.89 45.7032 108.688 45.3453 109.486 44.7487L108.995 45.5242H110.836L113.598 40.8112C116.421 37.351 117.648 37.8283 116.912 39.1408L114.518 43.1976C113.721 44.5101 114.273 45.7629 115.746 45.7629C116.85 45.7629 118.078 44.9277 119.183 43.8538C119.244 44.9873 120.226 45.7629 121.699 45.7629C123.785 45.7629 125.872 44.2118 127.345 42.4817C127.406 42.1237 127.099 41.8851 126.854 41.7658ZM123.356 39.2601C124.399 37.4703 126.302 37.7686 125.197 39.6181L124.951 40.0357C124.092 41.4675 122.865 41.4675 122.19 41.2288L123.356 39.2601Z" fill="#766458"/>
<path d="M193.81 41.766L193.687 41.8853C193.012 42.6608 192.214 43.3171 191.478 43.854C192.091 42.1239 191.907 39.5586 193.073 37.2319L191.723 36.516C190.987 37.5302 189.33 39.8569 187.611 41.766L187.488 41.8853C186.138 43.3768 184.849 44.5699 184.052 44.5699C183.622 44.5699 183.438 44.2716 183.868 43.6154L187.795 36.9336H185.954L182.701 42.4819C181.29 43.7347 180.247 44.3909 179.878 44.2716C179.449 44.0927 179.878 43.4364 180.124 43.0188L183.683 36.9336H181.842L178.958 41.766L178.835 41.8853C177.976 42.7802 176.994 43.1978 176.073 43.1978L177.792 40.2745C178.896 38.4251 177.853 36.6353 176.135 36.6353C174.723 36.6353 173.619 37.1723 172.575 38.962L171.655 40.5131L170.918 41.766L170.796 41.8853C169.445 43.3768 167.788 44.5699 166.5 44.5699C165.395 44.5699 164.72 43.854 165.518 42.4222L165.702 42.1239C166.868 42.6012 169.138 42.3626 170.489 40.0359L170.734 39.6183C171.716 37.9478 170.796 36.7547 169.261 36.7547C167.788 36.7547 166.622 37.5302 165.824 38.8427L164.045 41.8256L163.922 41.945C162.388 43.675 161.099 44.7489 159.626 45.3455L163.738 38.4848H162.633C162.633 37.7689 161.835 36.7547 160.731 36.7547C159.749 36.7547 158.337 37.5302 157.601 38.8427L155.821 41.8256L155.698 41.945C154.348 43.4364 153.059 44.6296 152.261 44.6296C151.832 44.6296 151.648 44.3313 152.077 43.675L153.918 40.5728C154.532 39.4989 154.225 38.8427 153.673 38.1268L152.63 36.9336C152.384 36.6353 152.384 36.2177 152.752 35.9194L151.77 34.9052C150.727 35.8001 150.666 36.8143 151.28 37.6495L151.464 37.8285C150.666 38.962 149.561 40.4535 148.334 41.8256L148.211 41.945C147.352 42.8398 146.37 43.2574 145.449 43.2574L147.168 40.3342C148.272 38.4848 147.229 36.695 145.511 36.695C144.099 36.695 142.994 37.2319 141.951 39.0217L141.031 40.5728L140.294 41.8256L140.171 41.945C138.637 43.675 137.348 44.7489 135.875 45.3455L139.987 38.4848H138.883C138.883 37.7689 138.085 36.7547 136.98 36.7547C135.998 36.7547 134.587 37.5302 133.85 38.8427L131.273 43.1978C130.475 44.5103 131.027 45.7631 132.5 45.7631C132.991 45.7631 133.605 45.5245 134.28 45.1665L133.789 46.0017C131.334 46.7176 129.738 47.7318 129.738 49.0443C129.738 50.7744 132.439 51.1324 133.789 48.925L135.2 46.5983C136.673 46.1807 138.085 45.2858 139.619 43.9137C139.619 46.1807 142.872 46.658 144.836 44.212H145.265C146.37 44.212 148.088 43.5557 149.009 42.4819C149.868 41.4677 150.604 40.5728 152.077 38.6637L152.323 38.962C152.568 39.2603 152.63 39.6183 152.446 39.9762L150.482 43.2574C149.684 44.5699 150.236 45.8228 151.709 45.8228C152.63 45.8228 153.673 45.2262 154.655 44.3909C154.655 45.2262 155.207 45.8228 156.251 45.8228C156.742 45.8228 157.355 45.5841 158.03 45.2262L157.601 45.9421C155.146 46.658 153.55 47.6722 153.55 48.9847C153.55 50.7148 156.251 51.0727 157.601 48.8653L159.012 46.5387C160.485 46.0614 161.958 45.2262 163.492 43.7944C163.554 44.9279 164.474 45.7034 166.009 45.7034C167.481 45.7034 169.016 44.8682 170.243 43.7944C170.182 46.121 173.496 46.5983 175.46 44.1523H175.889C176.442 44.1523 177.239 43.9733 177.915 43.6154C177.424 44.8682 177.853 45.7034 178.896 45.7034C179.878 45.7034 181.044 44.8086 181.904 43.9733C181.72 44.9279 182.333 45.7034 183.499 45.7034C185.034 45.7034 186.752 44.1523 188.286 42.4222C189.33 41.229 190.25 39.9762 190.925 39.141C190.189 40.9904 190.618 44.3313 188.839 44.3313C188.225 44.3313 187.979 43.675 187.979 43.675L186.813 44.2716C186.813 44.2716 187.12 45.7034 188.839 45.7034C189.023 45.7034 189.145 45.7034 189.33 45.6438H189.391C191.293 45.4051 193.135 43.9733 194.485 42.4222C194.423 42.1239 194.117 41.8256 193.81 41.766ZM167.481 39.2603C168.525 37.4706 170.427 37.7689 169.323 39.6183L169.077 40.0359C168.218 41.4677 166.991 41.4677 166.315 41.229L167.481 39.2603ZM132.377 48.567C132.009 49.2233 131.395 49.1636 131.395 48.6267C131.395 48.1494 131.825 47.6125 133.236 47.0756L132.377 48.567ZM133.236 44.5699C132.807 44.5699 132.623 44.2716 133.052 43.6154L135.63 39.2603C136.612 37.5899 138.576 38.0075 137.655 39.6183L136.244 42.0046C135.139 43.7347 133.973 44.5699 133.236 44.5699ZM144.529 41.8853H144.467C143.854 41.8853 143.363 42.3626 143.363 42.9591C143.363 43.1978 143.424 43.3768 143.547 43.5557V43.6154C142.688 45.0472 140.601 44.8086 141.644 42.8995L143.056 40.5728L143.915 39.141C145.204 36.9933 146.984 37.8285 145.879 39.6779L144.529 41.8853ZM156.066 48.567C155.698 49.2233 155.085 49.1636 155.085 48.6267C155.085 48.1494 155.514 47.6125 156.926 47.0756L156.066 48.567ZM156.926 44.5699C156.496 44.5699 156.312 44.2716 156.742 43.6154L159.319 39.2603C160.301 37.5899 162.265 38.0075 161.344 39.6183L159.933 42.0046C158.828 43.7347 157.662 44.5699 156.926 44.5699ZM175.03 41.8853H174.969C174.355 41.8853 173.864 42.3626 173.864 42.9591C173.864 43.1978 173.925 43.3768 174.048 43.5557V43.6154C173.189 45.0472 171.102 44.8086 172.146 42.8995L173.557 40.5728L174.416 39.141C175.705 36.9933 177.485 37.8285 176.38 39.6779L175.03 41.8853Z" fill="#766458"/>
<path d="M79.8437 39.8562H62.1074V41.0493H79.8437V39.8562Z" fill="#766458"/>
<path d="M219.156 39.8562H201.42V41.0493H219.156V39.8562Z" fill="#766458"/>
<path d="M100.035 0.00497437H104.76L104.024 26.7917H95.1252L93.8978 15.7548L92.6704 26.7917H83.7102L83.0351 0.00497437H87.6993L88.0675 22.198H88.5585L91.5657 0.00497437H96.2299L99.2371 22.198H99.728L100.035 0.00497437Z" fill="#81B3D3"/>
<path d="M119.551 22.198V26.8513H106.724V0.00497437H119.551V4.59869H111.388V11.0418H117.894V15.6355H111.388V22.1383H119.551V22.198Z" fill="#81B3D3"/>
<path d="M132.684 22.198V26.8513H121.453V0.00497437H126.118V22.198H132.684Z" fill="#81B3D3"/>
<path d="M142.626 16.948L147.352 15.8742V23.9877C147.352 25.5389 146.002 26.7917 144.467 26.7917H137.41C135.814 26.7917 134.525 25.4792 134.525 23.9877V2.80893C134.525 1.2578 135.814 0.00497437 137.41 0.00497437H144.467C146.002 0.00497437 147.352 1.2578 147.352 2.80893V8.23786L142.626 9.31172V4.53903H139.251V22.1383H142.626V16.948Z" fill="#81B3D3"/>
<path d="M160.117 0.00497437C161.651 0.00497437 163.001 1.2578 163.001 2.80893V23.9281C163.001 25.4792 161.651 26.732 160.117 26.732H153.059C151.464 26.732 150.175 25.4195 150.175 23.9281V2.80893C150.175 1.2578 151.464 0.00497437 153.059 0.00497437H160.117ZM158.276 4.59869H154.901V22.198H158.276V4.59869Z" fill="#81B3D3"/>
<path d="M178.344 0.00497437H183.009V26.7917H178.344V13.6071L176.442 20.4082H171.839L169.998 13.6071V26.7917H165.334V0.00497437H169.998L174.171 12.9509L178.344 0.00497437Z" fill="#81B3D3"/>
<path d="M198.167 22.198V26.8513H185.341V0.00497437H198.167V4.59869H190.005V11.0418H196.51V15.6355H190.005V22.1383H198.167V22.198Z" fill="#81B3D3"/>
<path d="M27.1874 94.028C24.978 92.2382 22.2163 91.045 19.2705 91.045C17.0612 91.045 14.1767 92.2979 14.1767 94.8035C14.1767 97.4285 17.4294 98.4427 19.4546 99.0393L22.5232 99.9342C28.9058 101.784 33.8768 104.886 33.8768 112.105C33.8768 116.519 32.7721 121.113 29.1513 124.096C25.5304 127.079 20.7434 128.272 16.1406 128.272C10.3717 128.272 4.6642 126.363 0 123.201L4.97106 113.954C7.97824 116.519 11.4764 118.548 15.5882 118.548C18.4113 118.548 21.3571 117.176 21.3571 114.073C21.3571 110.792 16.6929 109.718 14.1153 109.002C6.62807 106.855 1.71839 105.005 1.71839 96.3547C1.71839 87.2865 8.34646 81.3803 17.5521 81.3803C22.155 81.3803 27.8625 82.8122 31.913 85.0792L27.1874 94.028Z" fill="white"/>
<path d="M56.2158 92.3577V99.815H69.6561V109.659H56.2158V117.355H70.4539V127.198H44.3098V82.5737H70.4539V92.4173L56.2158 92.3577Z" fill="white"/>
<path d="M79.2914 82.5737H96.2298C108.995 82.5737 119.551 92.3577 119.551 104.886C119.551 117.414 108.934 127.198 96.2298 127.198H79.2914V82.5737ZM91.2587 117.355H93.9591C101.078 117.355 107.154 113.536 107.154 104.886C107.154 96.8917 101.753 92.4173 94.0818 92.4173H91.2587V117.355Z" fill="white"/>
<path d="M175.951 104.051C175.951 118.488 165.272 128.69 150.543 128.69C135.814 128.69 125.136 118.488 125.136 104.051C125.136 90.5677 137.348 81.082 150.543 81.082C163.738 81.082 175.951 90.5677 175.951 104.051ZM137.533 104.11C137.533 111.806 143.363 117.414 150.482 117.414C157.601 117.414 163.431 111.806 163.431 104.11C163.431 97.9654 157.601 92.2978 150.482 92.2978C143.424 92.2978 137.533 97.9654 137.533 104.11Z" fill="white"/>
<path d="M182.272 82.5737H194.239L216.087 109.897H216.21V82.5737H228.178V127.198H216.21L194.362 99.815H194.239V127.198H182.272V82.5737Z" fill="white"/>
<path d="M249.842 119.443L246.65 127.198H234.008L251.683 82.5737H264.693L282 127.198H269.296L266.289 119.443H249.842ZM258.188 96.3548H258.065L253.156 110.554H263.098L258.188 96.3548Z" fill="white"/>
<path d="M66.2196 171.643C70.9451 170.092 71.252 164.364 66.6492 164.364C65.3604 164.364 63.8261 165.259 62.7828 166.989L56.5229 177.549C56.2161 178.026 55.9706 178.444 55.6024 178.861C54.0067 176.714 54.4363 173.492 56.707 172.06L55.7865 170.927C50.8768 173.969 52.3497 182.68 60.5121 182.68C67.447 182.68 70.6996 174.566 66.2196 171.643ZM60.4507 180.95C59.0391 180.95 57.9958 180.651 57.0753 180.174C57.5049 179.697 57.8731 179.16 58.2413 178.563L62.1691 171.941L62.7828 172.001C68.2448 173.134 66.0968 180.95 60.4507 180.95ZM62.9669 170.629L64.8694 167.467C66.5878 164.603 68.7358 166.274 67.5697 168.421C66.6492 170.092 65.3604 170.569 62.9669 170.629Z" fill="white"/>
<path d="M85.9196 178.981C85.5514 180.294 86.2878 181.427 87.8221 181.427C88.7427 181.427 89.9087 180.831 91.0748 179.936C91.1975 180.831 91.9339 181.427 93.1 181.427C94.3274 181.427 95.6776 180.592 97.0277 179.399C96.7823 180.592 97.3346 181.427 98.5007 181.427C99.7894 181.427 101.201 180.294 102.306 179.28C102.06 180.473 102.797 181.427 104.27 181.427C106.172 181.427 108.381 179.399 110.345 177.251C110.345 177.192 110.284 177.192 110.284 177.132C111.573 175.7 112.677 174.149 113.537 173.075C112.616 175.402 113.107 179.638 110.898 179.638C110.1 179.638 109.793 178.802 109.793 178.802L108.32 179.518C108.32 179.518 108.75 181.368 110.898 181.368C111.143 181.368 111.327 181.368 111.573 181.308H111.634C113.352 181.069 115.009 180.055 116.482 178.802C116.544 180.294 117.71 181.368 119.612 181.368C122.251 181.368 124.89 179.339 126.793 177.192C126.609 176.893 126.24 176.535 125.934 176.416L125.749 176.595C124.092 178.504 121.944 179.996 120.287 179.996C118.876 179.996 118.017 179.101 119.06 177.311L119.305 176.893C120.778 177.49 123.601 177.192 125.381 174.268L125.688 173.731C126.915 171.643 125.749 170.092 123.847 170.092C121.944 170.092 120.471 171.047 119.49 172.717L117.219 176.476H117.157L116.973 176.655C116.114 177.609 115.071 178.504 114.15 179.101C114.887 176.953 114.703 173.612 116.176 170.748L114.457 169.854C113.475 171.166 111.389 174.089 109.302 176.476L109.363 176.535L109.302 176.655C107.645 178.564 105.988 180.055 104.945 180.055C104.454 180.055 104.147 179.697 104.699 178.802L109.67 170.331H107.338L103.226 177.371C101.446 178.922 100.096 179.817 99.6667 179.638C99.1144 179.399 99.6667 178.564 99.9736 178.086L104.515 170.39H102.183L98.5007 176.595C98.4393 176.535 98.3779 176.535 98.3165 176.476L98.1324 176.655C96.4754 178.564 94.8184 180.055 93.7751 180.055C93.2841 180.055 92.9773 179.697 93.5296 178.802L97.2732 172.419H95.9231C95.9844 171.464 95.0025 170.152 93.4682 170.152C92.2408 170.152 90.461 171.106 89.4791 172.777L87.147 176.714C87.0243 176.595 86.9015 176.535 86.7788 176.476L86.5947 176.655C84.9377 178.564 82.7897 180.055 81.1326 180.055C79.7211 180.055 78.8619 179.16 79.9052 177.371L82.2987 173.314C83.6489 171.047 86.0423 171.464 84.6308 173.791L84.3239 174.328H86.2264L86.5333 173.791C87.7607 171.703 86.5947 170.152 84.6922 170.152C82.7897 170.152 81.3168 171.106 80.3348 172.777L78.0027 176.655C77.9414 176.595 77.88 176.595 77.8186 176.535L77.6345 176.714C75.9775 178.623 73.8295 180.115 72.1725 180.115C70.7609 180.115 69.9017 179.22 70.9451 177.43L71.1905 177.013C72.6634 177.609 75.4865 177.311 77.2663 174.388L77.5731 173.851C78.8005 171.763 77.6345 170.212 75.732 170.212C73.8295 170.212 72.3566 171.166 71.3746 172.837L68.9198 176.893C67.4469 179.28 68.7357 181.547 71.4974 181.547C73.5226 181.547 75.6092 180.353 77.2663 178.802C77.2049 180.353 78.4323 181.547 80.3962 181.547C82.3601 181.427 84.2626 180.353 85.9196 178.981ZM121.515 173.254C122.865 170.987 125.258 171.405 123.847 173.731L123.54 174.268C122.435 176.118 120.901 176.058 120.042 175.76L121.515 173.254ZM88.2517 178.802L91.5044 173.314C92.7318 171.226 95.248 171.763 94.0819 173.791L92.2408 176.893C90.8293 179.041 89.4177 180.055 88.4972 180.055C88.0062 179.996 87.6993 179.697 88.2517 178.802ZM73.3999 173.254C74.7501 170.987 77.1435 171.405 75.732 173.731L75.4251 174.268C74.3205 176.118 72.7862 176.058 71.927 175.76L73.3999 173.254Z" fill="white"/>
<path d="M152.323 181.427C154.962 181.427 157.601 179.399 159.503 177.251C159.319 176.953 158.951 176.595 158.644 176.475L158.46 176.654C156.803 178.563 154.655 180.055 152.998 180.055C151.587 180.055 150.727 179.16 151.771 177.37L152.016 176.953C153.489 177.549 156.312 177.251 158.092 174.328L158.399 173.791C159.626 171.703 158.46 170.152 156.558 170.152C154.655 170.152 153.182 171.106 152.2 172.777L149.93 176.535C149.93 176.535 149.868 176.535 149.868 176.475L149.684 176.654C148.027 178.563 146.37 180.055 145.327 180.055C144.836 180.055 144.529 179.697 145.081 178.802L148.457 173.075C149.439 171.345 148.518 170.092 147.229 170.092C146.247 170.092 145.143 170.629 143.977 171.822L147.72 165.558H145.327L138.76 176.595C138.699 176.535 138.576 176.475 138.515 176.416L138.33 176.595C136.673 178.504 135.016 179.995 133.973 179.995C133.482 179.995 133.175 179.637 133.728 178.742L138.699 170.271H140.601L141.276 169.197H139.374L141.583 165.498H139.251L137.042 169.197H134.955L134.28 170.271H136.428L131.764 178.146C130.782 179.816 131.457 181.367 133.359 181.367C134.525 181.367 135.753 180.651 137.042 179.578L136.121 181.129H138.453L142.013 175.163C145.572 170.808 147.168 171.345 146.186 173.015L143.179 178.146C142.197 179.816 142.872 181.367 144.774 181.367C146.186 181.367 147.782 180.293 149.254 178.862C149.254 180.353 150.421 181.427 152.323 181.427ZM154.226 173.254C155.576 170.987 157.969 171.404 156.558 173.731L156.251 174.268C155.146 176.117 153.612 176.058 152.753 175.759L154.226 173.254Z" fill="white"/>
<path d="M222.9 176.475L222.716 176.654C221.059 178.563 219.402 180.054 218.358 180.054C217.867 180.054 217.561 179.696 218.113 178.802L225.968 165.557H223.636L220.199 171.285C219.77 170.628 219.033 170.091 218.051 170.091C216.824 170.091 215.044 171.046 214.062 172.716L211.792 176.534C211.73 176.534 211.669 176.475 211.669 176.475L211.485 176.654C209.828 178.563 208.171 180.054 207.127 180.054C206.636 180.054 206.33 179.696 206.882 178.802L210.257 173.074C211.239 171.344 210.319 170.091 209.03 170.091C208.048 170.091 206.943 170.628 205.777 171.762L206.636 170.27H204.304L200.561 176.534C200.499 176.475 200.438 176.415 200.315 176.415L200.131 176.594C198.474 178.503 196.817 179.995 195.774 179.995C195.283 179.995 194.976 179.637 195.528 178.742L199.272 172.358H198.106C198.167 171.404 197.185 170.091 195.651 170.091C194.424 170.091 192.644 171.046 191.662 172.716L189.391 176.475L189.268 176.594C187.611 178.503 185.954 179.995 184.911 179.995C184.42 179.995 184.113 179.637 184.666 178.742L186.998 174.804C187.796 173.432 187.427 172.657 186.691 171.762L185.402 170.211C185.095 169.793 185.095 169.316 185.525 168.898L184.297 167.586C182.947 168.719 182.886 170.032 183.684 171.046L183.868 171.285C182.824 172.716 181.474 174.625 179.94 176.356C180.001 176.415 180.063 176.475 180.124 176.534C178.222 178.682 176.565 180.054 174.724 180.83L177.669 175.938H175.399L175.153 176.356C173.926 178.444 172.514 179.995 170.673 179.995C169.077 179.995 168.771 178.444 170.182 176.117L170.857 174.983C171.287 175.043 171.716 175.103 172.207 175.103C180.492 175.103 184.482 164.304 177.178 164.304C175.89 164.304 174.355 165.199 173.312 166.929L169.691 173.015C168.341 172.299 167.604 171.046 167.604 169.793C167.604 168.719 168.095 167.705 169.077 166.929L168.341 165.617C166.684 166.75 165.947 168.302 165.947 169.853C165.947 171.642 166.991 173.373 168.893 174.327L168.218 175.52C166.561 178.265 166.868 181.307 170.182 181.307C171.164 181.307 172.023 181.009 172.698 180.591L172.085 181.605C168.955 182.56 166.991 183.753 166.991 185.483C166.991 187.631 170.428 188.108 172.085 185.304L173.864 182.321C176.258 181.605 178.651 179.995 181.229 177.071C181.167 177.012 181.167 176.952 181.106 176.833C182.149 175.64 183.009 174.506 184.788 172.179L185.095 172.537C185.402 172.895 185.525 173.373 185.218 173.85L182.763 178.026C181.781 179.696 182.456 181.248 184.359 181.248C185.525 181.248 186.814 180.532 188.041 179.458C188.041 180.472 188.716 181.248 190.066 181.248C190.987 181.248 192.153 180.651 193.319 179.756C193.442 180.651 194.178 181.248 195.344 181.248C196.449 181.248 197.676 180.591 198.842 179.577L197.983 181.009H200.315L203.875 174.983C207.434 170.628 209.03 171.225 207.987 172.895L204.979 178.026C203.998 179.696 204.673 181.248 206.575 181.248C207.802 181.248 209.153 180.412 210.503 179.279C210.38 180.412 211.117 181.248 212.528 181.248C213.449 181.248 214.615 180.651 215.781 179.756C215.903 180.651 216.64 181.248 217.806 181.248C219.708 181.248 221.918 179.219 223.882 177.071C223.636 176.952 223.207 176.594 222.9 176.475ZM175.092 168.003C175.767 166.87 176.565 166.333 177.178 166.333C180.861 166.333 178.283 173.671 172.207 173.671H171.716L175.092 168.003ZM170.121 185.066C169.63 185.901 168.832 185.782 168.832 185.185C168.832 184.588 169.384 183.932 171.164 183.276L170.121 185.066ZM194.485 176.833C193.073 178.981 191.662 179.995 190.741 179.995C190.25 179.995 189.944 179.637 190.496 178.742L193.749 173.253C194.976 171.165 197.492 171.702 196.326 173.731L194.485 176.833ZM217.008 176.713C215.597 178.981 214.185 179.995 213.203 179.995C212.712 179.995 212.405 179.637 212.958 178.742L216.21 173.253C217.438 171.165 219.954 171.702 218.788 173.731L217.008 176.713Z" fill="white"/>
<path d="M145.143 197.952L144.959 198.131C143.302 200.04 141.645 201.531 140.601 201.531C140.11 201.531 139.803 201.173 140.356 200.278L143.731 194.551C144.713 192.821 143.793 191.568 142.504 191.568C141.522 191.568 140.417 192.105 139.251 193.239L140.11 191.747H137.778L134.035 198.071C133.912 198.011 133.85 197.952 133.728 197.892L133.544 198.071C132.5 199.205 131.211 199.741 130.045 199.741L132.255 196.043C133.666 193.656 132.378 191.449 130.168 191.449C128.388 191.449 126.977 192.165 125.627 194.432L124.461 196.341L123.479 198.011C123.417 197.952 123.356 197.952 123.295 197.892L123.111 198.071C121.208 200.219 119.551 201.591 117.71 202.366L124.092 191.747H121.76L117.648 198.727C115.869 200.338 114.457 201.233 114.028 201.054C113.475 200.815 114.028 199.98 114.334 199.503L118.876 191.807H116.544L112.8 198.071C112.739 198.011 112.677 198.011 112.616 197.952L112.432 198.131C110.775 200.04 109.118 201.531 108.075 201.531C107.584 201.531 107.277 201.173 107.829 200.278L111.205 194.551C112.186 192.821 111.266 191.568 109.977 191.568C108.995 191.568 107.89 192.105 106.724 193.239L107.584 191.747H105.252L101.508 198.011C101.447 197.952 101.385 197.892 101.262 197.892L101.078 198.071C99.4213 199.98 97.7643 201.472 96.721 201.472C96.23 201.472 95.9231 201.114 96.4755 200.219L100.219 193.835H98.8689C98.9303 192.881 97.9484 191.568 96.4141 191.568C95.1867 191.568 93.4069 192.523 92.425 194.193L90.0315 198.25C89.8474 198.131 89.6633 198.011 89.5405 197.952L89.3564 198.131C87.6994 200.04 85.6128 201.531 83.3421 201.531C81.7464 201.531 80.7645 199.98 82.176 197.653L82.8511 196.52C83.2807 196.58 83.7103 196.639 84.2013 196.639C86.6561 196.639 89.4792 195.386 91.3203 192.284C91.9954 191.151 92.2409 190.136 92.2409 189.242C92.2409 187.213 90.8907 185.841 89.1723 185.841C87.8835 185.841 86.3492 186.736 85.3059 188.466L81.685 194.551C80.3349 193.835 79.5984 192.582 79.5984 191.33C79.5984 190.256 80.0894 189.242 81.0713 188.466L80.3349 187.154C78.6779 188.287 77.9414 189.838 77.9414 191.389C77.9414 193.179 78.9847 194.909 80.8872 195.864L80.2121 197.057C78.5551 199.801 79.5371 202.844 82.8511 202.844C85.4287 202.844 87.3925 201.71 88.9882 200.219C88.4972 201.651 89.2337 202.844 90.8907 202.844C91.8113 202.844 92.9773 202.247 94.1434 201.352C94.2661 202.247 95.0026 202.844 96.1686 202.844C97.2733 202.844 98.5007 202.187 99.6668 201.173L98.8076 202.605H101.14L104.699 196.58C108.259 192.224 109.854 192.821 108.811 194.492L105.804 199.622C104.822 201.293 105.497 202.844 107.4 202.844C108.627 202.844 110.038 202.008 111.389 200.815C111.082 202.068 111.695 202.844 112.862 202.844C113.966 202.844 115.255 201.949 116.298 200.994L115.01 203.142C111.88 204.037 109.854 205.29 109.854 207.02C109.854 209.168 113.291 209.645 114.948 206.841L116.728 203.858C118.692 203.261 120.594 202.068 122.62 200.159C122.313 203.321 126.609 204.037 129.248 200.815H129.739C130.598 200.815 131.764 200.517 132.807 199.92L131.273 202.545H133.605L137.164 196.52C140.724 192.165 142.32 192.761 141.276 194.432L138.269 199.562C137.287 201.233 137.962 202.784 139.865 202.784C141.767 202.784 143.977 200.756 145.941 198.608C145.879 198.429 145.45 198.071 145.143 197.952ZM87.2084 189.48C87.8835 188.347 88.6813 187.81 89.2951 187.81C90.1542 187.81 90.5838 188.347 90.5838 189.182C90.5838 191.27 87.9449 195.088 84.324 195.088H83.833L87.2084 189.48ZM95.4322 198.31C94.0206 200.457 92.6091 201.472 91.6885 201.472C91.1976 201.472 90.8907 201.114 91.443 200.219L94.6957 194.73C95.9231 192.642 98.4393 193.179 97.2733 195.207L95.4322 198.31ZM113.107 206.543C112.616 207.378 111.818 207.258 111.818 206.662C111.818 206.065 112.371 205.409 114.15 204.753L113.107 206.543ZM128.818 198.071H128.695C127.959 198.071 127.345 198.668 127.345 199.443C127.345 199.741 127.406 199.98 127.591 200.219V200.278C126.486 202.128 123.847 201.77 125.197 199.384L126.977 196.401L128.082 194.551C129.739 191.867 131.948 192.94 130.536 195.267L128.818 198.071Z" fill="white"/>
<path d="M199.088 198.728C198.965 198.37 198.536 198.012 198.229 197.953L198.045 198.132C197.185 199.086 196.142 199.981 195.221 200.578C195.958 198.43 195.774 195.089 197.247 192.225L195.528 191.33C194.546 192.643 192.46 195.566 190.373 197.953L190.189 198.132C188.532 200.041 186.875 201.532 185.832 201.532C185.341 201.532 184.85 201.055 184.85 199.981V199.026C186.507 199.205 188.225 198.191 189.33 196.342L189.944 195.268C192.092 191.629 188.593 190.436 186.2 192.583L189.514 186.975H187.182L180.554 198.191C180.431 198.072 180.247 197.953 180.124 197.893L179.94 198.072C178.283 199.981 176.135 201.472 174.478 201.472C173.067 201.472 172.207 200.578 173.251 198.788L175.644 194.731C176.994 192.464 179.388 192.882 177.976 195.208L177.669 195.745H179.572L179.879 195.208C181.106 193.12 179.94 191.569 178.038 191.569C176.135 191.569 174.662 192.524 173.68 194.194L171.409 198.012C171.348 198.012 171.287 197.953 171.287 197.953L171.103 198.132C169.446 200.041 167.789 201.532 166.745 201.532C166.254 201.532 165.947 201.174 166.5 200.279L171.471 191.808H169.139L165.027 198.847C163.247 200.399 161.897 201.293 161.467 201.114C160.915 200.876 161.467 200.041 161.774 199.563L166.316 191.867H163.984L159.442 199.444C158.951 199.862 158.399 200.279 157.969 200.637C158.706 198.489 158.522 195.149 159.994 192.285L158.276 191.39C157.294 192.703 151.955 199.623 149.807 202.009C149.991 202.308 150.359 202.546 150.666 202.785C152.016 201.293 156.435 195.745 157.233 194.671C156.312 196.998 156.803 201.234 154.594 201.234C153.796 201.234 153.489 200.399 153.489 200.399L152.016 201.114C152.016 201.114 152.446 202.964 154.594 202.964C154.839 202.964 155.023 202.964 155.269 202.904H155.33C156.496 202.725 157.662 202.248 158.767 201.472C158.767 202.367 159.319 202.964 160.301 202.964C161.59 202.964 163.002 201.83 164.106 200.816C163.861 202.009 164.597 202.964 166.07 202.964C167.543 202.964 169.139 201.83 170.673 200.339C170.673 201.83 171.9 202.964 173.803 202.964C175.705 202.964 177.547 201.95 179.204 200.578L177.915 202.785H180.247L182.886 198.31V200.1C182.886 202.009 183.254 203.023 185.157 203.023C187.059 203.023 189.268 200.995 191.232 198.847C192.583 197.356 193.687 195.805 194.546 194.731C193.626 197.058 194.117 201.293 191.907 201.293C191.11 201.293 190.803 200.458 190.803 200.458L189.33 201.174C189.33 201.174 189.759 203.023 191.907 203.023C192.153 203.023 192.337 203.024 192.583 202.964H192.644C194.976 202.546 197.369 200.697 199.088 198.728ZM183.622 196.938L184.297 195.805C186.998 192.166 188.839 193.18 187.98 194.552L186.875 196.401C186.2 197.595 184.175 198.43 183.622 196.938Z" fill="white"/>
<path d="M199.026 200.279C198.29 200.279 197.676 200.876 197.676 201.592C197.676 202.307 198.229 202.904 199.026 202.904C199.763 202.904 200.377 202.367 200.377 201.592C200.377 200.876 199.763 200.279 199.026 200.279Z" fill="white"/>
<path d="M199.149 199.384H201.481L208.785 187.034H206.452L199.149 199.384Z" fill="white"/>
<path d="M49.2196 165.618C49.2196 165.797 49.1582 165.976 49.0968 166.155C49.0354 166.334 48.9127 166.512 48.79 166.632C48.6672 166.751 48.4831 166.87 48.299 166.99C48.1149 167.049 47.8694 167.109 47.6239 167.109C47.3171 167.109 47.0716 167.049 46.8261 166.93C46.5806 166.811 46.3351 166.691 46.151 166.512C45.9669 166.334 45.9055 166.155 45.7828 165.916C45.7214 165.677 45.66 165.439 45.66 165.14C45.66 164.603 45.7828 164.186 45.9669 163.709C46.151 163.291 46.3965 162.873 46.7647 162.575C46.8875 162.456 47.0716 162.277 47.2557 162.157C47.4398 162.038 47.6239 161.919 47.808 161.859C47.9921 161.799 48.1149 161.68 48.2376 161.621C48.3604 161.561 48.4217 161.561 48.4831 161.501L49.3423 162.694C49.2196 162.754 49.0354 162.814 48.8513 162.933C48.6672 162.993 48.4831 163.112 48.299 163.231C48.1149 163.351 47.9921 163.53 47.8694 163.709C47.7466 163.888 47.6853 164.067 47.6853 164.305C48.1149 164.305 48.4217 164.424 48.7286 164.663C49.0968 164.842 49.2196 165.2 49.2196 165.618ZM54.0679 165.618C54.0679 165.797 54.0065 165.976 53.9451 166.155C53.8838 166.334 53.761 166.512 53.6383 166.632C53.5155 166.751 53.3314 166.87 53.1473 166.99C52.9632 167.049 52.7177 167.109 52.4722 167.109C52.1654 167.109 51.9199 167.049 51.6744 166.93C51.4289 166.811 51.1834 166.691 50.9993 166.512C50.8766 166.334 50.7538 166.155 50.6311 165.916C50.5697 165.677 50.5083 165.439 50.5083 165.14C50.5083 164.603 50.6311 164.186 50.8152 163.709C50.9993 163.291 51.2448 162.873 51.613 162.575C51.7358 162.456 51.9199 162.277 52.104 162.157C52.2881 162.038 52.4722 161.919 52.6563 161.859C52.8404 161.799 52.9632 161.68 53.0859 161.621C53.2087 161.561 53.27 161.561 53.3314 161.501L54.1906 162.694C54.0679 162.754 53.8838 162.814 53.6996 162.933C53.5155 162.993 53.3314 163.112 53.1473 163.231C52.9632 163.351 52.8404 163.53 52.7177 163.709C52.595 163.888 52.5336 164.067 52.5336 164.305C52.9632 164.305 53.27 164.424 53.5769 164.663C53.8838 164.842 54.0679 165.2 54.0679 165.618Z" fill="white"/>
<path d="M216.763 200.756C216.763 200.577 216.824 200.398 216.885 200.219C216.947 200.04 217.069 199.861 217.192 199.742C217.315 199.623 217.499 199.503 217.683 199.384C217.867 199.324 218.113 199.265 218.358 199.265C218.665 199.265 218.911 199.324 219.156 199.444C219.402 199.563 219.647 199.682 219.831 199.861C220.015 200.04 220.077 200.219 220.199 200.458C220.261 200.697 220.322 200.935 220.322 201.234C220.322 201.77 220.199 202.188 220.015 202.665C219.831 203.083 219.586 203.501 219.217 203.799C219.095 203.918 218.911 204.097 218.726 204.216C218.542 204.336 218.358 204.455 218.174 204.515C217.99 204.574 217.867 204.694 217.745 204.753C217.622 204.813 217.56 204.813 217.499 204.873L216.64 203.68C216.763 203.62 216.947 203.56 217.131 203.441C217.315 203.381 217.499 203.262 217.683 203.143C217.867 203.023 217.99 202.844 218.113 202.665C218.236 202.486 218.297 202.307 218.297 202.069C217.867 202.069 217.56 201.949 217.254 201.711C216.947 201.532 216.763 201.174 216.763 200.756ZM211.976 200.756C211.976 200.577 212.037 200.398 212.098 200.219C212.16 200.04 212.282 199.861 212.405 199.742C212.528 199.623 212.712 199.503 212.896 199.384C213.08 199.324 213.326 199.265 213.571 199.265C213.878 199.265 214.124 199.324 214.369 199.444C214.615 199.563 214.86 199.682 215.044 199.861C215.167 200.04 215.29 200.219 215.412 200.458C215.474 200.697 215.535 200.935 215.535 201.234C215.535 201.77 215.412 202.188 215.228 202.665C215.044 203.083 214.799 203.501 214.43 203.799C214.308 203.918 214.124 204.097 213.94 204.216C213.755 204.336 213.571 204.455 213.387 204.515C213.203 204.574 213.08 204.694 212.958 204.753C212.835 204.813 212.773 204.813 212.712 204.873L211.853 203.68C212.037 203.62 212.16 203.56 212.344 203.441C212.528 203.381 212.712 203.262 212.896 203.143C213.08 203.023 213.203 202.844 213.326 202.665C213.449 202.486 213.51 202.307 213.51 202.069C213.08 202.069 212.773 201.949 212.467 201.711C212.098 201.532 211.976 201.174 211.976 200.756Z" fill="white"/>
</svg>
